<svg width="195" height="500" viewBox="0 0 195 500" fill="none" xmlns="http://www.w3.org/2000/svg">
<rect width="195" height="500" fill="white"/>
<path d="M59.0532 28.16C57.9865 28.16 57.0532 27.9933 56.2532 27.66C55.4532 27.3133 54.8332 26.8267 54.3932 26.2C53.9665 25.56 53.7532 24.82 53.7532 23.98V23.54C53.7532 23.4733 53.7732 23.42 53.8132 23.38C53.8665 23.3267 53.9265 23.3 53.9932 23.3H56.2732C56.3399 23.3 56.3932 23.3267 56.4332 23.38C56.4865 23.42 56.5132 23.4733 56.5132 23.54V23.84C56.5132 24.3733 56.7599 24.8267 57.2532 25.2C57.7465 25.56 58.4132 25.74 59.2532 25.74C59.9599 25.74 60.4865 25.5933 60.8332 25.3C61.1799 24.9933 61.3532 24.62 61.3532 24.18C61.3532 23.86 61.2465 23.5933 61.0332 23.38C60.8199 23.1533 60.5265 22.96 60.1532 22.8C59.7932 22.6267 59.2132 22.3933 58.4132 22.1C57.5199 21.7933 56.7599 21.48 56.1332 21.16C55.5199 20.84 54.9999 20.4067 54.5732 19.86C54.1599 19.3 53.9532 18.6133 53.9532 17.8C53.9532 17 54.1599 16.3 54.5732 15.7C54.9865 15.1 55.5599 14.64 56.2932 14.32C57.0265 14 57.8732 13.84 58.8332 13.84C59.8465 13.84 60.7465 14.02 61.5332 14.38C62.3332 14.74 62.9532 15.2467 63.3932 15.9C63.8465 16.54 64.0732 17.2867 64.0732 18.14V18.44C64.0732 18.5067 64.0465 18.5667 63.9932 18.62C63.9532 18.66 63.8999 18.68 63.8332 18.68H61.5332C61.4665 18.68 61.4065 18.66 61.3532 18.62C61.3132 18.5667 61.2932 18.5067 61.2932 18.44V18.28C61.2932 17.72 61.0599 17.2467 60.5932 16.86C60.1399 16.46 59.5132 16.26 58.7132 16.26C58.0865 16.26 57.5932 16.3933 57.2332 16.66C56.8865 16.9267 56.7132 17.2933 56.7132 17.76C56.7132 18.0933 56.8132 18.3733 57.0132 18.6C57.2265 18.8267 57.5332 19.0333 57.9332 19.22C58.3465 19.3933 58.9799 19.6333 59.8332 19.94C60.7799 20.2867 61.5199 20.5933 62.0532 20.86C62.5999 21.1267 63.0865 21.5267 63.5132 22.06C63.9532 22.58 64.1732 23.26 64.1732 24.1C64.1732 25.3533 63.7132 26.3467 62.7932 27.08C61.8732 27.8 60.6265 28.16 59.0532 28.16ZM70.5077 28.16C69.3877 28.16 68.4277 27.8667 67.6277 27.28C66.8277 26.6933 66.2811 25.8933 65.9877 24.88C65.8011 24.2533 65.7077 23.5733 65.7077 22.84C65.7077 22.0533 65.8011 21.3467 65.9877 20.72C66.2944 19.7333 66.8477 18.96 67.6477 18.4C68.4477 17.84 69.4077 17.56 70.5277 17.56C71.6211 17.56 72.5544 17.84 73.3277 18.4C74.1011 18.9467 74.6477 19.7133 74.9677 20.7C75.1811 21.3667 75.2877 22.0667 75.2877 22.8C75.2877 23.52 75.1944 24.1933 75.0077 24.82C74.7144 25.86 74.1677 26.68 73.3677 27.28C72.5811 27.8667 71.6277 28.16 70.5077 28.16ZM70.5077 25.74C70.9477 25.74 71.3211 25.6067 71.6277 25.34C71.9344 25.0733 72.1544 24.7067 72.2877 24.24C72.3944 23.8133 72.4477 23.3467 72.4477 22.84C72.4477 22.28 72.3944 21.8067 72.2877 21.42C72.1411 20.9667 71.9144 20.6133 71.6077 20.36C71.3011 20.1067 70.9277 19.98 70.4877 19.98C70.0344 19.98 69.6544 20.1067 69.3477 20.36C69.0544 20.6133 68.8411 20.9667 68.7077 21.42C68.6011 21.74 68.5477 22.2133 68.5477 22.84C68.5477 23.44 68.5944 23.9067 68.6877 24.24C68.8211 24.7067 69.0411 25.0733 69.3477 25.34C69.6677 25.6067 70.0544 25.74 70.5077 25.74ZM82.2205 17.58C82.7005 17.58 83.0805 17.6733 83.3605 17.86C83.4672 17.9133 83.5072 18.0133 83.4805 18.16L83.0605 20.44C83.0472 20.6 82.9539 20.6467 82.7805 20.58C82.5805 20.5133 82.3472 20.48 82.0805 20.48C81.9739 20.48 81.8272 20.4933 81.6405 20.52C81.1605 20.56 80.7539 20.74 80.4205 21.06C80.0872 21.3667 79.9205 21.78 79.9205 22.3V27.76C79.9205 27.8267 79.8939 27.8867 79.8405 27.94C79.8005 27.98 79.7472 28 79.6805 28H77.3405C77.2739 28 77.2139 27.98 77.1605 27.94C77.1205 27.8867 77.1005 27.8267 77.1005 27.76V17.96C77.1005 17.8933 77.1205 17.84 77.1605 17.8C77.2139 17.7467 77.2739 17.72 77.3405 17.72H79.6805C79.7472 17.72 79.8005 17.7467 79.8405 17.8C79.8939 17.84 79.9205 17.8933 79.9205 17.96V18.72C79.9205 18.76 79.9339 18.7867 79.9605 18.8C79.9872 18.8133 80.0072 18.8067 80.0205 18.78C80.5672 17.98 81.3005 17.58 82.2205 17.58ZM90.774 19.74C90.774 19.8067 90.7473 19.8667 90.694 19.92C90.654 19.96 90.6007 19.98 90.534 19.98H88.614C88.5473 19.98 88.514 20.0133 88.514 20.08V24.32C88.514 24.76 88.6007 25.0867 88.774 25.3C88.9607 25.5133 89.254 25.62 89.654 25.62H90.314C90.3807 25.62 90.434 25.6467 90.474 25.7C90.5273 25.74 90.554 25.7933 90.554 25.86V27.76C90.554 27.9067 90.474 27.9933 90.314 28.02C89.754 28.0467 89.354 28.06 89.114 28.06C88.0073 28.06 87.1807 27.88 86.634 27.52C86.0873 27.1467 85.8073 26.4533 85.794 25.44V20.08C85.794 20.0133 85.7607 19.98 85.694 19.98H84.554C84.4873 19.98 84.4273 19.96 84.374 19.92C84.334 19.8667 84.314 19.8067 84.314 19.74V17.96C84.314 17.8933 84.334 17.84 84.374 17.8C84.4273 17.7467 84.4873 17.72 84.554 17.72H85.694C85.7607 17.72 85.794 17.6867 85.794 17.62V15.24C85.794 15.1733 85.814 15.12 85.854 15.08C85.9073 15.0267 85.9673 15 86.034 15H88.274C88.3407 15 88.394 15.0267 88.434 15.08C88.4873 15.12 88.514 15.1733 88.514 15.24V17.62C88.514 17.6867 88.5473 17.72 88.614 17.72H90.534C90.6007 17.72 90.654 17.7467 90.694 17.8C90.7473 17.84 90.774 17.8933 90.774 17.96V19.74ZM101.435 21.8C101.515 22.3067 101.542 22.8733 101.515 23.5C101.502 23.66 101.415 23.74 101.255 23.74H95.0749C94.9949 23.74 94.9683 23.7733 94.9949 23.84C95.0349 24.1067 95.1083 24.3733 95.2149 24.64C95.5616 25.3867 96.2683 25.76 97.3349 25.76C98.1883 25.7467 98.8616 25.4 99.3549 24.72C99.4083 24.64 99.4683 24.6 99.5349 24.6C99.5749 24.6 99.6216 24.6267 99.6749 24.68L101.115 26.1C101.182 26.1667 101.215 26.2267 101.215 26.28C101.215 26.3067 101.188 26.36 101.135 26.44C100.695 26.9867 100.128 27.4133 99.4349 27.72C98.7416 28.0133 97.9816 28.16 97.1549 28.16C96.0083 28.16 95.0349 27.9 94.2349 27.38C93.4483 26.86 92.8816 26.1333 92.5349 25.2C92.2549 24.5333 92.1149 23.66 92.1149 22.58C92.1149 21.8467 92.2149 21.2 92.4149 20.64C92.7216 19.6933 93.2549 18.94 94.0149 18.38C94.7883 17.82 95.7016 17.54 96.7549 17.54C98.0883 17.54 99.1549 17.9267 99.9549 18.7C100.768 19.4733 101.262 20.5067 101.435 21.8ZM96.7749 19.98C95.9349 19.98 95.3816 20.3733 95.1149 21.16C95.0616 21.3333 95.0149 21.5467 94.9749 21.8C94.9749 21.8667 95.0083 21.9 95.0749 21.9H98.5349C98.6149 21.9 98.6416 21.8667 98.6149 21.8C98.5483 21.4133 98.5149 21.2267 98.5149 21.24C98.3949 20.84 98.1816 20.5333 97.8749 20.32C97.5816 20.0933 97.2149 19.98 96.7749 19.98ZM109.633 14.24C109.633 14.1733 109.653 14.12 109.693 14.08C109.746 14.0267 109.806 14 109.873 14H112.213C112.28 14 112.333 14.0267 112.373 14.08C112.426 14.12 112.453 14.1733 112.453 14.24V27.76C112.453 27.8267 112.426 27.8867 112.373 27.94C112.333 27.98 112.28 28 112.213 28H109.873C109.806 28 109.746 27.98 109.693 27.94C109.653 27.8867 109.633 27.8267 109.633 27.76V27.1C109.633 27.06 109.62 27.04 109.593 27.04C109.566 27.0267 109.54 27.0333 109.513 27.06C108.953 27.7933 108.186 28.16 107.213 28.16C106.28 28.16 105.473 27.9 104.793 27.38C104.126 26.86 103.646 26.1467 103.353 25.24C103.126 24.5467 103.013 23.74 103.013 22.82C103.013 21.8733 103.133 21.0467 103.373 20.34C103.68 19.4867 104.16 18.8133 104.813 18.32C105.48 17.8133 106.3 17.56 107.273 17.56C108.233 17.56 108.98 17.8933 109.513 18.56C109.54 18.6 109.566 18.6133 109.593 18.6C109.62 18.5867 109.633 18.56 109.633 18.52V14.24ZM109.213 24.88C109.48 24.3867 109.613 23.7133 109.613 22.86C109.613 21.9667 109.466 21.2667 109.173 20.76C108.866 20.24 108.42 19.98 107.833 19.98C107.206 19.98 106.733 20.24 106.413 20.76C106.08 21.28 105.913 21.9867 105.913 22.88C105.913 23.68 106.053 24.3467 106.333 24.88C106.666 25.4533 107.16 25.74 107.813 25.74C108.413 25.74 108.88 25.4533 109.213 24.88ZM127.065 20.7C126.985 20.74 126.985 20.78 127.065 20.82C128.332 21.4733 128.965 22.56 128.965 24.08C128.965 25.3733 128.525 26.3533 127.645 27.02C126.765 27.6733 125.612 28 124.185 28H119.005C118.938 28 118.878 27.98 118.825 27.94C118.785 27.8867 118.765 27.8267 118.765 27.76V14.24C118.765 14.1733 118.785 14.12 118.825 14.08C118.878 14.0267 118.938 14 119.005 14H124.025C127.185 14 128.765 15.28 128.765 17.84C128.765 19.1733 128.198 20.1267 127.065 20.7ZM121.685 16.42C121.618 16.42 121.585 16.4533 121.585 16.52V19.64C121.585 19.7067 121.618 19.74 121.685 19.74H124.025C124.652 19.74 125.138 19.5933 125.485 19.3C125.832 19.0067 126.005 18.6067 126.005 18.1C126.005 17.58 125.832 17.1733 125.485 16.88C125.138 16.5733 124.652 16.42 124.025 16.42H121.685ZM124.185 25.56C124.798 25.56 125.278 25.4067 125.625 25.1C125.972 24.78 126.145 24.3467 126.145 23.8C126.145 23.2533 125.972 22.8267 125.625 22.52C125.278 22.2 124.792 22.04 124.165 22.04H121.685C121.618 22.04 121.585 22.0733 121.585 22.14V25.46C121.585 25.5267 121.618 25.56 121.685 25.56H124.185ZM130.869 31.98C130.829 31.98 130.795 31.9533 130.769 31.9C130.742 31.86 130.729 31.8067 130.729 31.74V29.9C130.729 29.8333 130.749 29.7733 130.789 29.72C130.842 29.68 130.902 29.66 130.969 29.66C131.529 29.6467 131.969 29.6 132.289 29.52C132.622 29.44 132.882 29.2867 133.069 29.06C133.269 28.8333 133.422 28.5 133.529 28.06C133.542 28.0333 133.542 27.9933 133.529 27.94L130.249 17.98C130.235 17.9533 130.229 17.92 130.229 17.88C130.229 17.76 130.302 17.7 130.449 17.7H132.949C133.095 17.7 133.189 17.7667 133.229 17.9L134.909 24.38C134.922 24.42 134.942 24.44 134.969 24.44C134.995 24.44 135.015 24.42 135.029 24.38L136.709 17.9C136.749 17.7667 136.842 17.7 136.989 17.7H139.429C139.509 17.7 139.562 17.7267 139.589 17.78C139.629 17.82 139.635 17.8867 139.609 17.98L136.149 28.38C135.815 29.3533 135.475 30.08 135.129 30.56C134.782 31.0533 134.295 31.4133 133.669 31.64C133.042 31.8667 132.155 31.98 131.009 31.98H130.869Z" fill="black"/>
<g filter="url(#filter0_d_11_637)">
<path d="M30 61C30 49.9543 38.9543 41 50 41H144C155.046 41 164 49.9543 164 61V66C164 77.0457 155.046 86 144 86H50C38.9543 86 30 77.0457 30 66V61Z" fill="#D9D9D9"/>
</g>
<g filter="url(#filter1_i_11_637)">
<path d="M56.0052 70.14C55.1119 70.14 54.3319 70.0133 53.6652 69.76C52.9986 69.5067 52.4786 69.1533 52.1052 68.7C51.7452 68.2467 51.5652 67.7333 51.5652 67.16V66.96C51.5652 66.8933 51.5852 66.84 51.6252 66.8C51.6786 66.7467 51.7386 66.72 51.8052 66.72H54.0252C54.0919 66.72 54.1452 66.7467 54.1852 66.8C54.2386 66.84 54.2652 66.8933 54.2652 66.96V66.98C54.2652 67.2733 54.4252 67.5267 54.7452 67.74C55.0786 67.94 55.4919 68.04 55.9852 68.04C56.4386 68.04 56.8052 67.9533 57.0852 67.78C57.3652 67.5933 57.5052 67.3667 57.5052 67.1C57.5052 66.86 57.3852 66.68 57.1452 66.56C56.9052 66.44 56.5119 66.3133 55.9652 66.18C55.3386 66.02 54.8452 65.8667 54.4852 65.72C53.6319 65.4267 52.9519 65.0667 52.4452 64.64C51.9386 64.2133 51.6852 63.6 51.6852 62.8C51.6852 61.8133 52.0652 61.0333 52.8252 60.46C53.5986 59.8733 54.6186 59.58 55.8852 59.58C56.7386 59.58 57.4852 59.72 58.1252 60C58.7652 60.2667 59.2586 60.6467 59.6052 61.14C59.9652 61.6333 60.1452 62.1933 60.1452 62.82C60.1452 62.8867 60.1186 62.9467 60.0652 63C60.0252 63.04 59.9719 63.06 59.9052 63.06H57.7652C57.6986 63.06 57.6386 63.04 57.5852 63C57.5452 62.9467 57.5252 62.8867 57.5252 62.82C57.5252 62.5267 57.3719 62.28 57.0652 62.08C56.7719 61.88 56.3786 61.78 55.8852 61.78C55.4452 61.78 55.0852 61.86 54.8052 62.02C54.5252 62.18 54.3852 62.4 54.3852 62.68C54.3852 62.9467 54.5186 63.1467 54.7852 63.28C55.0652 63.4133 55.5252 63.5533 56.1652 63.7C56.3119 63.74 56.4786 63.7867 56.6652 63.84C56.8519 63.88 57.0519 63.9333 57.2652 64C58.2119 64.28 58.9586 64.64 59.5052 65.08C60.0519 65.52 60.3252 66.16 60.3252 67C60.3252 67.9867 59.9319 68.76 59.1452 69.32C58.3719 69.8667 57.3252 70.14 56.0052 70.14ZM71.0443 63.8C71.1243 64.3067 71.151 64.8733 71.1243 65.5C71.111 65.66 71.0243 65.74 70.8643 65.74H64.6843C64.6043 65.74 64.5776 65.7733 64.6043 65.84C64.6443 66.1067 64.7176 66.3733 64.8243 66.64C65.171 67.3867 65.8776 67.76 66.9443 67.76C67.7976 67.7467 68.471 67.4 68.9643 66.72C69.0176 66.64 69.0776 66.6 69.1443 66.6C69.1843 66.6 69.231 66.6267 69.2843 66.68L70.7243 68.1C70.791 68.1667 70.8243 68.2267 70.8243 68.28C70.8243 68.3067 70.7976 68.36 70.7443 68.44C70.3043 68.9867 69.7376 69.4133 69.0443 69.72C68.351 70.0133 67.591 70.16 66.7643 70.16C65.6176 70.16 64.6443 69.9 63.8443 69.38C63.0576 68.86 62.491 68.1333 62.1443 67.2C61.8643 66.5333 61.7243 65.66 61.7243 64.58C61.7243 63.8467 61.8243 63.2 62.0243 62.64C62.331 61.6933 62.8643 60.94 63.6243 60.38C64.3976 59.82 65.311 59.54 66.3643 59.54C67.6976 59.54 68.7643 59.9267 69.5643 60.7C70.3776 61.4733 70.871 62.5067 71.0443 63.8ZM66.3843 61.98C65.5443 61.98 64.991 62.3733 64.7243 63.16C64.671 63.3333 64.6243 63.5467 64.5843 63.8C64.5843 63.8667 64.6176 63.9 64.6843 63.9H68.1443C68.2243 63.9 68.251 63.8667 68.2243 63.8C68.1576 63.4133 68.1243 63.2267 68.1243 63.24C68.0043 62.84 67.791 62.5333 67.4843 62.32C67.191 62.0933 66.8243 61.98 66.3843 61.98ZM73.1023 70C73.0356 70 72.9756 69.98 72.9223 69.94C72.8823 69.8867 72.8623 69.8267 72.8623 69.76V56.24C72.8623 56.1733 72.8823 56.12 72.9223 56.08C72.9756 56.0267 73.0356 56 73.1023 56H75.4423C75.5089 56 75.5623 56.0267 75.6023 56.08C75.6556 56.12 75.6823 56.1733 75.6823 56.24V69.76C75.6823 69.8267 75.6556 69.8867 75.6023 69.94C75.5623 69.98 75.5089 70 75.4423 70H73.1023ZM86.8451 63.8C86.9251 64.3067 86.9517 64.8733 86.9251 65.5C86.9117 65.66 86.8251 65.74 86.6651 65.74H80.4851C80.4051 65.74 80.3784 65.7733 80.4051 65.84C80.4451 66.1067 80.5184 66.3733 80.6251 66.64C80.9717 67.3867 81.6784 67.76 82.7451 67.76C83.5984 67.7467 84.2717 67.4 84.7651 66.72C84.8184 66.64 84.8784 66.6 84.9451 66.6C84.9851 66.6 85.0317 66.6267 85.0851 66.68L86.5251 68.1C86.5917 68.1667 86.6251 68.2267 86.6251 68.28C86.6251 68.3067 86.5984 68.36 86.5451 68.44C86.1051 68.9867 85.5384 69.4133 84.8451 69.72C84.1517 70.0133 83.3917 70.16 82.5651 70.16C81.4184 70.16 80.4451 69.9 79.6451 69.38C78.8584 68.86 78.2917 68.1333 77.9451 67.2C77.6651 66.5333 77.5251 65.66 77.5251 64.58C77.5251 63.8467 77.6251 63.2 77.8251 62.64C78.1317 61.6933 78.6651 60.94 79.4251 60.38C80.1984 59.82 81.1117 59.54 82.1651 59.54C83.4984 59.54 84.5651 59.9267 85.3651 60.7C86.1784 61.4733 86.6717 62.5067 86.8451 63.8ZM82.1851 61.98C81.3451 61.98 80.7917 62.3733 80.5251 63.16C80.4717 63.3333 80.4251 63.5467 80.3851 63.8C80.3851 63.8667 80.4184 63.9 80.4851 63.9H83.9451C84.0251 63.9 84.0517 63.8667 84.0251 63.8C83.9584 63.4133 83.9251 63.2267 83.9251 63.24C83.8051 62.84 83.5917 62.5333 83.2851 62.32C82.9917 62.0933 82.6251 61.98 82.1851 61.98ZM93.183 70.16C92.1164 70.16 91.1897 69.8933 90.403 69.36C89.6297 68.8267 89.0764 68.0933 88.743 67.16C88.5164 66.4933 88.403 65.7067 88.403 64.8C88.403 63.9067 88.5164 63.1333 88.743 62.48C89.063 61.5733 89.6164 60.86 90.403 60.34C91.1897 59.82 92.1164 59.56 93.183 59.56C94.2497 59.56 95.183 59.8267 95.983 60.36C96.7964 60.8933 97.3364 61.5667 97.603 62.38C97.7097 62.7 97.763 62.94 97.763 63.1V63.14C97.763 63.26 97.6964 63.3333 97.563 63.36L95.263 63.7H95.223C95.103 63.7 95.023 63.6333 94.983 63.5L94.923 63.18C94.8297 62.8333 94.623 62.5467 94.303 62.32C93.983 62.0933 93.603 61.98 93.163 61.98C92.7364 61.98 92.3764 62.0867 92.083 62.3C91.7897 62.5133 91.583 62.8067 91.463 63.18C91.3164 63.58 91.243 64.1267 91.243 64.82C91.243 65.5133 91.3097 66.06 91.443 66.46C91.563 66.86 91.7697 67.1733 92.063 67.4C92.3697 67.6267 92.7364 67.74 93.163 67.74C93.5764 67.74 93.9364 67.6333 94.243 67.42C94.563 67.1933 94.783 66.8867 94.903 66.5C94.9164 66.4733 94.923 66.4333 94.923 66.38C94.9364 66.3667 94.943 66.3467 94.943 66.32C94.9564 66.16 95.0497 66.0933 95.223 66.12L97.523 66.48C97.6564 66.5067 97.723 66.58 97.723 66.7C97.723 66.8067 97.683 67.0067 97.603 67.3C97.323 68.1933 96.7764 68.8933 95.963 69.4C95.163 69.9067 94.2364 70.16 93.183 70.16ZM105.305 61.74C105.305 61.8067 105.279 61.8667 105.225 61.92C105.185 61.96 105.132 61.98 105.065 61.98H103.145C103.079 61.98 103.045 62.0133 103.045 62.08V66.32C103.045 66.76 103.132 67.0867 103.305 67.3C103.492 67.5133 103.785 67.62 104.185 67.62H104.845C104.912 67.62 104.965 67.6467 105.005 67.7C105.059 67.74 105.085 67.7933 105.085 67.86V69.76C105.085 69.9067 105.005 69.9933 104.845 70.02C104.285 70.0467 103.885 70.06 103.645 70.06C102.539 70.06 101.712 69.88 101.165 69.52C100.619 69.1467 100.339 68.4533 100.325 67.44V62.08C100.325 62.0133 100.292 61.98 100.225 61.98H99.0852C99.0186 61.98 98.9586 61.96 98.9052 61.92C98.8652 61.8667 98.8452 61.8067 98.8452 61.74V59.96C98.8452 59.8933 98.8652 59.84 98.9052 59.8C98.9586 59.7467 99.0186 59.72 99.0852 59.72H100.225C100.292 59.72 100.325 59.6867 100.325 59.62V57.24C100.325 57.1733 100.345 57.12 100.385 57.08C100.439 57.0267 100.499 57 100.565 57H102.805C102.872 57 102.925 57.0267 102.965 57.08C103.019 57.12 103.045 57.1733 103.045 57.24V59.62C103.045 59.6867 103.079 59.72 103.145 59.72H105.065C105.132 59.72 105.185 59.7467 105.225 59.8C105.279 59.84 105.305 59.8933 105.305 59.96V61.74ZM108.563 70.08C108.11 70.08 107.73 69.9333 107.423 69.64C107.13 69.3333 106.983 68.9533 106.983 68.5C106.983 68.0333 107.13 67.6533 107.423 67.36C107.716 67.0667 108.096 66.92 108.563 66.92C109.03 66.92 109.41 67.0667 109.703 67.36C109.996 67.6533 110.143 68.0333 110.143 68.5C110.143 68.9533 109.99 69.3333 109.683 69.64C109.39 69.9333 109.016 70.08 108.563 70.08ZM113.954 70.08C113.5 70.08 113.12 69.9333 112.814 69.64C112.52 69.3333 112.374 68.9533 112.374 68.5C112.374 68.0333 112.52 67.6533 112.814 67.36C113.107 67.0667 113.487 66.92 113.954 66.92C114.42 66.92 114.8 67.0667 115.094 67.36C115.387 67.6533 115.534 68.0333 115.534 68.5C115.534 68.9533 115.38 69.3333 115.074 69.64C114.78 69.9333 114.407 70.08 113.954 70.08ZM119.344 70.08C118.891 70.08 118.511 69.9333 118.204 69.64C117.911 69.3333 117.764 68.9533 117.764 68.5C117.764 68.0333 117.911 67.6533 118.204 67.36C118.497 67.0667 118.877 66.92 119.344 66.92C119.811 66.92 120.191 67.0667 120.484 67.36C120.777 67.6533 120.924 68.0333 120.924 68.5C120.924 68.9533 120.771 69.3333 120.464 69.64C120.171 69.9333 119.797 70.08 119.344 70.08Z" fill="black"/>
</g>
<g filter="url(#filter2_d_11_637)">
<line x1="139.119" y1="59.0014" x2="148.024" y2="68.9824" stroke="#514C4C" stroke-width="3"/>
</g>
<g filter="url(#filter3_d_11_637)">
<line x1="146.819" y1="68.5053" x2="155.914" y2="58.9649" stroke="#514C4C" stroke-width="3"/>
</g>
<defs>
<filter id="filter0_d_11_637" x="26" y="41" width="142" height="53" filterUnits="userSpaceOnUse" color-interpolation-filters="sRGB">
<feFlood flood-opacity="0" result="BackgroundImageFix"/>
<feColorMatrix in="SourceAlpha" type="matrix" values="0 0 0 0 0 0 0 0 0 0 0 0 0 0 0 0 0 0 127 0" result="hardAlpha"/>
<feOffset dy="4"/>
<feGaussianBlur stdDeviation="2"/>
<feComposite in2="hardAlpha" operator="out"/>
<feColorMatrix type="matrix" values="0 0 0 0 0 0 0 0 0 0 0 0 0 0 0 0 0 0 0.25 0"/>
<feBlend mode="normal" in2="BackgroundImageFix" result="effect1_dropShadow_11_637"/>
<feBlend mode="normal" in="SourceGraphic" in2="effect1_dropShadow_11_637" result="shape"/>
</filter>
<filter id="filter1_i_11_637" x="51.5652" y="56" width="69.3589" height="18.16" filterUnits="userSpaceOnUse" color-interpolation-filters="sRGB">
<feFlood flood-opacity="0" result="BackgroundImageFix"/>
<feBlend mode="normal" in="SourceGraphic" in2="BackgroundImageFix" result="shape"/>
<feColorMatrix in="SourceAlpha" type="matrix" values="0 0 0 0 0 0 0 0 0 0 0 0 0 0 0 0 0 0 127 0" result="hardAlpha"/>
<feOffset dy="4"/>
<feGaussianBlur stdDeviation="2"/>
<feComposite in2="hardAlpha" operator="arithmetic" k2="-1" k3="1"/>
<feColorMatrix type="matrix" values="0 0 0 0 0 0 0 0 0 0 0 0 0 0 0 0 0 0 0.25 0"/>
<feBlend mode="normal" in2="shape" result="effect1_innerShadow_11_637"/>
</filter>
<filter id="filter2_d_11_637" x="134" y="58.0028" width="19.1429" height="19.9781" filterUnits="userSpaceOnUse" color-interpolation-filters="sRGB">
<feFlood flood-opacity="0" result="BackgroundImageFix"/>
<feColorMatrix in="SourceAlpha" type="matrix" values="0 0 0 0 0 0 0 0 0 0 0 0 0 0 0 0 0 0 127 0" result="hardAlpha"/>
<feOffset dy="4"/>
<feGaussianBlur stdDeviation="2"/>
<feComposite in2="hardAlpha" operator="out"/>
<feColorMatrix type="matrix" values="0 0 0 0 0 0 0 0 0 0 0 0 0 0 0 0 0 0 0.25 0"/>
<feBlend mode="normal" in2="BackgroundImageFix" result="effect1_dropShadow_11_637"/>
<feBlend mode="normal" in="SourceGraphic" in2="effect1_dropShadow_11_637" result="shape"/>
</filter>
<filter id="filter3_d_11_637" x="141.733" y="57.9299" width="19.2671" height="19.6105" filterUnits="userSpaceOnUse" color-interpolation-filters="sRGB">
<feFlood flood-opacity="0" result="BackgroundImageFix"/>
<feColorMatrix in="SourceAlpha" type="matrix" values="0 0 0 0 0 0 0 0 0 0 0 0 0 0 0 0 0 0 127 0" result="hardAlpha"/>
<feOffset dy="4"/>
<feGaussianBlur stdDeviation="2"/>
<feComposite in2="hardAlpha" operator="out"/>
<feColorMatrix type="matrix" values="0 0 0 0 0 0 0 0 0 0 0 0 0 0 0 0 0 0 0.25 0"/>
<feBlend mode="normal" in2="BackgroundImageFix" result="effect1_dropShadow_11_637"/>
<feBlend mode="normal" in="SourceGraphic" in2="effect1_dropShadow_11_637" result="shape"/>
</filter>
</defs>
</svg>
