<svg width="800" height="500" viewBox="0 0 800 500" fill="none" xmlns="http://www.w3.org/2000/svg">
<rect width="800" height="500" fill="white"/>
<line x1="157.5" y1="349" x2="157.5" y2="49" stroke="#666666" stroke-dasharray="4"/>
<path d="M158.479 365.12C157.711 365.12 157.099 364.9 156.643 364.46C156.187 364.02 155.959 363.432 155.959 362.696V358.904C155.959 358.168 156.187 357.584 156.643 357.152C157.099 356.712 157.711 356.492 158.479 356.492C159.255 356.492 159.875 356.712 160.339 357.152C160.803 357.592 161.035 358.176 161.035 358.904V362.696C161.035 363.432 160.803 364.02 160.339 364.46C159.875 364.9 159.255 365.12 158.479 365.12ZM158.479 364.376C158.991 364.376 159.403 364.228 159.715 363.932C160.027 363.636 160.183 363.24 160.183 362.744V358.868C160.183 358.38 160.027 357.988 159.715 357.692C159.411 357.396 158.999 357.248 158.479 357.248C157.975 357.248 157.571 357.396 157.267 357.692C156.963 357.988 156.811 358.38 156.811 358.868V362.744C156.811 363.24 156.963 363.636 157.267 363.932C157.571 364.228 157.975 364.376 158.479 364.376Z" fill="black"/>
<line x1="207.5" y1="349" x2="207.5" y2="49" stroke="#666666" stroke-dasharray="4"/>
<path d="M205.17 356.636C205.218 356.612 205.27 356.6 205.326 356.6H205.974C206.054 356.6 206.094 356.64 206.094 356.72V364.88C206.094 364.96 206.054 365 205.974 365H205.362C205.282 365 205.242 364.96 205.242 364.88V357.572C205.242 357.556 205.234 357.544 205.218 357.536C205.21 357.528 205.198 357.528 205.182 357.536L203.91 358.052L203.862 358.064C203.814 358.064 203.782 358.032 203.766 357.968L203.706 357.512V357.488C203.706 357.448 203.734 357.408 203.79 357.368L205.17 356.636ZM210.577 365.12C209.809 365.12 209.197 364.9 208.741 364.46C208.285 364.02 208.057 363.432 208.057 362.696V358.904C208.057 358.168 208.285 357.584 208.741 357.152C209.197 356.712 209.809 356.492 210.577 356.492C211.353 356.492 211.973 356.712 212.437 357.152C212.901 357.592 213.133 358.176 213.133 358.904V362.696C213.133 363.432 212.901 364.02 212.437 364.46C211.973 364.9 211.353 365.12 210.577 365.12ZM210.577 364.376C211.089 364.376 211.501 364.228 211.813 363.932C212.125 363.636 212.281 363.24 212.281 362.744V358.868C212.281 358.38 212.125 357.988 211.813 357.692C211.509 357.396 211.097 357.248 210.577 357.248C210.073 357.248 209.669 357.396 209.365 357.692C209.061 357.988 208.909 358.38 208.909 358.868V362.744C208.909 363.24 209.061 363.636 209.365 363.932C209.669 364.228 210.073 364.376 210.577 364.376Z" fill="black"/>
<line x1="257.5" y1="349" x2="257.5" y2="49" stroke="#666666" stroke-dasharray="4"/>
<path d="M253.215 364.196C253.191 364.236 253.199 364.256 253.239 364.256H257.007C257.087 364.256 257.127 364.296 257.127 364.376V364.88C257.127 364.96 257.087 365 257.007 365H252.219C252.139 365 252.099 364.96 252.099 364.88V364.376C252.099 364.32 252.119 364.272 252.159 364.232C252.431 363.912 253.043 363.16 253.995 361.976L254.883 360.872C255.635 359.92 256.011 359.18 256.011 358.652C256.011 358.228 255.867 357.888 255.579 357.632C255.291 357.376 254.915 357.248 254.451 357.248C253.995 357.248 253.627 357.38 253.347 357.644C253.067 357.9 252.931 358.24 252.939 358.664V359.036C252.939 359.116 252.899 359.156 252.819 359.156H252.195C252.115 359.156 252.075 359.116 252.075 359.036V358.556C252.091 357.94 252.319 357.444 252.759 357.068C253.207 356.692 253.771 356.504 254.451 356.504C254.931 356.504 255.355 356.596 255.723 356.78C256.091 356.964 256.375 357.22 256.575 357.548C256.775 357.868 256.875 358.232 256.875 358.64C256.875 359.32 256.499 360.14 255.747 361.1C255.355 361.604 254.599 362.532 253.479 363.884L253.215 364.196ZM261.196 365.12C260.428 365.12 259.816 364.9 259.36 364.46C258.904 364.02 258.676 363.432 258.676 362.696V358.904C258.676 358.168 258.904 357.584 259.36 357.152C259.816 356.712 260.428 356.492 261.196 356.492C261.972 356.492 262.592 356.712 263.056 357.152C263.52 357.592 263.752 358.176 263.752 358.904V362.696C263.752 363.432 263.52 364.02 263.056 364.46C262.592 364.9 261.972 365.12 261.196 365.12ZM261.196 364.376C261.708 364.376 262.12 364.228 262.432 363.932C262.744 363.636 262.9 363.24 262.9 362.744V358.868C262.9 358.38 262.744 357.988 262.432 357.692C262.128 357.396 261.716 357.248 261.196 357.248C260.692 357.248 260.288 357.396 259.984 357.692C259.68 357.988 259.528 358.38 259.528 358.868V362.744C259.528 363.24 259.68 363.636 259.984 363.932C260.288 364.228 260.692 364.376 261.196 364.376Z" fill="black"/>
<line x1="307.5" y1="349" x2="307.5" y2="49" stroke="#666666" stroke-dasharray="4"/>
<path d="M307.18 361.028C307.34 361.42 307.42 361.888 307.42 362.432C307.42 362.872 307.36 363.26 307.24 363.596C307.08 364.076 306.808 364.448 306.424 364.712C306.048 364.968 305.58 365.096 305.02 365.096C304.46 365.096 303.98 364.952 303.58 364.664C303.18 364.368 302.904 363.972 302.752 363.476C302.68 363.252 302.636 362.948 302.62 362.564C302.62 362.484 302.66 362.444 302.74 362.444H303.352C303.432 362.444 303.472 362.484 303.472 362.564C303.488 362.796 303.516 363.012 303.556 363.212C303.644 363.564 303.812 363.844 304.06 364.052C304.316 364.252 304.632 364.352 305.008 364.352C305.728 364.352 306.196 364.032 306.412 363.392C306.508 363.128 306.556 362.8 306.556 362.408C306.556 361.928 306.492 361.536 306.364 361.232C306.108 360.656 305.656 360.368 305.008 360.368C304.888 360.368 304.74 360.412 304.564 360.5C304.532 360.516 304.508 360.524 304.492 360.524C304.46 360.524 304.432 360.504 304.408 360.464L304.096 360.044C304.056 359.98 304.06 359.924 304.108 359.876L306.22 357.404C306.244 357.364 306.236 357.344 306.196 357.344H302.812C302.732 357.344 302.692 357.304 302.692 357.224V356.72C302.692 356.64 302.732 356.6 302.812 356.6H307.252C307.332 356.6 307.372 356.64 307.372 356.72V357.308C307.372 357.348 307.352 357.396 307.312 357.452L305.392 359.756C305.376 359.772 305.372 359.788 305.38 359.804C305.388 359.812 305.404 359.816 305.428 359.816C306.284 359.872 306.868 360.276 307.18 361.028ZM311.567 365.12C310.799 365.12 310.187 364.9 309.731 364.46C309.275 364.02 309.047 363.432 309.047 362.696V358.904C309.047 358.168 309.275 357.584 309.731 357.152C310.187 356.712 310.799 356.492 311.567 356.492C312.343 356.492 312.963 356.712 313.427 357.152C313.891 357.592 314.123 358.176 314.123 358.904V362.696C314.123 363.432 313.891 364.02 313.427 364.46C312.963 364.9 312.343 365.12 311.567 365.12ZM311.567 364.376C312.079 364.376 312.491 364.228 312.803 363.932C313.115 363.636 313.271 363.24 313.271 362.744V358.868C313.271 358.38 313.115 357.988 312.803 357.692C312.499 357.396 312.087 357.248 311.567 357.248C311.063 357.248 310.659 357.396 310.355 357.692C310.051 357.988 309.899 358.38 309.899 358.868V362.744C309.899 363.24 310.051 363.636 310.355 363.932C310.659 364.228 311.063 364.376 311.567 364.376Z" fill="black"/>
<line x1="357.5" y1="349" x2="357.5" y2="49" stroke="#666666" stroke-dasharray="4"/>
<path d="M357.063 361.916C357.143 361.916 357.183 361.956 357.183 362.036V362.564C357.183 362.644 357.143 362.684 357.063 362.684H356.547C356.515 362.684 356.499 362.7 356.499 362.732V364.88C356.499 364.96 356.459 365 356.379 365H355.767C355.687 365 355.647 364.96 355.647 364.88V362.732C355.647 362.7 355.631 362.684 355.599 362.684H352.011C351.931 362.684 351.891 362.644 351.891 362.564V362.12C351.891 362.08 351.903 362.032 351.927 361.976L354.387 356.684C354.411 356.628 354.455 356.6 354.519 356.6H355.155C355.195 356.6 355.223 356.616 355.239 356.648C355.263 356.672 355.267 356.704 355.251 356.744L352.863 361.856C352.855 361.872 352.855 361.888 352.863 361.904C352.871 361.912 352.883 361.916 352.899 361.916H355.599C355.631 361.916 355.647 361.9 355.647 361.868V359.936C355.647 359.856 355.687 359.816 355.767 359.816H356.379C356.459 359.816 356.499 359.856 356.499 359.936V361.868C356.499 361.9 356.515 361.916 356.547 361.916H357.063ZM361.284 365.12C360.516 365.12 359.904 364.9 359.448 364.46C358.992 364.02 358.764 363.432 358.764 362.696V358.904C358.764 358.168 358.992 357.584 359.448 357.152C359.904 356.712 360.516 356.492 361.284 356.492C362.06 356.492 362.68 356.712 363.144 357.152C363.608 357.592 363.84 358.176 363.84 358.904V362.696C363.84 363.432 363.608 364.02 363.144 364.46C362.68 364.9 362.06 365.12 361.284 365.12ZM361.284 364.376C361.796 364.376 362.208 364.228 362.52 363.932C362.832 363.636 362.988 363.24 362.988 362.744V358.868C362.988 358.38 362.832 357.988 362.52 357.692C362.216 357.396 361.804 357.248 361.284 357.248C360.78 357.248 360.376 357.396 360.072 357.692C359.768 357.988 359.616 358.38 359.616 358.868V362.744C359.616 363.24 359.768 363.636 360.072 363.932C360.376 364.228 360.78 364.376 361.284 364.376Z" fill="black"/>
<line x1="407.5" y1="349" x2="407.5" y2="49" stroke="#666666" stroke-dasharray="4"/>
<path d="M407.485 361.328C407.557 361.68 407.593 362.04 407.593 362.408C407.593 362.8 407.557 363.136 407.485 363.416C407.349 363.928 407.077 364.336 406.669 364.64C406.261 364.936 405.769 365.084 405.193 365.084C404.625 365.084 404.141 364.94 403.741 364.652C403.341 364.364 403.069 363.98 402.925 363.5C402.869 363.324 402.833 363.148 402.817 362.972V362.948C402.817 362.884 402.853 362.852 402.925 362.852H403.561C403.641 362.852 403.685 362.892 403.693 362.972C403.693 363.02 403.709 363.1 403.741 363.212C403.821 363.556 403.985 363.832 404.233 364.04C404.489 364.24 404.805 364.34 405.181 364.34C405.565 364.34 405.885 364.232 406.141 364.016C406.405 363.8 406.577 363.504 406.657 363.128C406.705 362.944 406.729 362.704 406.729 362.408C406.729 362.136 406.709 361.876 406.669 361.628C406.613 361.26 406.453 360.98 406.189 360.788C405.925 360.596 405.597 360.5 405.205 360.5C404.853 360.5 404.537 360.58 404.257 360.74C403.977 360.9 403.797 361.112 403.717 361.376C403.693 361.448 403.649 361.484 403.585 361.484H402.937C402.857 361.484 402.817 361.444 402.817 361.364V356.72C402.817 356.64 402.857 356.6 402.937 356.6H407.137C407.217 356.6 407.257 356.64 407.257 356.72V357.224C407.257 357.304 407.217 357.344 407.137 357.344H403.717C403.685 357.344 403.669 357.36 403.669 357.392L403.657 360.296C403.657 360.312 403.661 360.324 403.669 360.332C403.685 360.34 403.701 360.336 403.717 360.32C403.917 360.136 404.153 359.996 404.425 359.9C404.697 359.796 404.985 359.744 405.289 359.744C405.857 359.744 406.337 359.884 406.729 360.164C407.121 360.436 407.373 360.824 407.485 361.328ZM411.561 365.12C410.793 365.12 410.181 364.9 409.725 364.46C409.269 364.02 409.041 363.432 409.041 362.696V358.904C409.041 358.168 409.269 357.584 409.725 357.152C410.181 356.712 410.793 356.492 411.561 356.492C412.337 356.492 412.957 356.712 413.421 357.152C413.885 357.592 414.117 358.176 414.117 358.904V362.696C414.117 363.432 413.885 364.02 413.421 364.46C412.957 364.9 412.337 365.12 411.561 365.12ZM411.561 364.376C412.073 364.376 412.485 364.228 412.797 363.932C413.109 363.636 413.265 363.24 413.265 362.744V358.868C413.265 358.38 413.109 357.988 412.797 357.692C412.493 357.396 412.081 357.248 411.561 357.248C411.057 357.248 410.653 357.396 410.349 357.692C410.045 357.988 409.893 358.38 409.893 358.868V362.744C409.893 363.24 410.045 363.636 410.349 363.932C410.653 364.228 411.057 364.376 411.561 364.376Z" fill="black"/>
<line x1="457.5" y1="349" x2="457.5" y2="49" stroke="#666666" stroke-dasharray="4"/>
<path d="M457.348 361.052C457.516 361.412 457.6 361.868 457.6 362.42C457.6 362.916 457.536 363.316 457.408 363.62C457.24 364.084 456.972 364.444 456.604 364.7C456.236 364.956 455.776 365.084 455.224 365.084C454.648 365.084 454.164 364.948 453.772 364.676C453.38 364.404 453.104 364.02 452.944 363.524C452.848 363.204 452.8 362.828 452.8 362.396V358.652C452.8 357.996 453.016 357.476 453.448 357.092C453.88 356.7 454.444 356.504 455.14 356.504C455.82 356.504 456.368 356.692 456.784 357.068C457.2 357.444 457.408 357.94 457.408 358.556V358.724C457.408 358.804 457.368 358.844 457.288 358.844H456.676C456.596 358.844 456.556 358.804 456.556 358.724V358.628C456.556 358.22 456.424 357.888 456.16 357.632C455.896 357.376 455.556 357.248 455.14 357.248C454.708 357.248 454.352 357.384 454.072 357.656C453.792 357.92 453.652 358.272 453.652 358.712V360.476C453.652 360.492 453.66 360.504 453.676 360.512C453.692 360.512 453.704 360.504 453.712 360.488C454.064 360.008 454.596 359.768 455.308 359.768C455.812 359.768 456.232 359.88 456.568 360.104C456.912 360.328 457.172 360.644 457.348 361.052ZM456.604 363.332C456.7 363.084 456.748 362.78 456.748 362.42C456.748 362.004 456.692 361.684 456.58 361.46C456.484 361.164 456.316 360.932 456.076 360.764C455.836 360.596 455.54 360.512 455.188 360.512C454.836 360.512 454.54 360.6 454.3 360.776C454.06 360.944 453.892 361.18 453.796 361.484C453.7 361.732 453.652 362.056 453.652 362.456C453.652 362.808 453.692 363.1 453.772 363.332C453.868 363.636 454.036 363.88 454.276 364.064C454.524 364.248 454.832 364.34 455.2 364.34C455.544 364.34 455.84 364.256 456.088 364.088C456.336 363.912 456.508 363.66 456.604 363.332ZM461.567 365.12C460.799 365.12 460.187 364.9 459.731 364.46C459.275 364.02 459.047 363.432 459.047 362.696V358.904C459.047 358.168 459.275 357.584 459.731 357.152C460.187 356.712 460.799 356.492 461.567 356.492C462.343 356.492 462.963 356.712 463.427 357.152C463.891 357.592 464.123 358.176 464.123 358.904V362.696C464.123 363.432 463.891 364.02 463.427 364.46C462.963 364.9 462.343 365.12 461.567 365.12ZM461.567 364.376C462.079 364.376 462.491 364.228 462.803 363.932C463.115 363.636 463.271 363.24 463.271 362.744V358.868C463.271 358.38 463.115 357.988 462.803 357.692C462.499 357.396 462.087 357.248 461.567 357.248C461.063 357.248 460.659 357.396 460.355 357.692C460.051 357.988 459.899 358.38 459.899 358.868V362.744C459.899 363.24 460.051 363.636 460.355 363.932C460.659 364.228 461.063 364.376 461.567 364.376Z" fill="black"/>
<line x1="507.5" y1="349" x2="507.5" y2="49" stroke="#666666" stroke-dasharray="4"/>
<path d="M504.083 365C504.043 365 504.011 364.988 503.987 364.964C503.971 364.932 503.971 364.896 503.987 364.856L506.759 357.404C506.767 357.388 506.767 357.376 506.759 357.368C506.751 357.352 506.739 357.344 506.723 357.344H503.483C503.451 357.344 503.435 357.36 503.435 357.392V357.944C503.435 358.024 503.395 358.064 503.315 358.064H502.823C502.743 358.064 502.703 358.024 502.703 357.944L502.715 356.72C502.715 356.64 502.755 356.6 502.835 356.6H507.563C507.643 356.6 507.683 356.64 507.683 356.72V357.272C507.683 357.304 507.675 357.352 507.659 357.416L504.899 364.904C504.875 364.968 504.827 365 504.755 365H504.083ZM511.315 365.12C510.547 365.12 509.935 364.9 509.479 364.46C509.023 364.02 508.795 363.432 508.795 362.696V358.904C508.795 358.168 509.023 357.584 509.479 357.152C509.935 356.712 510.547 356.492 511.315 356.492C512.091 356.492 512.711 356.712 513.175 357.152C513.639 357.592 513.871 358.176 513.871 358.904V362.696C513.871 363.432 513.639 364.02 513.175 364.46C512.711 364.9 512.091 365.12 511.315 365.12ZM511.315 364.376C511.827 364.376 512.239 364.228 512.551 363.932C512.863 363.636 513.019 363.24 513.019 362.744V358.868C513.019 358.38 512.863 357.988 512.551 357.692C512.247 357.396 511.835 357.248 511.315 357.248C510.811 357.248 510.407 357.396 510.103 357.692C509.799 357.988 509.647 358.38 509.647 358.868V362.744C509.647 363.24 509.799 363.636 510.103 363.932C510.407 364.228 510.811 364.376 511.315 364.376Z" fill="black"/>
<line x1="557.5" y1="349" x2="557.5" y2="49" stroke="#666666" stroke-dasharray="4"/>
<path d="M556.771 361.472C556.923 361.8 556.999 362.192 556.999 362.648C556.999 363.2 556.883 363.668 556.651 364.052C556.459 364.38 556.187 364.636 555.835 364.82C555.483 365.004 555.075 365.096 554.611 365.096C554.131 365.096 553.711 365.004 553.351 364.82C552.991 364.628 552.715 364.352 552.523 363.992C552.299 363.592 552.187 363.14 552.187 362.636C552.187 362.212 552.271 361.812 552.439 361.436C552.623 361.036 552.915 360.736 553.315 360.536C553.355 360.52 553.355 360.5 553.315 360.476C553.051 360.324 552.835 360.12 552.667 359.864C552.427 359.52 552.307 359.128 552.307 358.688C552.307 358.24 552.427 357.832 552.667 357.464C552.859 357.152 553.123 356.912 553.459 356.744C553.803 356.568 554.187 356.48 554.611 356.48C555.051 356.48 555.435 356.568 555.763 356.744C556.091 356.912 556.351 357.152 556.543 357.464C556.775 357.84 556.891 358.248 556.891 358.688C556.891 359.128 556.771 359.528 556.531 359.888C556.387 360.104 556.175 360.3 555.895 360.476C555.855 360.5 555.855 360.52 555.895 360.536C556.303 360.736 556.595 361.048 556.771 361.472ZM553.339 357.98C553.211 358.22 553.147 358.456 553.147 358.688C553.147 359.024 553.231 359.316 553.399 359.564C553.527 359.764 553.691 359.916 553.891 360.02C554.099 360.124 554.335 360.176 554.599 360.176C554.863 360.176 555.099 360.124 555.307 360.02C555.515 359.908 555.683 359.752 555.811 359.552C555.963 359.336 556.039 359.044 556.039 358.676C556.039 358.412 555.979 358.172 555.859 357.956C555.739 357.732 555.571 357.556 555.355 357.428C555.139 357.292 554.883 357.224 554.587 357.224C554.307 357.224 554.059 357.292 553.843 357.428C553.627 357.564 553.459 357.748 553.339 357.98ZM555.847 363.728C556.047 363.424 556.147 363.044 556.147 362.588C556.147 362.212 556.083 361.888 555.955 361.616C555.715 361.088 555.263 360.824 554.599 360.824C553.967 360.824 553.527 361.072 553.279 361.568C553.135 361.824 553.063 362.168 553.063 362.6C553.063 363.048 553.151 363.412 553.327 363.692C553.599 364.132 554.027 364.352 554.611 364.352C555.179 364.352 555.591 364.144 555.847 363.728ZM561.108 365.12C560.34 365.12 559.728 364.9 559.272 364.46C558.816 364.02 558.588 363.432 558.588 362.696V358.904C558.588 358.168 558.816 357.584 559.272 357.152C559.728 356.712 560.34 356.492 561.108 356.492C561.884 356.492 562.504 356.712 562.968 357.152C563.432 357.592 563.664 358.176 563.664 358.904V362.696C563.664 363.432 563.432 364.02 562.968 364.46C562.504 364.9 561.884 365.12 561.108 365.12ZM561.108 364.376C561.62 364.376 562.032 364.228 562.344 363.932C562.656 363.636 562.812 363.24 562.812 362.744V358.868C562.812 358.38 562.656 357.988 562.344 357.692C562.04 357.396 561.628 357.248 561.108 357.248C560.604 357.248 560.2 357.396 559.896 357.692C559.592 357.988 559.44 358.38 559.44 358.868V362.744C559.44 363.24 559.592 363.636 559.896 363.932C560.2 364.228 560.604 364.376 561.108 364.376Z" fill="black"/>
<line x1="607.5" y1="349" x2="607.5" y2="49" stroke="#666666" stroke-dasharray="4"/>
<path d="M606.807 358.076C606.903 358.396 606.951 358.772 606.951 359.204V362.948C606.951 363.604 606.735 364.128 606.303 364.52C605.871 364.904 605.307 365.096 604.611 365.096C603.939 365.096 603.391 364.908 602.967 364.532C602.551 364.148 602.343 363.652 602.343 363.044V362.876C602.343 362.796 602.383 362.756 602.463 362.756H603.075C603.155 362.756 603.195 362.796 603.195 362.876V362.972C603.195 363.38 603.327 363.712 603.591 363.968C603.855 364.224 604.195 364.352 604.611 364.352C605.043 364.352 605.399 364.22 605.679 363.956C605.959 363.684 606.099 363.328 606.099 362.888V361.136C606.099 361.12 606.091 361.112 606.075 361.112C606.059 361.104 606.047 361.108 606.039 361.124C605.687 361.596 605.159 361.832 604.455 361.832C603.951 361.832 603.527 361.72 603.183 361.496C602.847 361.272 602.591 360.956 602.415 360.548C602.247 360.212 602.163 359.756 602.163 359.18C602.163 358.692 602.223 358.292 602.343 357.98C602.511 357.516 602.779 357.156 603.147 356.9C603.523 356.644 603.983 356.516 604.527 356.516C605.103 356.516 605.587 356.656 605.979 356.936C606.379 357.208 606.655 357.588 606.807 358.076ZM604.563 361.088C604.915 361.088 605.211 361.004 605.451 360.836C605.699 360.66 605.871 360.42 605.967 360.116C606.055 359.884 606.099 359.56 606.099 359.144C606.099 358.8 606.063 358.508 605.991 358.268C605.895 357.964 605.723 357.72 605.475 357.536C605.227 357.352 604.923 357.26 604.563 357.26C604.219 357.26 603.923 357.348 603.675 357.524C603.427 357.692 603.251 357.94 603.147 358.268C603.059 358.492 603.015 358.796 603.015 359.18C603.015 359.588 603.067 359.908 603.171 360.14C603.267 360.428 603.435 360.66 603.675 360.836C603.915 361.004 604.211 361.088 604.563 361.088ZM611.108 365.12C610.34 365.12 609.728 364.9 609.272 364.46C608.816 364.02 608.588 363.432 608.588 362.696V358.904C608.588 358.168 608.816 357.584 609.272 357.152C609.728 356.712 610.34 356.492 611.108 356.492C611.884 356.492 612.504 356.712 612.968 357.152C613.432 357.592 613.664 358.176 613.664 358.904V362.696C613.664 363.432 613.432 364.02 612.968 364.46C612.504 364.9 611.884 365.12 611.108 365.12ZM611.108 364.376C611.62 364.376 612.032 364.228 612.344 363.932C612.656 363.636 612.812 363.24 612.812 362.744V358.868C612.812 358.38 612.656 357.988 612.344 357.692C612.04 357.396 611.628 357.248 611.108 357.248C610.604 357.248 610.2 357.396 609.896 357.692C609.592 357.988 609.44 358.38 609.44 358.868V362.744C609.44 363.24 609.592 363.636 609.896 363.932C610.2 364.228 610.604 364.376 611.108 364.376Z" fill="black"/>
<line x1="657.5" y1="349" x2="657.5" y2="49" stroke="#666666" stroke-dasharray="4"/>
<path d="M651.277 356.636C651.325 356.612 651.377 356.6 651.433 356.6H652.081C652.161 356.6 652.201 356.64 652.201 356.72V364.88C652.201 364.96 652.161 365 652.081 365H651.469C651.389 365 651.349 364.96 651.349 364.88V357.572C651.349 357.556 651.341 357.544 651.325 357.536C651.317 357.528 651.305 357.528 651.289 357.536L650.017 358.052L649.969 358.064C649.921 358.064 649.889 358.032 649.873 357.968L649.813 357.512V357.488C649.813 357.448 649.841 357.408 649.897 357.368L651.277 356.636ZM656.685 365.12C655.917 365.12 655.305 364.9 654.849 364.46C654.393 364.02 654.165 363.432 654.165 362.696V358.904C654.165 358.168 654.393 357.584 654.849 357.152C655.305 356.712 655.917 356.492 656.685 356.492C657.461 356.492 658.081 356.712 658.545 357.152C659.009 357.592 659.241 358.176 659.241 358.904V362.696C659.241 363.432 659.009 364.02 658.545 364.46C658.081 364.9 657.461 365.12 656.685 365.12ZM656.685 364.376C657.197 364.376 657.609 364.228 657.921 363.932C658.233 363.636 658.389 363.24 658.389 362.744V358.868C658.389 358.38 658.233 357.988 657.921 357.692C657.617 357.396 657.205 357.248 656.685 357.248C656.181 357.248 655.777 357.396 655.473 357.692C655.169 357.988 655.017 358.38 655.017 358.868V362.744C655.017 363.24 655.169 363.636 655.473 363.932C655.777 364.228 656.181 364.376 656.685 364.376ZM663.47 365.12C662.702 365.12 662.09 364.9 661.634 364.46C661.178 364.02 660.95 363.432 660.95 362.696V358.904C660.95 358.168 661.178 357.584 661.634 357.152C662.09 356.712 662.702 356.492 663.47 356.492C664.246 356.492 664.866 356.712 665.33 357.152C665.794 357.592 666.026 358.176 666.026 358.904V362.696C666.026 363.432 665.794 364.02 665.33 364.46C664.866 364.9 664.246 365.12 663.47 365.12ZM663.47 364.376C663.982 364.376 664.394 364.228 664.706 363.932C665.018 363.636 665.174 363.24 665.174 362.744V358.868C665.174 358.38 665.018 357.988 664.706 357.692C664.402 357.396 663.99 357.248 663.47 357.248C662.966 357.248 662.562 357.396 662.258 357.692C661.954 357.988 661.802 358.38 661.802 358.868V362.744C661.802 363.24 661.954 363.636 662.258 363.932C662.562 364.228 662.966 364.376 663.47 364.376Z" fill="black"/>
<line x1="158" y1="348.5" x2="658" y2="348.5" stroke="#666666" stroke-dasharray="4"/>
<path d="M146.587 351.12C145.819 351.12 145.207 350.9 144.751 350.46C144.295 350.02 144.067 349.432 144.067 348.696V344.904C144.067 344.168 144.295 343.584 144.751 343.152C145.207 342.712 145.819 342.492 146.587 342.492C147.363 342.492 147.983 342.712 148.447 343.152C148.911 343.592 149.143 344.176 149.143 344.904V348.696C149.143 349.432 148.911 350.02 148.447 350.46C147.983 350.9 147.363 351.12 146.587 351.12ZM146.587 350.376C147.099 350.376 147.511 350.228 147.823 349.932C148.135 349.636 148.291 349.24 148.291 348.744V344.868C148.291 344.38 148.135 343.988 147.823 343.692C147.519 343.396 147.107 343.248 146.587 343.248C146.083 343.248 145.679 343.396 145.375 343.692C145.071 343.988 144.919 344.38 144.919 344.868V348.744C144.919 349.24 145.071 349.636 145.375 349.932C145.679 350.228 146.083 350.376 146.587 350.376Z" fill="black"/>
<line x1="158" y1="318.5" x2="658" y2="318.5" stroke="#666666" stroke-dasharray="4"/>
<path d="M141.18 312.636C141.228 312.612 141.28 312.6 141.336 312.6H141.984C142.064 312.6 142.104 312.64 142.104 312.72V320.88C142.104 320.96 142.064 321 141.984 321H141.372C141.292 321 141.252 320.96 141.252 320.88V313.572C141.252 313.556 141.244 313.544 141.228 313.536C141.22 313.528 141.208 313.528 141.192 313.536L139.92 314.052L139.872 314.064C139.824 314.064 139.792 314.032 139.776 313.968L139.716 313.512V313.488C139.716 313.448 139.744 313.408 139.8 313.368L141.18 312.636ZM146.587 321.12C145.819 321.12 145.207 320.9 144.751 320.46C144.295 320.02 144.067 319.432 144.067 318.696V314.904C144.067 314.168 144.295 313.584 144.751 313.152C145.207 312.712 145.819 312.492 146.587 312.492C147.363 312.492 147.983 312.712 148.447 313.152C148.911 313.592 149.143 314.176 149.143 314.904V318.696C149.143 319.432 148.911 320.02 148.447 320.46C147.983 320.9 147.363 321.12 146.587 321.12ZM146.587 320.376C147.099 320.376 147.511 320.228 147.823 319.932C148.135 319.636 148.291 319.24 148.291 318.744V314.868C148.291 314.38 148.135 313.988 147.823 313.692C147.519 313.396 147.107 313.248 146.587 313.248C146.083 313.248 145.679 313.396 145.375 313.692C145.071 313.988 144.919 314.38 144.919 314.868V318.744C144.919 319.24 145.071 319.636 145.375 319.932C145.679 320.228 146.083 320.376 146.587 320.376Z" fill="black"/>
<line x1="158" y1="288.5" x2="658" y2="288.5" stroke="#666666" stroke-dasharray="4"/>
<path d="M138.605 290.196C138.581 290.236 138.589 290.256 138.629 290.256H142.397C142.477 290.256 142.517 290.296 142.517 290.376V290.88C142.517 290.96 142.477 291 142.397 291H137.609C137.529 291 137.489 290.96 137.489 290.88V290.376C137.489 290.32 137.509 290.272 137.549 290.232C137.821 289.912 138.433 289.16 139.385 287.976L140.273 286.872C141.025 285.92 141.401 285.18 141.401 284.652C141.401 284.228 141.257 283.888 140.969 283.632C140.681 283.376 140.305 283.248 139.841 283.248C139.385 283.248 139.017 283.38 138.737 283.644C138.457 283.9 138.321 284.24 138.329 284.664V285.036C138.329 285.116 138.289 285.156 138.209 285.156H137.585C137.505 285.156 137.465 285.116 137.465 285.036V284.556C137.481 283.94 137.709 283.444 138.149 283.068C138.597 282.692 139.161 282.504 139.841 282.504C140.321 282.504 140.745 282.596 141.113 282.78C141.481 282.964 141.765 283.22 141.965 283.548C142.165 283.868 142.265 284.232 142.265 284.64C142.265 285.32 141.889 286.14 141.137 287.1C140.745 287.604 139.989 288.532 138.869 289.884L138.605 290.196ZM146.587 291.12C145.819 291.12 145.207 290.9 144.751 290.46C144.295 290.02 144.067 289.432 144.067 288.696V284.904C144.067 284.168 144.295 283.584 144.751 283.152C145.207 282.712 145.819 282.492 146.587 282.492C147.363 282.492 147.983 282.712 148.447 283.152C148.911 283.592 149.143 284.176 149.143 284.904V288.696C149.143 289.432 148.911 290.02 148.447 290.46C147.983 290.9 147.363 291.12 146.587 291.12ZM146.587 290.376C147.099 290.376 147.511 290.228 147.823 289.932C148.135 289.636 148.291 289.24 148.291 288.744V284.868C148.291 284.38 148.135 283.988 147.823 283.692C147.519 283.396 147.107 283.248 146.587 283.248C146.083 283.248 145.679 283.396 145.375 283.692C145.071 283.988 144.919 284.38 144.919 284.868V288.744C144.919 289.24 145.071 289.636 145.375 289.932C145.679 290.228 146.083 290.376 146.587 290.376Z" fill="black"/>
<line x1="158" y1="258.5" x2="658" y2="258.5" stroke="#666666" stroke-dasharray="4"/>
<path d="M142.199 257.028C142.359 257.42 142.439 257.888 142.439 258.432C142.439 258.872 142.379 259.26 142.259 259.596C142.099 260.076 141.827 260.448 141.443 260.712C141.067 260.968 140.599 261.096 140.039 261.096C139.479 261.096 138.999 260.952 138.599 260.664C138.199 260.368 137.923 259.972 137.771 259.476C137.699 259.252 137.655 258.948 137.639 258.564C137.639 258.484 137.679 258.444 137.759 258.444H138.371C138.451 258.444 138.491 258.484 138.491 258.564C138.507 258.796 138.535 259.012 138.575 259.212C138.663 259.564 138.831 259.844 139.079 260.052C139.335 260.252 139.651 260.352 140.027 260.352C140.747 260.352 141.215 260.032 141.431 259.392C141.527 259.128 141.575 258.8 141.575 258.408C141.575 257.928 141.511 257.536 141.383 257.232C141.127 256.656 140.675 256.368 140.027 256.368C139.907 256.368 139.759 256.412 139.583 256.5C139.551 256.516 139.527 256.524 139.511 256.524C139.479 256.524 139.451 256.504 139.427 256.464L139.115 256.044C139.075 255.98 139.079 255.924 139.127 255.876L141.239 253.404C141.263 253.364 141.255 253.344 141.215 253.344H137.831C137.751 253.344 137.711 253.304 137.711 253.224V252.72C137.711 252.64 137.751 252.6 137.831 252.6H142.271C142.351 252.6 142.391 252.64 142.391 252.72V253.308C142.391 253.348 142.371 253.396 142.331 253.452L140.411 255.756C140.395 255.772 140.391 255.788 140.399 255.804C140.407 255.812 140.423 255.816 140.447 255.816C141.303 255.872 141.887 256.276 142.199 257.028ZM146.587 261.12C145.819 261.12 145.207 260.9 144.751 260.46C144.295 260.02 144.067 259.432 144.067 258.696V254.904C144.067 254.168 144.295 253.584 144.751 253.152C145.207 252.712 145.819 252.492 146.587 252.492C147.363 252.492 147.983 252.712 148.447 253.152C148.911 253.592 149.143 254.176 149.143 254.904V258.696C149.143 259.432 148.911 260.02 148.447 260.46C147.983 260.9 147.363 261.12 146.587 261.12ZM146.587 260.376C147.099 260.376 147.511 260.228 147.823 259.932C148.135 259.636 148.291 259.24 148.291 258.744V254.868C148.291 254.38 148.135 253.988 147.823 253.692C147.519 253.396 147.107 253.248 146.587 253.248C146.083 253.248 145.679 253.396 145.375 253.692C145.071 253.988 144.919 254.38 144.919 254.868V258.744C144.919 259.24 145.071 259.636 145.375 259.932C145.679 260.228 146.083 260.376 146.587 260.376Z" fill="black"/>
<line x1="158" y1="228.5" x2="658" y2="228.5" stroke="#666666" stroke-dasharray="4"/>
<path d="M142.365 227.916C142.445 227.916 142.485 227.956 142.485 228.036V228.564C142.485 228.644 142.445 228.684 142.365 228.684H141.849C141.817 228.684 141.801 228.7 141.801 228.732V230.88C141.801 230.96 141.761 231 141.681 231H141.069C140.989 231 140.949 230.96 140.949 230.88V228.732C140.949 228.7 140.933 228.684 140.901 228.684H137.313C137.233 228.684 137.193 228.644 137.193 228.564V228.12C137.193 228.08 137.205 228.032 137.229 227.976L139.689 222.684C139.713 222.628 139.757 222.6 139.821 222.6H140.457C140.497 222.6 140.525 222.616 140.541 222.648C140.565 222.672 140.569 222.704 140.553 222.744L138.165 227.856C138.157 227.872 138.157 227.888 138.165 227.904C138.173 227.912 138.185 227.916 138.201 227.916H140.901C140.933 227.916 140.949 227.9 140.949 227.868V225.936C140.949 225.856 140.989 225.816 141.069 225.816H141.681C141.761 225.816 141.801 225.856 141.801 225.936V227.868C141.801 227.9 141.817 227.916 141.849 227.916H142.365ZM146.587 231.12C145.819 231.12 145.207 230.9 144.751 230.46C144.295 230.02 144.067 229.432 144.067 228.696V224.904C144.067 224.168 144.295 223.584 144.751 223.152C145.207 222.712 145.819 222.492 146.587 222.492C147.363 222.492 147.983 222.712 148.447 223.152C148.911 223.592 149.143 224.176 149.143 224.904V228.696C149.143 229.432 148.911 230.02 148.447 230.46C147.983 230.9 147.363 231.12 146.587 231.12ZM146.587 230.376C147.099 230.376 147.511 230.228 147.823 229.932C148.135 229.636 148.291 229.24 148.291 228.744V224.868C148.291 224.38 148.135 223.988 147.823 223.692C147.519 223.396 147.107 223.248 146.587 223.248C146.083 223.248 145.679 223.396 145.375 223.692C145.071 223.988 144.919 224.38 144.919 224.868V228.744C144.919 229.24 145.071 229.636 145.375 229.932C145.679 230.228 146.083 230.376 146.587 230.376Z" fill="black"/>
<line x1="158" y1="198.5" x2="658" y2="198.5" stroke="#666666" stroke-dasharray="4"/>
<path d="M142.511 197.328C142.583 197.68 142.619 198.04 142.619 198.408C142.619 198.8 142.583 199.136 142.511 199.416C142.375 199.928 142.103 200.336 141.695 200.64C141.287 200.936 140.795 201.084 140.219 201.084C139.651 201.084 139.167 200.94 138.767 200.652C138.367 200.364 138.095 199.98 137.951 199.5C137.895 199.324 137.859 199.148 137.843 198.972V198.948C137.843 198.884 137.879 198.852 137.951 198.852H138.587C138.667 198.852 138.711 198.892 138.719 198.972C138.719 199.02 138.735 199.1 138.767 199.212C138.847 199.556 139.011 199.832 139.259 200.04C139.515 200.24 139.831 200.34 140.207 200.34C140.591 200.34 140.911 200.232 141.167 200.016C141.431 199.8 141.603 199.504 141.683 199.128C141.731 198.944 141.755 198.704 141.755 198.408C141.755 198.136 141.735 197.876 141.695 197.628C141.639 197.26 141.479 196.98 141.215 196.788C140.951 196.596 140.623 196.5 140.231 196.5C139.879 196.5 139.563 196.58 139.283 196.74C139.003 196.9 138.823 197.112 138.743 197.376C138.719 197.448 138.675 197.484 138.611 197.484H137.963C137.883 197.484 137.843 197.444 137.843 197.364V192.72C137.843 192.64 137.883 192.6 137.963 192.6H142.163C142.243 192.6 142.283 192.64 142.283 192.72V193.224C142.283 193.304 142.243 193.344 142.163 193.344H138.743C138.711 193.344 138.695 193.36 138.695 193.392L138.683 196.296C138.683 196.312 138.687 196.324 138.695 196.332C138.711 196.34 138.727 196.336 138.743 196.32C138.943 196.136 139.179 195.996 139.451 195.9C139.723 195.796 140.011 195.744 140.315 195.744C140.883 195.744 141.363 195.884 141.755 196.164C142.147 196.436 142.399 196.824 142.511 197.328ZM146.587 201.12C145.819 201.12 145.207 200.9 144.751 200.46C144.295 200.02 144.067 199.432 144.067 198.696V194.904C144.067 194.168 144.295 193.584 144.751 193.152C145.207 192.712 145.819 192.492 146.587 192.492C147.363 192.492 147.983 192.712 148.447 193.152C148.911 193.592 149.143 194.176 149.143 194.904V198.696C149.143 199.432 148.911 200.02 148.447 200.46C147.983 200.9 147.363 201.12 146.587 201.12ZM146.587 200.376C147.099 200.376 147.511 200.228 147.823 199.932C148.135 199.636 148.291 199.24 148.291 198.744V194.868C148.291 194.38 148.135 193.988 147.823 193.692C147.519 193.396 147.107 193.248 146.587 193.248C146.083 193.248 145.679 193.396 145.375 193.692C145.071 193.988 144.919 194.38 144.919 194.868V198.744C144.919 199.24 145.071 199.636 145.375 199.932C145.679 200.228 146.083 200.376 146.587 200.376Z" fill="black"/>
<line x1="158" y1="168.5" x2="658" y2="168.5" stroke="#666666" stroke-dasharray="4"/>
<path d="M142.367 167.052C142.535 167.412 142.619 167.868 142.619 168.42C142.619 168.916 142.555 169.316 142.427 169.62C142.259 170.084 141.991 170.444 141.623 170.7C141.255 170.956 140.795 171.084 140.243 171.084C139.667 171.084 139.183 170.948 138.791 170.676C138.399 170.404 138.123 170.02 137.963 169.524C137.867 169.204 137.819 168.828 137.819 168.396V164.652C137.819 163.996 138.035 163.476 138.467 163.092C138.899 162.7 139.463 162.504 140.159 162.504C140.839 162.504 141.387 162.692 141.803 163.068C142.219 163.444 142.427 163.94 142.427 164.556V164.724C142.427 164.804 142.387 164.844 142.307 164.844H141.695C141.615 164.844 141.575 164.804 141.575 164.724V164.628C141.575 164.22 141.443 163.888 141.179 163.632C140.915 163.376 140.575 163.248 140.159 163.248C139.727 163.248 139.371 163.384 139.091 163.656C138.811 163.92 138.671 164.272 138.671 164.712V166.476C138.671 166.492 138.679 166.504 138.695 166.512C138.711 166.512 138.723 166.504 138.731 166.488C139.083 166.008 139.615 165.768 140.327 165.768C140.831 165.768 141.251 165.88 141.587 166.104C141.931 166.328 142.191 166.644 142.367 167.052ZM141.623 169.332C141.719 169.084 141.767 168.78 141.767 168.42C141.767 168.004 141.711 167.684 141.599 167.46C141.503 167.164 141.335 166.932 141.095 166.764C140.855 166.596 140.559 166.512 140.207 166.512C139.855 166.512 139.559 166.6 139.319 166.776C139.079 166.944 138.911 167.18 138.815 167.484C138.719 167.732 138.671 168.056 138.671 168.456C138.671 168.808 138.711 169.1 138.791 169.332C138.887 169.636 139.055 169.88 139.295 170.064C139.543 170.248 139.851 170.34 140.219 170.34C140.563 170.34 140.859 170.256 141.107 170.088C141.355 169.912 141.527 169.66 141.623 169.332ZM146.587 171.12C145.819 171.12 145.207 170.9 144.751 170.46C144.295 170.02 144.067 169.432 144.067 168.696V164.904C144.067 164.168 144.295 163.584 144.751 163.152C145.207 162.712 145.819 162.492 146.587 162.492C147.363 162.492 147.983 162.712 148.447 163.152C148.911 163.592 149.143 164.176 149.143 164.904V168.696C149.143 169.432 148.911 170.02 148.447 170.46C147.983 170.9 147.363 171.12 146.587 171.12ZM146.587 170.376C147.099 170.376 147.511 170.228 147.823 169.932C148.135 169.636 148.291 169.24 148.291 168.744V164.868C148.291 164.38 148.135 163.988 147.823 163.692C147.519 163.396 147.107 163.248 146.587 163.248C146.083 163.248 145.679 163.396 145.375 163.692C145.071 163.988 144.919 164.38 144.919 164.868V168.744C144.919 169.24 145.071 169.636 145.375 169.932C145.679 170.228 146.083 170.376 146.587 170.376Z" fill="black"/>
<line x1="158" y1="138.5" x2="658" y2="138.5" stroke="#666666" stroke-dasharray="4"/>
<path d="M139.355 141C139.315 141 139.283 140.988 139.259 140.964C139.243 140.932 139.243 140.896 139.259 140.856L142.031 133.404C142.039 133.388 142.039 133.376 142.031 133.368C142.023 133.352 142.011 133.344 141.995 133.344H138.755C138.723 133.344 138.707 133.36 138.707 133.392V133.944C138.707 134.024 138.667 134.064 138.587 134.064H138.095C138.015 134.064 137.975 134.024 137.975 133.944L137.987 132.72C137.987 132.64 138.027 132.6 138.107 132.6H142.835C142.915 132.6 142.955 132.64 142.955 132.72V133.272C142.955 133.304 142.947 133.352 142.931 133.416L140.171 140.904C140.147 140.968 140.099 141 140.027 141H139.355ZM146.587 141.12C145.819 141.12 145.207 140.9 144.751 140.46C144.295 140.02 144.067 139.432 144.067 138.696V134.904C144.067 134.168 144.295 133.584 144.751 133.152C145.207 132.712 145.819 132.492 146.587 132.492C147.363 132.492 147.983 132.712 148.447 133.152C148.911 133.592 149.143 134.176 149.143 134.904V138.696C149.143 139.432 148.911 140.02 148.447 140.46C147.983 140.9 147.363 141.12 146.587 141.12ZM146.587 140.376C147.099 140.376 147.511 140.228 147.823 139.932C148.135 139.636 148.291 139.24 148.291 138.744V134.868C148.291 134.38 148.135 133.988 147.823 133.692C147.519 133.396 147.107 133.248 146.587 133.248C146.083 133.248 145.679 133.396 145.375 133.692C145.071 133.988 144.919 134.38 144.919 134.868V138.744C144.919 139.24 145.071 139.636 145.375 139.932C145.679 140.228 146.083 140.376 146.587 140.376Z" fill="black"/>
<line x1="158" y1="108.5" x2="658" y2="108.5" stroke="#666666" stroke-dasharray="4"/>
<path d="M142.249 107.472C142.401 107.8 142.477 108.192 142.477 108.648C142.477 109.2 142.361 109.668 142.129 110.052C141.937 110.38 141.665 110.636 141.313 110.82C140.961 111.004 140.553 111.096 140.089 111.096C139.609 111.096 139.189 111.004 138.829 110.82C138.469 110.628 138.193 110.352 138.001 109.992C137.777 109.592 137.665 109.14 137.665 108.636C137.665 108.212 137.749 107.812 137.917 107.436C138.101 107.036 138.393 106.736 138.793 106.536C138.833 106.52 138.833 106.5 138.793 106.476C138.529 106.324 138.313 106.12 138.145 105.864C137.905 105.52 137.785 105.128 137.785 104.688C137.785 104.24 137.905 103.832 138.145 103.464C138.337 103.152 138.601 102.912 138.937 102.744C139.281 102.568 139.665 102.48 140.089 102.48C140.529 102.48 140.913 102.568 141.241 102.744C141.569 102.912 141.829 103.152 142.021 103.464C142.253 103.84 142.369 104.248 142.369 104.688C142.369 105.128 142.249 105.528 142.009 105.888C141.865 106.104 141.653 106.3 141.373 106.476C141.333 106.5 141.333 106.52 141.373 106.536C141.781 106.736 142.073 107.048 142.249 107.472ZM138.817 103.98C138.689 104.22 138.625 104.456 138.625 104.688C138.625 105.024 138.709 105.316 138.877 105.564C139.005 105.764 139.169 105.916 139.369 106.02C139.577 106.124 139.813 106.176 140.077 106.176C140.341 106.176 140.577 106.124 140.785 106.02C140.993 105.908 141.161 105.752 141.289 105.552C141.441 105.336 141.517 105.044 141.517 104.676C141.517 104.412 141.457 104.172 141.337 103.956C141.217 103.732 141.049 103.556 140.833 103.428C140.617 103.292 140.361 103.224 140.065 103.224C139.785 103.224 139.537 103.292 139.321 103.428C139.105 103.564 138.937 103.748 138.817 103.98ZM141.325 109.728C141.525 109.424 141.625 109.044 141.625 108.588C141.625 108.212 141.561 107.888 141.433 107.616C141.193 107.088 140.741 106.824 140.077 106.824C139.445 106.824 139.005 107.072 138.757 107.568C138.613 107.824 138.541 108.168 138.541 108.6C138.541 109.048 138.629 109.412 138.805 109.692C139.077 110.132 139.505 110.352 140.089 110.352C140.657 110.352 141.069 110.144 141.325 109.728ZM146.587 111.12C145.819 111.12 145.207 110.9 144.751 110.46C144.295 110.02 144.067 109.432 144.067 108.696V104.904C144.067 104.168 144.295 103.584 144.751 103.152C145.207 102.712 145.819 102.492 146.587 102.492C147.363 102.492 147.983 102.712 148.447 103.152C148.911 103.592 149.143 104.176 149.143 104.904V108.696C149.143 109.432 148.911 110.02 148.447 110.46C147.983 110.9 147.363 111.12 146.587 111.12ZM146.587 110.376C147.099 110.376 147.511 110.228 147.823 109.932C148.135 109.636 148.291 109.24 148.291 108.744V104.868C148.291 104.38 148.135 103.988 147.823 103.692C147.519 103.396 147.107 103.248 146.587 103.248C146.083 103.248 145.679 103.396 145.375 103.692C145.071 103.988 144.919 104.38 144.919 104.868V108.744C144.919 109.24 145.071 109.636 145.375 109.932C145.679 110.228 146.083 110.376 146.587 110.376Z" fill="black"/>
<line x1="158" y1="78.5" x2="658" y2="78.5" stroke="#666666" stroke-dasharray="4"/>
<path d="M142.285 74.076C142.381 74.396 142.429 74.772 142.429 75.204V78.948C142.429 79.604 142.213 80.128 141.781 80.52C141.349 80.904 140.785 81.096 140.089 81.096C139.417 81.096 138.869 80.908 138.445 80.532C138.029 80.148 137.821 79.652 137.821 79.044V78.876C137.821 78.796 137.861 78.756 137.941 78.756H138.553C138.633 78.756 138.673 78.796 138.673 78.876V78.972C138.673 79.38 138.805 79.712 139.069 79.968C139.333 80.224 139.673 80.352 140.089 80.352C140.521 80.352 140.877 80.22 141.157 79.956C141.437 79.684 141.577 79.328 141.577 78.888V77.136C141.577 77.12 141.569 77.112 141.553 77.112C141.537 77.104 141.525 77.108 141.517 77.124C141.165 77.596 140.637 77.832 139.933 77.832C139.429 77.832 139.005 77.72 138.661 77.496C138.325 77.272 138.069 76.956 137.893 76.548C137.725 76.212 137.641 75.756 137.641 75.18C137.641 74.692 137.701 74.292 137.821 73.98C137.989 73.516 138.257 73.156 138.625 72.9C139.001 72.644 139.461 72.516 140.005 72.516C140.581 72.516 141.065 72.656 141.457 72.936C141.857 73.208 142.133 73.588 142.285 74.076ZM140.041 77.088C140.393 77.088 140.689 77.004 140.929 76.836C141.177 76.66 141.349 76.42 141.445 76.116C141.533 75.884 141.577 75.56 141.577 75.144C141.577 74.8 141.541 74.508 141.469 74.268C141.373 73.964 141.201 73.72 140.953 73.536C140.705 73.352 140.401 73.26 140.041 73.26C139.697 73.26 139.401 73.348 139.153 73.524C138.905 73.692 138.729 73.94 138.625 74.268C138.537 74.492 138.493 74.796 138.493 75.18C138.493 75.588 138.545 75.908 138.649 76.14C138.745 76.428 138.913 76.66 139.153 76.836C139.393 77.004 139.689 77.088 140.041 77.088ZM146.587 81.12C145.819 81.12 145.207 80.9 144.751 80.46C144.295 80.02 144.067 79.432 144.067 78.696V74.904C144.067 74.168 144.295 73.584 144.751 73.152C145.207 72.712 145.819 72.492 146.587 72.492C147.363 72.492 147.983 72.712 148.447 73.152C148.911 73.592 149.143 74.176 149.143 74.904V78.696C149.143 79.432 148.911 80.02 148.447 80.46C147.983 80.9 147.363 81.12 146.587 81.12ZM146.587 80.376C147.099 80.376 147.511 80.228 147.823 79.932C148.135 79.636 148.291 79.24 148.291 78.744V74.868C148.291 74.38 148.135 73.988 147.823 73.692C147.519 73.396 147.107 73.248 146.587 73.248C146.083 73.248 145.679 73.396 145.375 73.692C145.071 73.988 144.919 74.38 144.919 74.868V78.744C144.919 79.24 145.071 79.636 145.375 79.932C145.679 80.228 146.083 80.376 146.587 80.376Z" fill="black"/>
<line x1="158" y1="48.5" x2="658" y2="48.5" stroke="#666666" stroke-dasharray="4"/>
<path d="M134.394 42.636C134.442 42.612 134.494 42.6 134.55 42.6H135.198C135.278 42.6 135.318 42.64 135.318 42.72V50.88C135.318 50.96 135.278 51 135.198 51H134.586C134.506 51 134.466 50.96 134.466 50.88V43.572C134.466 43.556 134.458 43.544 134.442 43.536C134.434 43.528 134.422 43.528 134.406 43.536L133.134 44.052L133.086 44.064C133.038 44.064 133.006 44.032 132.99 43.968L132.93 43.512V43.488C132.93 43.448 132.958 43.408 133.014 43.368L134.394 42.636ZM139.802 51.12C139.034 51.12 138.422 50.9 137.966 50.46C137.51 50.02 137.282 49.432 137.282 48.696V44.904C137.282 44.168 137.51 43.584 137.966 43.152C138.422 42.712 139.034 42.492 139.802 42.492C140.578 42.492 141.198 42.712 141.662 43.152C142.126 43.592 142.358 44.176 142.358 44.904V48.696C142.358 49.432 142.126 50.02 141.662 50.46C141.198 50.9 140.578 51.12 139.802 51.12ZM139.802 50.376C140.314 50.376 140.726 50.228 141.038 49.932C141.35 49.636 141.506 49.24 141.506 48.744V44.868C141.506 44.38 141.35 43.988 141.038 43.692C140.734 43.396 140.322 43.248 139.802 43.248C139.298 43.248 138.894 43.396 138.59 43.692C138.286 43.988 138.134 44.38 138.134 44.868V48.744C138.134 49.24 138.286 49.636 138.59 49.932C138.894 50.228 139.298 50.376 139.802 50.376ZM146.587 51.12C145.819 51.12 145.207 50.9 144.751 50.46C144.295 50.02 144.067 49.432 144.067 48.696V44.904C144.067 44.168 144.295 43.584 144.751 43.152C145.207 42.712 145.819 42.492 146.587 42.492C147.363 42.492 147.983 42.712 148.447 43.152C148.911 43.592 149.143 44.176 149.143 44.904V48.696C149.143 49.432 148.911 50.02 148.447 50.46C147.983 50.9 147.363 51.12 146.587 51.12ZM146.587 50.376C147.099 50.376 147.511 50.228 147.823 49.932C148.135 49.636 148.291 49.24 148.291 48.744V44.868C148.291 44.38 148.135 43.988 147.823 43.692C147.519 43.396 147.107 43.248 146.587 43.248C146.083 43.248 145.679 43.396 145.375 43.692C145.071 43.988 144.919 44.38 144.919 44.868V48.744C144.919 49.24 145.071 49.636 145.375 49.932C145.679 50.228 146.083 50.376 146.587 50.376Z" fill="black"/>
<path d="M173 340L198 328C201 325 355 295 358 298C361 295 385 259 388 262C391 259 405 208 408 211C411 208 460 172 463 175C466 172 540 163 543 166C546 163 555 160 558 163C561 160 570 112 573 115C576 112 630 66.9999 633 69.9999M633 69.9999V69.9999Z" stroke="#0086FF" stroke-width="3" stroke-linecap="round" stroke-linejoin="round"/>
<path d="M158 334V328C161 325 190 310 193 313C196 310 320 139 323 142C326 139 330 133 333 136C336 133 380 121 383 124C386 121 395 115 398 118C401 115 455 70 458 73C461 70 540 64 543 67C546 64 575 58 578 61M578 61V61Z" stroke="#F33F3F" stroke-width="3" stroke-linecap="round" stroke-linejoin="round"/>
<path d="M158 337L178 313C181 310 240 307 243 310C246 307 280 256 283 259C286 256 305 169 308 172C311 169 380 157 383 160C386 157 435 100 438 103H508L553 97C556 94 620 55 623 58M623 58V58Z" stroke="#5FD55D" stroke-width="3" stroke-linecap="round" stroke-linejoin="round"/>
<path d="M178 328H188L198 313C201 310 240 289 243 292C246 289 255 250 258 253C261 250 275 229 278 232C281 229 410 220 413 223C416 220 430 190 433 193C436 190 435 169 438 172C441 169 490 100 493 103M493 103V103Z" stroke="#D98F4A" stroke-width="3" stroke-linecap="round" stroke-linejoin="round"/>
<path d="M168 322L238 277C241 274 270 253 273 256H373L403 223H438L498 184C501 181 500 115 503 118C506 115 545 85 548 88C551 85 580 61 583 64M583 64V64Z" stroke="#A9429B" stroke-width="3" stroke-linecap="round" stroke-linejoin="round"/>
<path d="M181.812 473C181.706 473 181.652 472.947 181.652 472.84V461.96C181.652 461.853 181.706 461.8 181.812 461.8H185.588C186.644 461.8 187.482 462.077 188.1 462.632C188.73 463.187 189.044 463.939 189.044 464.888V469.912C189.044 470.861 188.73 471.613 188.1 472.168C187.482 472.723 186.644 473 185.588 473H181.812ZM182.788 471.944C182.788 471.987 182.81 472.008 182.852 472.008H185.636C186.33 472.008 186.879 471.805 187.284 471.4C187.7 470.995 187.908 470.451 187.908 469.768V465.048C187.908 464.355 187.706 463.805 187.3 463.4C186.895 462.995 186.34 462.792 185.636 462.792H182.852C182.81 462.792 182.788 462.813 182.788 462.856V471.944ZM194.025 464.776C194.985 464.776 195.727 465.021 196.249 465.512C196.772 466.003 197.033 466.653 197.033 467.464V472.84C197.033 472.947 196.98 473 196.873 473H196.057C195.951 473 195.897 472.947 195.897 472.84V472.184C195.897 472.163 195.887 472.147 195.865 472.136C195.855 472.125 195.839 472.131 195.817 472.152C195.551 472.472 195.204 472.717 194.777 472.888C194.351 473.048 193.876 473.128 193.353 473.128C192.596 473.128 191.961 472.936 191.449 472.552C190.937 472.168 190.681 471.581 190.681 470.792C190.681 469.992 190.969 469.363 191.545 468.904C192.132 468.435 192.943 468.2 193.977 468.2H195.833C195.876 468.2 195.897 468.179 195.897 468.136V467.528C195.897 466.984 195.743 466.557 195.433 466.248C195.135 465.928 194.665 465.768 194.025 465.768C193.513 465.768 193.097 465.869 192.777 466.072C192.457 466.264 192.26 466.536 192.185 466.888C192.153 466.995 192.089 467.043 191.993 467.032L191.129 466.92C191.012 466.899 190.964 466.856 190.985 466.792C191.071 466.195 191.391 465.709 191.945 465.336C192.5 464.963 193.193 464.776 194.025 464.776ZM193.577 472.152C194.207 472.152 194.751 471.997 195.209 471.688C195.668 471.368 195.897 470.941 195.897 470.408V469.16C195.897 469.117 195.876 469.096 195.833 469.096H194.153C193.449 469.096 192.884 469.24 192.457 469.528C192.031 469.816 191.817 470.216 191.817 470.728C191.817 471.197 191.977 471.555 192.297 471.8C192.628 472.035 193.055 472.152 193.577 472.152ZM202.967 465.688C202.967 465.795 202.913 465.848 202.807 465.848H200.999C200.956 465.848 200.935 465.869 200.935 465.912V470.632C200.935 471.144 201.047 471.507 201.271 471.72C201.505 471.923 201.868 472.024 202.359 472.024H202.759C202.865 472.024 202.919 472.077 202.919 472.184V472.84C202.919 472.947 202.865 473 202.759 473C202.631 473.011 202.433 473.016 202.167 473.016C201.399 473.016 200.817 472.872 200.423 472.584C200.028 472.296 199.831 471.763 199.831 470.984V465.912C199.831 465.869 199.809 465.848 199.767 465.848H198.791C198.684 465.848 198.631 465.795 198.631 465.688V465.064C198.631 464.957 198.684 464.904 198.791 464.904H199.767C199.809 464.904 199.831 464.883 199.831 464.84V462.984C199.831 462.877 199.884 462.824 199.991 462.824H200.775C200.881 462.824 200.935 462.877 200.935 462.984V464.84C200.935 464.883 200.956 464.904 200.999 464.904H202.807C202.913 464.904 202.967 464.957 202.967 465.064V465.688ZM207.963 464.776C208.923 464.776 209.664 465.021 210.187 465.512C210.709 466.003 210.971 466.653 210.971 467.464V472.84C210.971 472.947 210.917 473 210.811 473H209.995C209.888 473 209.835 472.947 209.835 472.84V472.184C209.835 472.163 209.824 472.147 209.803 472.136C209.792 472.125 209.776 472.131 209.755 472.152C209.488 472.472 209.141 472.717 208.715 472.888C208.288 473.048 207.813 473.128 207.291 473.128C206.533 473.128 205.899 472.936 205.387 472.552C204.875 472.168 204.619 471.581 204.619 470.792C204.619 469.992 204.907 469.363 205.483 468.904C206.069 468.435 206.88 468.2 207.915 468.2H209.771C209.813 468.2 209.835 468.179 209.835 468.136V467.528C209.835 466.984 209.68 466.557 209.371 466.248C209.072 465.928 208.603 465.768 207.963 465.768C207.451 465.768 207.035 465.869 206.715 466.072C206.395 466.264 206.197 466.536 206.123 466.888C206.091 466.995 206.027 467.043 205.931 467.032L205.067 466.92C204.949 466.899 204.901 466.856 204.923 466.792C205.008 466.195 205.328 465.709 205.883 465.336C206.437 464.963 207.131 464.776 207.963 464.776ZM207.515 472.152C208.144 472.152 208.688 471.997 209.147 471.688C209.605 471.368 209.835 470.941 209.835 470.408V469.16C209.835 469.117 209.813 469.096 209.771 469.096H208.091C207.387 469.096 206.821 469.24 206.395 469.528C205.968 469.816 205.755 470.216 205.755 470.728C205.755 471.197 205.915 471.555 206.235 471.8C206.565 472.035 206.992 472.152 207.515 472.152ZM218.138 461.848C218.202 461.816 218.271 461.8 218.346 461.8H219.21C219.316 461.8 219.37 461.853 219.37 461.96V472.84C219.37 472.947 219.316 473 219.21 473H218.394C218.287 473 218.234 472.947 218.234 472.84V463.096C218.234 463.075 218.223 463.059 218.202 463.048C218.191 463.037 218.175 463.037 218.154 463.048L216.458 463.736L216.394 463.752C216.33 463.752 216.287 463.709 216.266 463.624L216.186 463.016V462.984C216.186 462.931 216.223 462.877 216.298 462.824L218.138 461.848Z" fill="black"/>
<rect x="158" y="467" width="16" height="1.6" fill="#0086FF"/>
<path d="M260.82 473C260.714 473 260.66 472.947 260.66 472.84V461.96C260.66 461.853 260.714 461.8 260.82 461.8H264.596C265.652 461.8 266.49 462.077 267.108 462.632C267.738 463.187 268.052 463.939 268.052 464.888V469.912C268.052 470.861 267.738 471.613 267.108 472.168C266.49 472.723 265.652 473 264.596 473H260.82ZM261.796 471.944C261.796 471.987 261.818 472.008 261.86 472.008H264.644C265.338 472.008 265.887 471.805 266.292 471.4C266.708 470.995 266.916 470.451 266.916 469.768V465.048C266.916 464.355 266.714 463.805 266.308 463.4C265.903 462.995 265.348 462.792 264.644 462.792H261.86C261.818 462.792 261.796 462.813 261.796 462.856V471.944ZM273.033 464.776C273.993 464.776 274.734 465.021 275.257 465.512C275.78 466.003 276.041 466.653 276.041 467.464V472.84C276.041 472.947 275.988 473 275.881 473H275.065C274.958 473 274.905 472.947 274.905 472.84V472.184C274.905 472.163 274.894 472.147 274.873 472.136C274.862 472.125 274.846 472.131 274.825 472.152C274.558 472.472 274.212 472.717 273.785 472.888C273.358 473.048 272.884 473.128 272.361 473.128C271.604 473.128 270.969 472.936 270.457 472.552C269.945 472.168 269.689 471.581 269.689 470.792C269.689 469.992 269.977 469.363 270.553 468.904C271.14 468.435 271.95 468.2 272.985 468.2H274.841C274.884 468.2 274.905 468.179 274.905 468.136V467.528C274.905 466.984 274.75 466.557 274.441 466.248C274.142 465.928 273.673 465.768 273.033 465.768C272.521 465.768 272.105 465.869 271.785 466.072C271.465 466.264 271.268 466.536 271.193 466.888C271.161 466.995 271.097 467.043 271.001 467.032L270.137 466.92C270.02 466.899 269.972 466.856 269.993 466.792C270.078 466.195 270.398 465.709 270.953 465.336C271.508 464.963 272.201 464.776 273.033 464.776ZM272.585 472.152C273.214 472.152 273.758 471.997 274.217 471.688C274.676 471.368 274.905 470.941 274.905 470.408V469.16C274.905 469.117 274.884 469.096 274.841 469.096H273.161C272.457 469.096 271.892 469.24 271.465 469.528C271.038 469.816 270.825 470.216 270.825 470.728C270.825 471.197 270.985 471.555 271.305 471.8C271.636 472.035 272.062 472.152 272.585 472.152ZM281.975 465.688C281.975 465.795 281.921 465.848 281.815 465.848H280.007C279.964 465.848 279.943 465.869 279.943 465.912V470.632C279.943 471.144 280.055 471.507 280.279 471.72C280.513 471.923 280.876 472.024 281.367 472.024H281.766C281.873 472.024 281.927 472.077 281.927 472.184V472.84C281.927 472.947 281.873 473 281.766 473C281.639 473.011 281.441 473.016 281.174 473.016C280.407 473.016 279.825 472.872 279.431 472.584C279.036 472.296 278.839 471.763 278.839 470.984V465.912C278.839 465.869 278.817 465.848 278.775 465.848H277.799C277.692 465.848 277.639 465.795 277.639 465.688V465.064C277.639 464.957 277.692 464.904 277.799 464.904H278.775C278.817 464.904 278.839 464.883 278.839 464.84V462.984C278.839 462.877 278.892 462.824 278.999 462.824H279.783C279.889 462.824 279.943 462.877 279.943 462.984V464.84C279.943 464.883 279.964 464.904 280.007 464.904H281.815C281.921 464.904 281.975 464.957 281.975 465.064V465.688ZM286.971 464.776C287.931 464.776 288.672 465.021 289.195 465.512C289.717 466.003 289.979 466.653 289.979 467.464V472.84C289.979 472.947 289.925 473 289.819 473H289.003C288.896 473 288.843 472.947 288.843 472.84V472.184C288.843 472.163 288.832 472.147 288.811 472.136C288.8 472.125 288.784 472.131 288.763 472.152C288.496 472.472 288.149 472.717 287.723 472.888C287.296 473.048 286.821 473.128 286.299 473.128C285.541 473.128 284.907 472.936 284.395 472.552C283.883 472.168 283.627 471.581 283.627 470.792C283.627 469.992 283.915 469.363 284.491 468.904C285.077 468.435 285.888 468.2 286.923 468.2H288.779C288.821 468.2 288.843 468.179 288.843 468.136V467.528C288.843 466.984 288.688 466.557 288.379 466.248C288.08 465.928 287.611 465.768 286.971 465.768C286.459 465.768 286.043 465.869 285.723 466.072C285.403 466.264 285.205 466.536 285.131 466.888C285.099 466.995 285.035 467.043 284.939 467.032L284.075 466.92C283.957 466.899 283.909 466.856 283.931 466.792C284.016 466.195 284.336 465.709 284.891 465.336C285.445 464.963 286.139 464.776 286.971 464.776ZM286.523 472.152C287.152 472.152 287.696 471.997 288.155 471.688C288.613 471.368 288.843 470.941 288.843 470.408V469.16C288.843 469.117 288.821 469.096 288.779 469.096H287.099C286.395 469.096 285.829 469.24 285.403 469.528C284.976 469.816 284.763 470.216 284.763 470.728C284.763 471.197 284.923 471.555 285.243 471.8C285.573 472.035 286 472.152 286.523 472.152ZM296.698 471.928C296.666 471.981 296.676 472.008 296.73 472.008H301.754C301.86 472.008 301.914 472.061 301.914 472.168V472.84C301.914 472.947 301.86 473 301.754 473H295.37C295.263 473 295.21 472.947 295.21 472.84V472.168C295.21 472.093 295.236 472.029 295.29 471.976C295.652 471.549 296.468 470.547 297.738 468.968L298.922 467.496C299.924 466.227 300.426 465.24 300.426 464.536C300.426 463.971 300.234 463.517 299.85 463.176C299.466 462.835 298.964 462.664 298.346 462.664C297.738 462.664 297.247 462.84 296.874 463.192C296.5 463.533 296.319 463.987 296.33 464.552V465.048C296.33 465.155 296.276 465.208 296.17 465.208H295.338C295.231 465.208 295.178 465.155 295.178 465.048V464.408C295.199 463.587 295.503 462.925 296.09 462.424C296.687 461.923 297.439 461.672 298.346 461.672C298.986 461.672 299.551 461.795 300.042 462.04C300.532 462.285 300.911 462.627 301.178 463.064C301.444 463.491 301.578 463.976 301.578 464.52C301.578 465.427 301.076 466.52 300.074 467.8C299.551 468.472 298.543 469.709 297.05 471.512L296.698 471.928Z" fill="black"/>
<rect x="238" y="467" width="16" height="1.6" fill="#F33F3F"/>
<path d="M340.992 473C340.885 473 340.832 472.947 340.832 472.84V461.96C340.832 461.853 340.885 461.8 340.992 461.8H344.768C345.824 461.8 346.661 462.077 347.28 462.632C347.909 463.187 348.224 463.939 348.224 464.888V469.912C348.224 470.861 347.909 471.613 347.28 472.168C346.661 472.723 345.824 473 344.768 473H340.992ZM341.968 471.944C341.968 471.987 341.989 472.008 342.032 472.008H344.816C345.509 472.008 346.059 471.805 346.464 471.4C346.88 470.995 347.088 470.451 347.088 469.768V465.048C347.088 464.355 346.885 463.805 346.48 463.4C346.075 462.995 345.52 462.792 344.816 462.792H342.032C341.989 462.792 341.968 462.813 341.968 462.856V471.944ZM353.205 464.776C354.165 464.776 354.906 465.021 355.429 465.512C355.952 466.003 356.213 466.653 356.213 467.464V472.84C356.213 472.947 356.16 473 356.053 473H355.237C355.13 473 355.077 472.947 355.077 472.84V472.184C355.077 472.163 355.066 472.147 355.045 472.136C355.034 472.125 355.018 472.131 354.997 472.152C354.73 472.472 354.384 472.717 353.957 472.888C353.53 473.048 353.056 473.128 352.533 473.128C351.776 473.128 351.141 472.936 350.629 472.552C350.117 472.168 349.861 471.581 349.861 470.792C349.861 469.992 350.149 469.363 350.725 468.904C351.312 468.435 352.122 468.2 353.157 468.2H355.013C355.056 468.2 355.077 468.179 355.077 468.136V467.528C355.077 466.984 354.922 466.557 354.613 466.248C354.314 465.928 353.845 465.768 353.205 465.768C352.693 465.768 352.277 465.869 351.957 466.072C351.637 466.264 351.44 466.536 351.365 466.888C351.333 466.995 351.269 467.043 351.173 467.032L350.309 466.92C350.192 466.899 350.144 466.856 350.165 466.792C350.25 466.195 350.57 465.709 351.125 465.336C351.68 464.963 352.373 464.776 353.205 464.776ZM352.757 472.152C353.386 472.152 353.93 471.997 354.389 471.688C354.848 471.368 355.077 470.941 355.077 470.408V469.16C355.077 469.117 355.056 469.096 355.013 469.096H353.333C352.629 469.096 352.064 469.24 351.637 469.528C351.21 469.816 350.997 470.216 350.997 470.728C350.997 471.197 351.157 471.555 351.477 471.8C351.808 472.035 352.234 472.152 352.757 472.152ZM362.146 465.688C362.146 465.795 362.093 465.848 361.986 465.848H360.178C360.136 465.848 360.114 465.869 360.114 465.912V470.632C360.114 471.144 360.226 471.507 360.45 471.72C360.685 471.923 361.048 472.024 361.538 472.024H361.938C362.045 472.024 362.098 472.077 362.098 472.184V472.84C362.098 472.947 362.045 473 361.938 473C361.81 473.011 361.613 473.016 361.346 473.016C360.578 473.016 359.997 472.872 359.602 472.584C359.208 472.296 359.01 471.763 359.01 470.984V465.912C359.01 465.869 358.989 465.848 358.946 465.848H357.97C357.864 465.848 357.81 465.795 357.81 465.688V465.064C357.81 464.957 357.864 464.904 357.97 464.904H358.946C358.989 464.904 359.01 464.883 359.01 464.84V462.984C359.01 462.877 359.064 462.824 359.17 462.824H359.954C360.061 462.824 360.114 462.877 360.114 462.984V464.84C360.114 464.883 360.136 464.904 360.178 464.904H361.986C362.093 464.904 362.146 464.957 362.146 465.064V465.688ZM367.143 464.776C368.103 464.776 368.844 465.021 369.367 465.512C369.889 466.003 370.151 466.653 370.151 467.464V472.84C370.151 472.947 370.097 473 369.991 473H369.175C369.068 473 369.015 472.947 369.015 472.84V472.184C369.015 472.163 369.004 472.147 368.983 472.136C368.972 472.125 368.956 472.131 368.935 472.152C368.668 472.472 368.321 472.717 367.895 472.888C367.468 473.048 366.993 473.128 366.471 473.128C365.713 473.128 365.079 472.936 364.567 472.552C364.055 472.168 363.799 471.581 363.799 470.792C363.799 469.992 364.087 469.363 364.663 468.904C365.249 468.435 366.06 468.2 367.095 468.2H368.951C368.993 468.2 369.015 468.179 369.015 468.136V467.528C369.015 466.984 368.86 466.557 368.551 466.248C368.252 465.928 367.783 465.768 367.143 465.768C366.631 465.768 366.215 465.869 365.895 466.072C365.575 466.264 365.377 466.536 365.303 466.888C365.271 466.995 365.207 467.043 365.111 467.032L364.247 466.92C364.129 466.899 364.081 466.856 364.103 466.792C364.188 466.195 364.508 465.709 365.062 465.336C365.617 464.963 366.311 464.776 367.143 464.776ZM366.695 472.152C367.324 472.152 367.868 471.997 368.327 471.688C368.785 471.368 369.015 470.941 369.015 470.408V469.16C369.015 469.117 368.993 469.096 368.951 469.096H367.271C366.567 469.096 366.001 469.24 365.575 469.528C365.148 469.816 364.935 470.216 364.935 470.728C364.935 471.197 365.095 471.555 365.414 471.8C365.745 472.035 366.172 472.152 366.695 472.152ZM381.318 467.704C381.531 468.227 381.638 468.851 381.638 469.576C381.638 470.163 381.558 470.68 381.398 471.128C381.184 471.768 380.822 472.264 380.31 472.616C379.808 472.957 379.184 473.128 378.438 473.128C377.691 473.128 377.051 472.936 376.518 472.552C375.984 472.157 375.616 471.629 375.414 470.968C375.318 470.669 375.259 470.264 375.238 469.752C375.238 469.645 375.291 469.592 375.398 469.592H376.214C376.32 469.592 376.374 469.645 376.374 469.752C376.395 470.061 376.432 470.349 376.486 470.616C376.603 471.085 376.827 471.459 377.158 471.736C377.499 472.003 377.92 472.136 378.422 472.136C379.382 472.136 380.006 471.709 380.294 470.856C380.422 470.504 380.486 470.067 380.486 469.544C380.486 468.904 380.4 468.381 380.23 467.976C379.888 467.208 379.286 466.824 378.422 466.824C378.262 466.824 378.064 466.883 377.83 467C377.787 467.021 377.755 467.032 377.734 467.032C377.691 467.032 377.654 467.005 377.622 466.952L377.206 466.392C377.152 466.307 377.158 466.232 377.222 466.168L380.038 462.872C380.07 462.819 380.059 462.792 380.006 462.792H375.493C375.387 462.792 375.334 462.739 375.334 462.632V461.96C375.334 461.853 375.387 461.8 375.493 461.8H381.414C381.52 461.8 381.574 461.853 381.574 461.96V462.744C381.574 462.797 381.547 462.861 381.494 462.936L378.934 466.008C378.912 466.029 378.907 466.051 378.918 466.072C378.928 466.083 378.95 466.088 378.982 466.088C380.123 466.163 380.902 466.701 381.318 467.704Z" fill="black"/>
<rect x="318" y="467" width="16" height="1.6" fill="#5FD55D"/>
<path d="M420.703 473C420.596 473 420.543 472.947 420.543 472.84V461.96C420.543 461.853 420.596 461.8 420.703 461.8H424.479C425.535 461.8 426.372 462.077 426.991 462.632C427.62 463.187 427.935 463.939 427.935 464.888V469.912C427.935 470.861 427.62 471.613 426.991 472.168C426.372 472.723 425.535 473 424.479 473H420.703ZM421.679 471.944C421.679 471.987 421.7 472.008 421.743 472.008H424.527C425.22 472.008 425.77 471.805 426.175 471.4C426.591 470.995 426.799 470.451 426.799 469.768V465.048C426.799 464.355 426.596 463.805 426.191 463.4C425.786 462.995 425.231 462.792 424.527 462.792H421.743C421.7 462.792 421.679 462.813 421.679 462.856V471.944ZM432.916 464.776C433.876 464.776 434.617 465.021 435.14 465.512C435.663 466.003 435.924 466.653 435.924 467.464V472.84C435.924 472.947 435.871 473 435.764 473H434.948C434.841 473 434.788 472.947 434.788 472.84V472.184C434.788 472.163 434.777 472.147 434.756 472.136C434.745 472.125 434.729 472.131 434.708 472.152C434.441 472.472 434.095 472.717 433.668 472.888C433.241 473.048 432.767 473.128 432.244 473.128C431.487 473.128 430.852 472.936 430.34 472.552C429.828 472.168 429.572 471.581 429.572 470.792C429.572 469.992 429.86 469.363 430.436 468.904C431.023 468.435 431.833 468.2 432.868 468.2H434.724C434.767 468.2 434.788 468.179 434.788 468.136V467.528C434.788 466.984 434.633 466.557 434.324 466.248C434.025 465.928 433.556 465.768 432.916 465.768C432.404 465.768 431.988 465.869 431.668 466.072C431.348 466.264 431.151 466.536 431.076 466.888C431.044 466.995 430.98 467.043 430.884 467.032L430.02 466.92C429.903 466.899 429.855 466.856 429.876 466.792C429.961 466.195 430.281 465.709 430.836 465.336C431.391 464.963 432.084 464.776 432.916 464.776ZM432.468 472.152C433.097 472.152 433.641 471.997 434.1 471.688C434.559 471.368 434.788 470.941 434.788 470.408V469.16C434.788 469.117 434.767 469.096 434.724 469.096H433.044C432.34 469.096 431.775 469.24 431.348 469.528C430.921 469.816 430.708 470.216 430.708 470.728C430.708 471.197 430.868 471.555 431.188 471.8C431.519 472.035 431.945 472.152 432.468 472.152ZM441.857 465.688C441.857 465.795 441.804 465.848 441.697 465.848H439.889C439.847 465.848 439.825 465.869 439.825 465.912V470.632C439.825 471.144 439.937 471.507 440.161 471.72C440.396 471.923 440.759 472.024 441.249 472.024H441.649C441.756 472.024 441.809 472.077 441.809 472.184V472.84C441.809 472.947 441.756 473 441.649 473C441.521 473.011 441.324 473.016 441.057 473.016C440.289 473.016 439.708 472.872 439.313 472.584C438.919 472.296 438.721 471.763 438.721 470.984V465.912C438.721 465.869 438.7 465.848 438.657 465.848H437.681C437.575 465.848 437.521 465.795 437.521 465.688V465.064C437.521 464.957 437.575 464.904 437.681 464.904H438.657C438.7 464.904 438.721 464.883 438.721 464.84V462.984C438.721 462.877 438.775 462.824 438.881 462.824H439.665C439.772 462.824 439.825 462.877 439.825 462.984V464.84C439.825 464.883 439.847 464.904 439.889 464.904H441.697C441.804 464.904 441.857 464.957 441.857 465.064V465.688ZM446.853 464.776C447.813 464.776 448.555 465.021 449.077 465.512C449.6 466.003 449.861 466.653 449.861 467.464V472.84C449.861 472.947 449.808 473 449.701 473H448.885C448.779 473 448.725 472.947 448.725 472.84V472.184C448.725 472.163 448.715 472.147 448.693 472.136C448.683 472.125 448.667 472.131 448.645 472.152C448.379 472.472 448.032 472.717 447.605 472.888C447.179 473.048 446.704 473.128 446.181 473.128C445.424 473.128 444.789 472.936 444.277 472.552C443.765 472.168 443.509 471.581 443.509 470.792C443.509 469.992 443.797 469.363 444.373 468.904C444.96 468.435 445.771 468.2 446.805 468.2H448.661C448.704 468.2 448.725 468.179 448.725 468.136V467.528C448.725 466.984 448.571 466.557 448.261 466.248C447.963 465.928 447.493 465.768 446.853 465.768C446.341 465.768 445.925 465.869 445.605 466.072C445.285 466.264 445.088 466.536 445.013 466.888C444.981 466.995 444.917 467.043 444.821 467.032L443.957 466.92C443.84 466.899 443.792 466.856 443.813 466.792C443.899 466.195 444.219 465.709 444.773 465.336C445.328 464.963 446.021 464.776 446.853 464.776ZM446.405 472.152C447.035 472.152 447.579 471.997 448.037 471.688C448.496 471.368 448.725 470.941 448.725 470.408V469.16C448.725 469.117 448.704 469.096 448.661 469.096H446.981C446.277 469.096 445.712 469.24 445.285 469.528C444.859 469.816 444.645 470.216 444.645 470.728C444.645 471.197 444.805 471.555 445.125 471.8C445.456 472.035 445.883 472.152 446.405 472.152ZM461.828 468.888C461.935 468.888 461.988 468.941 461.988 469.048V469.752C461.988 469.859 461.935 469.912 461.828 469.912H461.14C461.098 469.912 461.076 469.933 461.076 469.976V472.84C461.076 472.947 461.023 473 460.916 473H460.1C459.994 473 459.94 472.947 459.94 472.84V469.976C459.94 469.933 459.919 469.912 459.876 469.912H455.092C454.986 469.912 454.932 469.859 454.932 469.752V469.16C454.932 469.107 454.948 469.043 454.98 468.968L458.26 461.912C458.292 461.837 458.351 461.8 458.436 461.8H459.284C459.338 461.8 459.375 461.821 459.396 461.864C459.428 461.896 459.434 461.939 459.412 461.992L456.228 468.808C456.218 468.829 456.218 468.851 456.228 468.872C456.239 468.883 456.255 468.888 456.276 468.888H459.876C459.919 468.888 459.94 468.867 459.94 468.824V466.248C459.94 466.141 459.994 466.088 460.1 466.088H460.916C461.023 466.088 461.076 466.141 461.076 466.248V468.824C461.076 468.867 461.098 468.888 461.14 468.888H461.828Z" fill="black"/>
<rect x="398" y="467" width="16" height="1.6" fill="#D98F4A"/>
<path d="M501 473C500.893 473 500.84 472.947 500.84 472.84V461.96C500.84 461.853 500.893 461.8 501 461.8H504.776C505.832 461.8 506.669 462.077 507.288 462.632C507.917 463.187 508.232 463.939 508.232 464.888V469.912C508.232 470.861 507.917 471.613 507.288 472.168C506.669 472.723 505.832 473 504.776 473H501ZM501.976 471.944C501.976 471.987 501.997 472.008 502.04 472.008H504.824C505.517 472.008 506.067 471.805 506.472 471.4C506.888 470.995 507.096 470.451 507.096 469.768V465.048C507.096 464.355 506.893 463.805 506.488 463.4C506.083 462.995 505.528 462.792 504.824 462.792H502.04C501.997 462.792 501.976 462.813 501.976 462.856V471.944ZM513.213 464.776C514.173 464.776 514.914 465.021 515.437 465.512C515.959 466.003 516.221 466.653 516.221 467.464V472.84C516.221 472.947 516.167 473 516.061 473H515.245C515.138 473 515.085 472.947 515.085 472.84V472.184C515.085 472.163 515.074 472.147 515.053 472.136C515.042 472.125 515.026 472.131 515.005 472.152C514.738 472.472 514.391 472.717 513.965 472.888C513.538 473.048 513.063 473.128 512.541 473.128C511.783 473.128 511.149 472.936 510.637 472.552C510.125 472.168 509.869 471.581 509.869 470.792C509.869 469.992 510.157 469.363 510.733 468.904C511.319 468.435 512.13 468.2 513.165 468.2H515.021C515.063 468.2 515.085 468.179 515.085 468.136V467.528C515.085 466.984 514.93 466.557 514.621 466.248C514.322 465.928 513.853 465.768 513.213 465.768C512.701 465.768 512.285 465.869 511.965 466.072C511.645 466.264 511.447 466.536 511.373 466.888C511.341 466.995 511.277 467.043 511.181 467.032L510.317 466.92C510.199 466.899 510.151 466.856 510.173 466.792C510.258 466.195 510.578 465.709 511.133 465.336C511.687 464.963 512.381 464.776 513.213 464.776ZM512.765 472.152C513.394 472.152 513.938 471.997 514.397 471.688C514.855 471.368 515.085 470.941 515.085 470.408V469.16C515.085 469.117 515.063 469.096 515.021 469.096H513.341C512.637 469.096 512.071 469.24 511.645 469.528C511.218 469.816 511.005 470.216 511.005 470.728C511.005 471.197 511.165 471.555 511.485 471.8C511.815 472.035 512.242 472.152 512.765 472.152ZM522.154 465.688C522.154 465.795 522.101 465.848 521.994 465.848H520.186C520.144 465.848 520.122 465.869 520.122 465.912V470.632C520.122 471.144 520.234 471.507 520.458 471.72C520.693 471.923 521.056 472.024 521.546 472.024H521.946C522.053 472.024 522.106 472.077 522.106 472.184V472.84C522.106 472.947 522.053 473 521.946 473C521.818 473.011 521.621 473.016 521.354 473.016C520.586 473.016 520.005 472.872 519.61 472.584C519.216 472.296 519.018 471.763 519.018 470.984V465.912C519.018 465.869 518.997 465.848 518.954 465.848H517.978C517.872 465.848 517.818 465.795 517.818 465.688V465.064C517.818 464.957 517.872 464.904 517.978 464.904H518.954C518.997 464.904 519.018 464.883 519.018 464.84V462.984C519.018 462.877 519.072 462.824 519.178 462.824H519.962C520.069 462.824 520.122 462.877 520.122 462.984V464.84C520.122 464.883 520.144 464.904 520.186 464.904H521.994C522.101 464.904 522.154 464.957 522.154 465.064V465.688ZM527.15 464.776C528.11 464.776 528.852 465.021 529.374 465.512C529.897 466.003 530.158 466.653 530.158 467.464V472.84C530.158 472.947 530.105 473 529.998 473H529.182C529.076 473 529.022 472.947 529.022 472.84V472.184C529.022 472.163 529.012 472.147 528.99 472.136C528.98 472.125 528.964 472.131 528.942 472.152C528.676 472.472 528.329 472.717 527.902 472.888C527.476 473.048 527.001 473.128 526.478 473.128C525.721 473.128 525.086 472.936 524.574 472.552C524.062 472.168 523.806 471.581 523.806 470.792C523.806 469.992 524.094 469.363 524.67 468.904C525.257 468.435 526.068 468.2 527.102 468.2H528.958C529.001 468.2 529.022 468.179 529.022 468.136V467.528C529.022 466.984 528.868 466.557 528.558 466.248C528.26 465.928 527.79 465.768 527.15 465.768C526.638 465.768 526.222 465.869 525.902 466.072C525.582 466.264 525.385 466.536 525.31 466.888C525.278 466.995 525.214 467.043 525.118 467.032L524.254 466.92C524.137 466.899 524.089 466.856 524.11 466.792C524.196 466.195 524.516 465.709 525.07 465.336C525.625 464.963 526.318 464.776 527.15 464.776ZM526.702 472.152C527.332 472.152 527.876 471.997 528.334 471.688C528.793 471.368 529.022 470.941 529.022 470.408V469.16C529.022 469.117 529.001 469.096 528.958 469.096H527.278C526.574 469.096 526.009 469.24 525.582 469.528C525.156 469.816 524.942 470.216 524.942 470.728C524.942 471.197 525.102 471.555 525.422 471.8C525.753 472.035 526.18 472.152 526.702 472.152ZM541.725 468.104C541.821 468.573 541.869 469.053 541.869 469.544C541.869 470.067 541.821 470.515 541.725 470.888C541.544 471.571 541.181 472.115 540.637 472.52C540.093 472.915 539.437 473.112 538.669 473.112C537.912 473.112 537.267 472.92 536.733 472.536C536.2 472.152 535.837 471.64 535.645 471C535.571 470.765 535.523 470.531 535.501 470.296V470.264C535.501 470.179 535.549 470.136 535.645 470.136H536.493C536.6 470.136 536.659 470.189 536.669 470.296C536.669 470.36 536.691 470.467 536.733 470.616C536.84 471.075 537.059 471.443 537.389 471.72C537.731 471.987 538.152 472.12 538.653 472.12C539.165 472.12 539.592 471.976 539.933 471.688C540.285 471.4 540.515 471.005 540.621 470.504C540.685 470.259 540.717 469.939 540.717 469.544C540.717 469.181 540.691 468.835 540.637 468.504C540.563 468.013 540.349 467.64 539.997 467.384C539.645 467.128 539.208 467 538.685 467C538.216 467 537.795 467.107 537.421 467.32C537.048 467.533 536.808 467.816 536.701 468.168C536.669 468.264 536.611 468.312 536.525 468.312H535.661C535.555 468.312 535.501 468.259 535.501 468.152V461.96C535.501 461.853 535.555 461.8 535.661 461.8H541.261C541.368 461.8 541.421 461.853 541.421 461.96V462.632C541.421 462.739 541.368 462.792 541.261 462.792H536.701C536.659 462.792 536.637 462.813 536.637 462.856L536.621 466.728C536.621 466.749 536.627 466.765 536.637 466.776C536.659 466.787 536.68 466.781 536.701 466.76C536.968 466.515 537.283 466.328 537.645 466.2C538.008 466.061 538.392 465.992 538.797 465.992C539.555 465.992 540.195 466.179 540.717 466.552C541.24 466.915 541.576 467.432 541.725 468.104Z" fill="black"/>
<rect x="478" y="467" width="16" height="1.6" fill="#A9429B"/>
<line x1="154" y1="351" x2="658" y2="351" stroke="black" stroke-width="4"/>
<line x1="156" y1="349" x2="156" y2="48" stroke="black" stroke-width="4"/>
</svg>
