<svg width="208" height="500" viewBox="0 0 208 500" fill="none" xmlns="http://www.w3.org/2000/svg">
<rect width="208" height="500" fill="white"/>
<path d="M66.0532 32.16C64.9865 32.16 64.0532 31.9933 63.2532 31.66C62.4532 31.3133 61.8332 30.8267 61.3932 30.2C60.9665 29.56 60.7532 28.82 60.7532 27.98V27.54C60.7532 27.4733 60.7732 27.42 60.8132 27.38C60.8665 27.3267 60.9265 27.3 60.9932 27.3H63.2732C63.3399 27.3 63.3932 27.3267 63.4332 27.38C63.4865 27.42 63.5132 27.4733 63.5132 27.54V27.84C63.5132 28.3733 63.7599 28.8267 64.2532 29.2C64.7465 29.56 65.4132 29.74 66.2532 29.74C66.9599 29.74 67.4865 29.5933 67.8332 29.3C68.1799 28.9933 68.3532 28.62 68.3532 28.18C68.3532 27.86 68.2465 27.5933 68.0332 27.38C67.8199 27.1533 67.5265 26.96 67.1532 26.8C66.7932 26.6267 66.2132 26.3933 65.4132 26.1C64.5199 25.7933 63.7599 25.48 63.1332 25.16C62.5199 24.84 61.9999 24.4067 61.5732 23.86C61.1599 23.3 60.9532 22.6133 60.9532 21.8C60.9532 21 61.1599 20.3 61.5732 19.7C61.9865 19.1 62.5599 18.64 63.2932 18.32C64.0265 18 64.8732 17.84 65.8332 17.84C66.8465 17.84 67.7465 18.02 68.5332 18.38C69.3332 18.74 69.9532 19.2467 70.3932 19.9C70.8465 20.54 71.0732 21.2867 71.0732 22.14V22.44C71.0732 22.5067 71.0465 22.5667 70.9932 22.62C70.9532 22.66 70.8999 22.68 70.8332 22.68H68.5332C68.4665 22.68 68.4065 22.66 68.3532 22.62C68.3132 22.5667 68.2932 22.5067 68.2932 22.44V22.28C68.2932 21.72 68.0599 21.2467 67.5932 20.86C67.1399 20.46 66.5132 20.26 65.7132 20.26C65.0865 20.26 64.5932 20.3933 64.2332 20.66C63.8865 20.9267 63.7132 21.2933 63.7132 21.76C63.7132 22.0933 63.8132 22.3733 64.0132 22.6C64.2265 22.8267 64.5332 23.0333 64.9332 23.22C65.3465 23.3933 65.9799 23.6333 66.8332 23.94C67.7799 24.2867 68.5199 24.5933 69.0532 24.86C69.5999 25.1267 70.0865 25.5267 70.5132 26.06C70.9532 26.58 71.1732 27.26 71.1732 28.1C71.1732 29.3533 70.7132 30.3467 69.7932 31.08C68.8732 31.8 67.6265 32.16 66.0532 32.16ZM77.5077 32.16C76.3877 32.16 75.4277 31.8667 74.6277 31.28C73.8277 30.6933 73.2811 29.8933 72.9877 28.88C72.8011 28.2533 72.7077 27.5733 72.7077 26.84C72.7077 26.0533 72.8011 25.3467 72.9877 24.72C73.2944 23.7333 73.8477 22.96 74.6477 22.4C75.4477 21.84 76.4077 21.56 77.5277 21.56C78.6211 21.56 79.5544 21.84 80.3277 22.4C81.1011 22.9467 81.6477 23.7133 81.9677 24.7C82.1811 25.3667 82.2877 26.0667 82.2877 26.8C82.2877 27.52 82.1944 28.1933 82.0077 28.82C81.7144 29.86 81.1677 30.68 80.3677 31.28C79.5811 31.8667 78.6277 32.16 77.5077 32.16ZM77.5077 29.74C77.9477 29.74 78.3211 29.6067 78.6277 29.34C78.9344 29.0733 79.1544 28.7067 79.2877 28.24C79.3944 27.8133 79.4477 27.3467 79.4477 26.84C79.4477 26.28 79.3944 25.8067 79.2877 25.42C79.1411 24.9667 78.9144 24.6133 78.6077 24.36C78.3011 24.1067 77.9277 23.98 77.4877 23.98C77.0344 23.98 76.6544 24.1067 76.3477 24.36C76.0544 24.6133 75.8411 24.9667 75.7077 25.42C75.6011 25.74 75.5477 26.2133 75.5477 26.84C75.5477 27.44 75.5944 27.9067 75.6877 28.24C75.8211 28.7067 76.0411 29.0733 76.3477 29.34C76.6677 29.6067 77.0544 29.74 77.5077 29.74ZM89.2205 21.58C89.7005 21.58 90.0805 21.6733 90.3605 21.86C90.4672 21.9133 90.5072 22.0133 90.4805 22.16L90.0605 24.44C90.0472 24.6 89.9539 24.6467 89.7805 24.58C89.5805 24.5133 89.3472 24.48 89.0805 24.48C88.9739 24.48 88.8272 24.4933 88.6405 24.52C88.1605 24.56 87.7539 24.74 87.4205 25.06C87.0872 25.3667 86.9205 25.78 86.9205 26.3V31.76C86.9205 31.8267 86.8939 31.8867 86.8405 31.94C86.8005 31.98 86.7472 32 86.6805 32H84.3405C84.2739 32 84.2139 31.98 84.1605 31.94C84.1205 31.8867 84.1005 31.8267 84.1005 31.76V21.96C84.1005 21.8933 84.1205 21.84 84.1605 21.8C84.2139 21.7467 84.2739 21.72 84.3405 21.72H86.6805C86.7472 21.72 86.8005 21.7467 86.8405 21.8C86.8939 21.84 86.9205 21.8933 86.9205 21.96V22.72C86.9205 22.76 86.9339 22.7867 86.9605 22.8C86.9872 22.8133 87.0072 22.8067 87.0205 22.78C87.5672 21.98 88.3005 21.58 89.2205 21.58ZM97.774 23.74C97.774 23.8067 97.7473 23.8667 97.694 23.92C97.654 23.96 97.6007 23.98 97.534 23.98H95.614C95.5473 23.98 95.514 24.0133 95.514 24.08V28.32C95.514 28.76 95.6007 29.0867 95.774 29.3C95.9607 29.5133 96.254 29.62 96.654 29.62H97.314C97.3807 29.62 97.434 29.6467 97.474 29.7C97.5273 29.74 97.554 29.7933 97.554 29.86V31.76C97.554 31.9067 97.474 31.9933 97.314 32.02C96.754 32.0467 96.354 32.06 96.114 32.06C95.0073 32.06 94.1807 31.88 93.634 31.52C93.0873 31.1467 92.8073 30.4533 92.794 29.44V24.08C92.794 24.0133 92.7607 23.98 92.694 23.98H91.554C91.4873 23.98 91.4273 23.96 91.374 23.92C91.334 23.8667 91.314 23.8067 91.314 23.74V21.96C91.314 21.8933 91.334 21.84 91.374 21.8C91.4273 21.7467 91.4873 21.72 91.554 21.72H92.694C92.7607 21.72 92.794 21.6867 92.794 21.62V19.24C92.794 19.1733 92.814 19.12 92.854 19.08C92.9073 19.0267 92.9673 19 93.034 19H95.274C95.3407 19 95.394 19.0267 95.434 19.08C95.4873 19.12 95.514 19.1733 95.514 19.24V21.62C95.514 21.6867 95.5473 21.72 95.614 21.72H97.534C97.6007 21.72 97.654 21.7467 97.694 21.8C97.7473 21.84 97.774 21.8933 97.774 21.96V23.74ZM108.435 25.8C108.515 26.3067 108.542 26.8733 108.515 27.5C108.502 27.66 108.415 27.74 108.255 27.74H102.075C101.995 27.74 101.968 27.7733 101.995 27.84C102.035 28.1067 102.108 28.3733 102.215 28.64C102.562 29.3867 103.268 29.76 104.335 29.76C105.188 29.7467 105.862 29.4 106.355 28.72C106.408 28.64 106.468 28.6 106.535 28.6C106.575 28.6 106.622 28.6267 106.675 28.68L108.115 30.1C108.182 30.1667 108.215 30.2267 108.215 30.28C108.215 30.3067 108.188 30.36 108.135 30.44C107.695 30.9867 107.128 31.4133 106.435 31.72C105.742 32.0133 104.982 32.16 104.155 32.16C103.008 32.16 102.035 31.9 101.235 31.38C100.448 30.86 99.8816 30.1333 99.5349 29.2C99.2549 28.5333 99.1149 27.66 99.1149 26.58C99.1149 25.8467 99.2149 25.2 99.4149 24.64C99.7216 23.6933 100.255 22.94 101.015 22.38C101.788 21.82 102.702 21.54 103.755 21.54C105.088 21.54 106.155 21.9267 106.955 22.7C107.768 23.4733 108.262 24.5067 108.435 25.8ZM103.775 23.98C102.935 23.98 102.382 24.3733 102.115 25.16C102.062 25.3333 102.015 25.5467 101.975 25.8C101.975 25.8667 102.008 25.9 102.075 25.9H105.535C105.615 25.9 105.642 25.8667 105.615 25.8C105.548 25.4133 105.515 25.2267 105.515 25.24C105.395 24.84 105.182 24.5333 104.875 24.32C104.582 24.0933 104.215 23.98 103.775 23.98ZM116.633 18.24C116.633 18.1733 116.653 18.12 116.693 18.08C116.746 18.0267 116.806 18 116.873 18H119.213C119.28 18 119.333 18.0267 119.373 18.08C119.426 18.12 119.453 18.1733 119.453 18.24V31.76C119.453 31.8267 119.426 31.8867 119.373 31.94C119.333 31.98 119.28 32 119.213 32H116.873C116.806 32 116.746 31.98 116.693 31.94C116.653 31.8867 116.633 31.8267 116.633 31.76V31.1C116.633 31.06 116.62 31.04 116.593 31.04C116.566 31.0267 116.54 31.0333 116.513 31.06C115.953 31.7933 115.186 32.16 114.213 32.16C113.28 32.16 112.473 31.9 111.793 31.38C111.126 30.86 110.646 30.1467 110.353 29.24C110.126 28.5467 110.013 27.74 110.013 26.82C110.013 25.8733 110.133 25.0467 110.373 24.34C110.68 23.4867 111.16 22.8133 111.813 22.32C112.48 21.8133 113.3 21.56 114.273 21.56C115.233 21.56 115.98 21.8933 116.513 22.56C116.54 22.6 116.566 22.6133 116.593 22.6C116.62 22.5867 116.633 22.56 116.633 22.52V18.24ZM116.213 28.88C116.48 28.3867 116.613 27.7133 116.613 26.86C116.613 25.9667 116.466 25.2667 116.173 24.76C115.866 24.24 115.42 23.98 114.833 23.98C114.206 23.98 113.733 24.24 113.413 24.76C113.08 25.28 112.913 25.9867 112.913 26.88C112.913 27.68 113.053 28.3467 113.333 28.88C113.666 29.4533 114.16 29.74 114.813 29.74C115.413 29.74 115.88 29.4533 116.213 28.88ZM134.065 24.7C133.985 24.74 133.985 24.78 134.065 24.82C135.332 25.4733 135.965 26.56 135.965 28.08C135.965 29.3733 135.525 30.3533 134.645 31.02C133.765 31.6733 132.612 32 131.185 32H126.005C125.938 32 125.878 31.98 125.825 31.94C125.785 31.8867 125.765 31.8267 125.765 31.76V18.24C125.765 18.1733 125.785 18.12 125.825 18.08C125.878 18.0267 125.938 18 126.005 18H131.025C134.185 18 135.765 19.28 135.765 21.84C135.765 23.1733 135.198 24.1267 134.065 24.7ZM128.685 20.42C128.618 20.42 128.585 20.4533 128.585 20.52V23.64C128.585 23.7067 128.618 23.74 128.685 23.74H131.025C131.652 23.74 132.138 23.5933 132.485 23.3C132.832 23.0067 133.005 22.6067 133.005 22.1C133.005 21.58 132.832 21.1733 132.485 20.88C132.138 20.5733 131.652 20.42 131.025 20.42H128.685ZM131.185 29.56C131.798 29.56 132.278 29.4067 132.625 29.1C132.972 28.78 133.145 28.3467 133.145 27.8C133.145 27.2533 132.972 26.8267 132.625 26.52C132.278 26.2 131.792 26.04 131.165 26.04H128.685C128.618 26.04 128.585 26.0733 128.585 26.14V29.46C128.585 29.5267 128.618 29.56 128.685 29.56H131.185ZM137.869 35.98C137.829 35.98 137.795 35.9533 137.769 35.9C137.742 35.86 137.729 35.8067 137.729 35.74V33.9C137.729 33.8333 137.749 33.7733 137.789 33.72C137.842 33.68 137.902 33.66 137.969 33.66C138.529 33.6467 138.969 33.6 139.289 33.52C139.622 33.44 139.882 33.2867 140.069 33.06C140.269 32.8333 140.422 32.5 140.529 32.06C140.542 32.0333 140.542 31.9933 140.529 31.94L137.249 21.98C137.235 21.9533 137.229 21.92 137.229 21.88C137.229 21.76 137.302 21.7 137.449 21.7H139.949C140.095 21.7 140.189 21.7667 140.229 21.9L141.909 28.38C141.922 28.42 141.942 28.44 141.969 28.44C141.995 28.44 142.015 28.42 142.029 28.38L143.709 21.9C143.749 21.7667 143.842 21.7 143.989 21.7H146.429C146.509 21.7 146.562 21.7267 146.589 21.78C146.629 21.82 146.635 21.8867 146.609 21.98L143.149 32.38C142.815 33.3533 142.475 34.08 142.129 34.56C141.782 35.0533 141.295 35.4133 140.669 35.64C140.042 35.8667 139.155 35.98 138.009 35.98H137.869Z" fill="black"/>
<g filter="url(#filter0_d_11_644)">
<path d="M37 65C37 53.9543 45.9543 45 57 45H151C162.046 45 171 53.9543 171 65V70C171 81.0457 162.046 90 151 90H57C45.9543 90 37 81.0457 37 70V65Z" fill="#D9D9D9"/>
</g>
<g filter="url(#filter1_i_11_644)">
<path d="M59.0052 75.14C58.1119 75.14 57.3319 75.0133 56.6652 74.76C55.9986 74.5067 55.4786 74.1533 55.1052 73.7C54.7452 73.2467 54.5652 72.7333 54.5652 72.16V71.96C54.5652 71.8933 54.5852 71.84 54.6252 71.8C54.6786 71.7467 54.7386 71.72 54.8052 71.72H57.0252C57.0919 71.72 57.1452 71.7467 57.1852 71.8C57.2386 71.84 57.2652 71.8933 57.2652 71.96V71.98C57.2652 72.2733 57.4252 72.5267 57.7452 72.74C58.0786 72.94 58.4919 73.04 58.9852 73.04C59.4386 73.04 59.8052 72.9533 60.0852 72.78C60.3652 72.5933 60.5052 72.3667 60.5052 72.1C60.5052 71.86 60.3852 71.68 60.1452 71.56C59.9052 71.44 59.5119 71.3133 58.9652 71.18C58.3386 71.02 57.8452 70.8667 57.4852 70.72C56.6319 70.4267 55.9519 70.0667 55.4452 69.64C54.9386 69.2133 54.6852 68.6 54.6852 67.8C54.6852 66.8133 55.0652 66.0333 55.8252 65.46C56.5986 64.8733 57.6186 64.58 58.8852 64.58C59.7386 64.58 60.4852 64.72 61.1252 65C61.7652 65.2667 62.2586 65.6467 62.6052 66.14C62.9652 66.6333 63.1452 67.1933 63.1452 67.82C63.1452 67.8867 63.1186 67.9467 63.0652 68C63.0252 68.04 62.9719 68.06 62.9052 68.06H60.7652C60.6986 68.06 60.6386 68.04 60.5852 68C60.5452 67.9467 60.5252 67.8867 60.5252 67.82C60.5252 67.5267 60.3719 67.28 60.0652 67.08C59.7719 66.88 59.3786 66.78 58.8852 66.78C58.4452 66.78 58.0852 66.86 57.8052 67.02C57.5252 67.18 57.3852 67.4 57.3852 67.68C57.3852 67.9467 57.5186 68.1467 57.7852 68.28C58.0652 68.4133 58.5252 68.5533 59.1652 68.7C59.3119 68.74 59.4786 68.7867 59.6652 68.84C59.8519 68.88 60.0519 68.9333 60.2652 69C61.2119 69.28 61.9586 69.64 62.5052 70.08C63.0519 70.52 63.3252 71.16 63.3252 72C63.3252 72.9867 62.9319 73.76 62.1452 74.32C61.3719 74.8667 60.3252 75.14 59.0052 75.14ZM74.0443 68.8C74.1243 69.3067 74.151 69.8733 74.1243 70.5C74.111 70.66 74.0243 70.74 73.8643 70.74H67.6843C67.6043 70.74 67.5776 70.7733 67.6043 70.84C67.6443 71.1067 67.7176 71.3733 67.8243 71.64C68.171 72.3867 68.8776 72.76 69.9443 72.76C70.7976 72.7467 71.471 72.4 71.9643 71.72C72.0176 71.64 72.0776 71.6 72.1443 71.6C72.1843 71.6 72.231 71.6267 72.2843 71.68L73.7243 73.1C73.791 73.1667 73.8243 73.2267 73.8243 73.28C73.8243 73.3067 73.7976 73.36 73.7443 73.44C73.3043 73.9867 72.7376 74.4133 72.0443 74.72C71.351 75.0133 70.591 75.16 69.7643 75.16C68.6176 75.16 67.6443 74.9 66.8443 74.38C66.0576 73.86 65.491 73.1333 65.1443 72.2C64.8643 71.5333 64.7243 70.66 64.7243 69.58C64.7243 68.8467 64.8243 68.2 65.0243 67.64C65.331 66.6933 65.8643 65.94 66.6243 65.38C67.3976 64.82 68.311 64.54 69.3643 64.54C70.6976 64.54 71.7643 64.9267 72.5643 65.7C73.3776 66.4733 73.871 67.5067 74.0443 68.8ZM69.3843 66.98C68.5443 66.98 67.991 67.3733 67.7243 68.16C67.671 68.3333 67.6243 68.5467 67.5843 68.8C67.5843 68.8667 67.6176 68.9 67.6843 68.9H71.1443C71.2243 68.9 71.251 68.8667 71.2243 68.8C71.1576 68.4133 71.1243 68.2267 71.1243 68.24C71.0043 67.84 70.791 67.5333 70.4843 67.32C70.191 67.0933 69.8243 66.98 69.3843 66.98ZM76.1023 75C76.0356 75 75.9756 74.98 75.9223 74.94C75.8823 74.8867 75.8623 74.8267 75.8623 74.76V61.24C75.8623 61.1733 75.8823 61.12 75.9223 61.08C75.9756 61.0267 76.0356 61 76.1023 61H78.4423C78.5089 61 78.5623 61.0267 78.6023 61.08C78.6556 61.12 78.6823 61.1733 78.6823 61.24V74.76C78.6823 74.8267 78.6556 74.8867 78.6023 74.94C78.5623 74.98 78.5089 75 78.4423 75H76.1023ZM89.8451 68.8C89.9251 69.3067 89.9517 69.8733 89.9251 70.5C89.9117 70.66 89.8251 70.74 89.6651 70.74H83.4851C83.4051 70.74 83.3784 70.7733 83.4051 70.84C83.4451 71.1067 83.5184 71.3733 83.6251 71.64C83.9717 72.3867 84.6784 72.76 85.7451 72.76C86.5984 72.7467 87.2717 72.4 87.7651 71.72C87.8184 71.64 87.8784 71.6 87.9451 71.6C87.9851 71.6 88.0317 71.6267 88.0851 71.68L89.5251 73.1C89.5917 73.1667 89.6251 73.2267 89.6251 73.28C89.6251 73.3067 89.5984 73.36 89.5451 73.44C89.1051 73.9867 88.5384 74.4133 87.8451 74.72C87.1517 75.0133 86.3917 75.16 85.5651 75.16C84.4184 75.16 83.4451 74.9 82.6451 74.38C81.8584 73.86 81.2917 73.1333 80.9451 72.2C80.6651 71.5333 80.5251 70.66 80.5251 69.58C80.5251 68.8467 80.6251 68.2 80.8251 67.64C81.1317 66.6933 81.6651 65.94 82.4251 65.38C83.1984 64.82 84.1117 64.54 85.1651 64.54C86.4984 64.54 87.5651 64.9267 88.3651 65.7C89.1784 66.4733 89.6717 67.5067 89.8451 68.8ZM85.1851 66.98C84.3451 66.98 83.7917 67.3733 83.5251 68.16C83.4717 68.3333 83.4251 68.5467 83.3851 68.8C83.3851 68.8667 83.4184 68.9 83.4851 68.9H86.9451C87.0251 68.9 87.0517 68.8667 87.0251 68.8C86.9584 68.4133 86.9251 68.2267 86.9251 68.24C86.8051 67.84 86.5917 67.5333 86.2851 67.32C85.9917 67.0933 85.6251 66.98 85.1851 66.98ZM96.183 75.16C95.1164 75.16 94.1897 74.8933 93.403 74.36C92.6297 73.8267 92.0764 73.0933 91.743 72.16C91.5164 71.4933 91.403 70.7067 91.403 69.8C91.403 68.9067 91.5164 68.1333 91.743 67.48C92.063 66.5733 92.6164 65.86 93.403 65.34C94.1897 64.82 95.1164 64.56 96.183 64.56C97.2497 64.56 98.183 64.8267 98.983 65.36C99.7964 65.8933 100.336 66.5667 100.603 67.38C100.71 67.7 100.763 67.94 100.763 68.1V68.14C100.763 68.26 100.696 68.3333 100.563 68.36L98.263 68.7H98.223C98.103 68.7 98.023 68.6333 97.983 68.5L97.923 68.18C97.8297 67.8333 97.623 67.5467 97.303 67.32C96.983 67.0933 96.603 66.98 96.163 66.98C95.7364 66.98 95.3764 67.0867 95.083 67.3C94.7897 67.5133 94.583 67.8067 94.463 68.18C94.3164 68.58 94.243 69.1267 94.243 69.82C94.243 70.5133 94.3097 71.06 94.443 71.46C94.563 71.86 94.7697 72.1733 95.063 72.4C95.3697 72.6267 95.7364 72.74 96.163 72.74C96.5764 72.74 96.9364 72.6333 97.243 72.42C97.563 72.1933 97.783 71.8867 97.903 71.5C97.9164 71.4733 97.923 71.4333 97.923 71.38C97.9364 71.3667 97.943 71.3467 97.943 71.32C97.9564 71.16 98.0497 71.0933 98.223 71.12L100.523 71.48C100.656 71.5067 100.723 71.58 100.723 71.7C100.723 71.8067 100.683 72.0067 100.603 72.3C100.323 73.1933 99.7764 73.8933 98.963 74.4C98.163 74.9067 97.2364 75.16 96.183 75.16ZM108.305 66.74C108.305 66.8067 108.279 66.8667 108.225 66.92C108.185 66.96 108.132 66.98 108.065 66.98H106.145C106.079 66.98 106.045 67.0133 106.045 67.08V71.32C106.045 71.76 106.132 72.0867 106.305 72.3C106.492 72.5133 106.785 72.62 107.185 72.62H107.845C107.912 72.62 107.965 72.6467 108.005 72.7C108.059 72.74 108.085 72.7933 108.085 72.86V74.76C108.085 74.9067 108.005 74.9933 107.845 75.02C107.285 75.0467 106.885 75.06 106.645 75.06C105.539 75.06 104.712 74.88 104.165 74.52C103.619 74.1467 103.339 73.4533 103.325 72.44V67.08C103.325 67.0133 103.292 66.98 103.225 66.98H102.085C102.019 66.98 101.959 66.96 101.905 66.92C101.865 66.8667 101.845 66.8067 101.845 66.74V64.96C101.845 64.8933 101.865 64.84 101.905 64.8C101.959 64.7467 102.019 64.72 102.085 64.72H103.225C103.292 64.72 103.325 64.6867 103.325 64.62V62.24C103.325 62.1733 103.345 62.12 103.385 62.08C103.439 62.0267 103.499 62 103.565 62H105.805C105.872 62 105.925 62.0267 105.965 62.08C106.019 62.12 106.045 62.1733 106.045 62.24V64.62C106.045 64.6867 106.079 64.72 106.145 64.72H108.065C108.132 64.72 108.185 64.7467 108.225 64.8C108.279 64.84 108.305 64.8933 108.305 64.96V66.74ZM111.563 75.08C111.11 75.08 110.73 74.9333 110.423 74.64C110.13 74.3333 109.983 73.9533 109.983 73.5C109.983 73.0333 110.13 72.6533 110.423 72.36C110.716 72.0667 111.096 71.92 111.563 71.92C112.03 71.92 112.41 72.0667 112.703 72.36C112.996 72.6533 113.143 73.0333 113.143 73.5C113.143 73.9533 112.99 74.3333 112.683 74.64C112.39 74.9333 112.016 75.08 111.563 75.08ZM116.954 75.08C116.5 75.08 116.12 74.9333 115.814 74.64C115.52 74.3333 115.374 73.9533 115.374 73.5C115.374 73.0333 115.52 72.6533 115.814 72.36C116.107 72.0667 116.487 71.92 116.954 71.92C117.42 71.92 117.8 72.0667 118.094 72.36C118.387 72.6533 118.534 73.0333 118.534 73.5C118.534 73.9533 118.38 74.3333 118.074 74.64C117.78 74.9333 117.407 75.08 116.954 75.08ZM122.344 75.08C121.891 75.08 121.511 74.9333 121.204 74.64C120.911 74.3333 120.764 73.9533 120.764 73.5C120.764 73.0333 120.911 72.6533 121.204 72.36C121.497 72.0667 121.877 71.92 122.344 71.92C122.811 71.92 123.191 72.0667 123.484 72.36C123.777 72.6533 123.924 73.0333 123.924 73.5C123.924 73.9533 123.771 74.3333 123.464 74.64C123.171 74.9333 122.797 75.08 122.344 75.08Z" fill="black"/>
</g>
<g filter="url(#filter2_d_11_644)">
<line x1="141.119" y1="64.0014" x2="150.024" y2="73.9824" stroke="#514C4C" stroke-width="3"/>
</g>
<g filter="url(#filter3_d_11_644)">
<line x1="148.819" y1="73.5053" x2="157.914" y2="63.9649" stroke="#514C4C" stroke-width="3"/>
</g>
<rect x="37" y="95" width="134" height="248" rx="20" fill="#D9D9D9"/>
<path d="M53.095 120.104C52.4277 120.104 51.8383 119.974 51.327 119.714C50.8243 119.454 50.43 119.09 50.144 118.622C49.8667 118.145 49.728 117.599 49.728 116.984V111.056C49.728 111.013 49.741 110.978 49.767 110.952C49.8017 110.917 49.8407 110.9 49.884 110.9H51.405C51.4483 110.9 51.483 110.917 51.509 110.952C51.5437 110.978 51.561 111.013 51.561 111.056V116.997C51.561 117.456 51.6997 117.829 51.977 118.115C52.263 118.392 52.6357 118.531 53.095 118.531C53.5543 118.531 53.9227 118.392 54.2 118.115C54.486 117.829 54.629 117.456 54.629 116.997V111.056C54.629 111.013 54.642 110.978 54.668 110.952C54.7027 110.917 54.7417 110.9 54.785 110.9H56.306C56.3493 110.9 56.384 110.917 56.41 110.952C56.4447 110.978 56.462 111.013 56.462 111.056V116.984C56.462 117.599 56.319 118.145 56.033 118.622C55.7557 119.09 55.3613 119.454 54.85 119.714C54.3473 119.974 53.7623 120.104 53.095 120.104ZM58.7896 120.052C58.4949 120.052 58.2479 119.957 58.0486 119.766C57.8579 119.567 57.7626 119.32 57.7626 119.025C57.7626 118.722 57.8579 118.475 58.0486 118.284C58.2393 118.093 58.4863 117.998 58.7896 117.998C59.0929 117.998 59.3399 118.093 59.5306 118.284C59.7213 118.475 59.8166 118.722 59.8166 119.025C59.8166 119.32 59.7169 119.567 59.5176 119.766C59.3269 119.957 59.0843 120.052 58.7896 120.052ZM64.5165 120.104C63.8232 120.104 63.2165 119.996 62.6965 119.779C62.1765 119.554 61.7735 119.237 61.4875 118.83C61.2102 118.414 61.0715 117.933 61.0715 117.387V117.101C61.0715 117.058 61.0845 117.023 61.1105 116.997C61.1452 116.962 61.1842 116.945 61.2275 116.945H62.7095C62.7528 116.945 62.7875 116.962 62.8135 116.997C62.8482 117.023 62.8655 117.058 62.8655 117.101V117.296C62.8655 117.643 63.0258 117.937 63.3465 118.18C63.6672 118.414 64.1005 118.531 64.6465 118.531C65.1058 118.531 65.4482 118.436 65.6735 118.245C65.8988 118.046 66.0115 117.803 66.0115 117.517C66.0115 117.309 65.9422 117.136 65.8035 116.997C65.6648 116.85 65.4742 116.724 65.2315 116.62C64.9975 116.507 64.6205 116.356 64.1005 116.165C63.5198 115.966 63.0258 115.762 62.6185 115.554C62.2198 115.346 61.8818 115.064 61.6045 114.709C61.3358 114.345 61.2015 113.899 61.2015 113.37C61.2015 112.85 61.3358 112.395 61.6045 112.005C61.8732 111.615 62.2458 111.316 62.7225 111.108C63.1992 110.9 63.7495 110.796 64.3735 110.796C65.0322 110.796 65.6172 110.913 66.1285 111.147C66.6485 111.381 67.0515 111.71 67.3375 112.135C67.6322 112.551 67.7795 113.036 67.7795 113.591V113.786C67.7795 113.829 67.7622 113.868 67.7275 113.903C67.7015 113.929 67.6668 113.942 67.6235 113.942H66.1285C66.0852 113.942 66.0462 113.929 66.0115 113.903C65.9855 113.868 65.9725 113.829 65.9725 113.786V113.682C65.9725 113.318 65.8208 113.01 65.5175 112.759C65.2228 112.499 64.8155 112.369 64.2955 112.369C63.8882 112.369 63.5675 112.456 63.3335 112.629C63.1082 112.802 62.9955 113.041 62.9955 113.344C62.9955 113.561 63.0605 113.743 63.1905 113.89C63.3292 114.037 63.5285 114.172 63.7885 114.293C64.0572 114.406 64.4688 114.562 65.0235 114.761C65.6388 114.986 66.1198 115.186 66.4665 115.359C66.8218 115.532 67.1382 115.792 67.4155 116.139C67.7015 116.477 67.8445 116.919 67.8445 117.465C67.8445 118.28 67.5455 118.925 66.9475 119.402C66.3495 119.87 65.5392 120.104 64.5165 120.104ZM53.095 135.104C52.4277 135.104 51.8383 134.974 51.327 134.714C50.8243 134.454 50.43 134.09 50.144 133.622C49.8667 133.145 49.728 132.599 49.728 131.984V126.056C49.728 126.013 49.741 125.978 49.767 125.952C49.8017 125.917 49.8407 125.9 49.884 125.9H51.405C51.4483 125.9 51.483 125.917 51.509 125.952C51.5437 125.978 51.561 126.013 51.561 126.056V131.997C51.561 132.456 51.6997 132.829 51.977 133.115C52.263 133.392 52.6357 133.531 53.095 133.531C53.5543 133.531 53.9227 133.392 54.2 133.115C54.486 132.829 54.629 132.456 54.629 131.997V126.056C54.629 126.013 54.642 125.978 54.668 125.952C54.7027 125.917 54.7417 125.9 54.785 125.9H56.306C56.3493 125.9 56.384 125.917 56.41 125.952C56.4447 125.978 56.462 126.013 56.462 126.056V131.984C56.462 132.599 56.319 133.145 56.033 133.622C55.7557 134.09 55.3613 134.454 54.85 134.714C54.3473 134.974 53.7623 135.104 53.095 135.104ZM58.7896 135.052C58.4949 135.052 58.2479 134.957 58.0486 134.766C57.8579 134.567 57.7626 134.32 57.7626 134.025C57.7626 133.722 57.8579 133.475 58.0486 133.284C58.2393 133.093 58.4863 132.998 58.7896 132.998C59.0929 132.998 59.3399 133.093 59.5306 133.284C59.7213 133.475 59.8166 133.722 59.8166 134.025C59.8166 134.32 59.7169 134.567 59.5176 134.766C59.3269 134.957 59.0843 135.052 58.7896 135.052ZM61.5525 135C61.5092 135 61.4702 134.987 61.4355 134.961C61.4095 134.926 61.3965 134.887 61.3965 134.844V126.056C61.3965 126.013 61.4095 125.978 61.4355 125.952C61.4702 125.917 61.5092 125.9 61.5525 125.9H63.0735C63.1168 125.9 63.1515 125.917 63.1775 125.952C63.2122 125.978 63.2295 126.013 63.2295 126.056V129.696C63.2295 129.722 63.2382 129.739 63.2555 129.748C63.2728 129.748 63.2902 129.739 63.3075 129.722L66.3105 125.991C66.3625 125.93 66.4275 125.9 66.5055 125.9H68.2215C68.2908 125.9 68.3342 125.922 68.3515 125.965C68.3688 126 68.3602 126.043 68.3255 126.095L65.4265 129.8C65.4005 129.835 65.3962 129.865 65.4135 129.891L68.4815 134.818C68.4988 134.87 68.5075 134.9 68.5075 134.909C68.5075 134.97 68.4642 135 68.3775 135H66.6615C66.5748 135 66.5142 134.965 66.4795 134.896L64.1655 131.152C64.1568 131.135 64.1438 131.126 64.1265 131.126C64.1092 131.126 64.0918 131.135 64.0745 131.152L63.2555 132.179C63.2382 132.214 63.2295 132.24 63.2295 132.257V134.844C63.2295 134.887 63.2122 134.926 63.1775 134.961C63.1515 134.987 63.1168 135 63.0735 135H61.5525ZM56.111 142.317C56.111 142.36 56.0937 142.399 56.059 142.434C56.033 142.46 55.9983 142.473 55.955 142.473H51.691C51.6477 142.473 51.626 142.495 51.626 142.538V144.553C51.626 144.596 51.6477 144.618 51.691 144.618H54.486C54.5293 144.618 54.564 144.635 54.59 144.67C54.6247 144.696 54.642 144.731 54.642 144.774V146.035C54.642 146.078 54.6247 146.117 54.59 146.152C54.564 146.178 54.5293 146.191 54.486 146.191H51.691C51.6477 146.191 51.626 146.213 51.626 146.256V148.362C51.626 148.405 51.6477 148.427 51.691 148.427H55.955C55.9983 148.427 56.033 148.444 56.059 148.479C56.0937 148.505 56.111 148.54 56.111 148.583V149.844C56.111 149.887 56.0937 149.926 56.059 149.961C56.033 149.987 55.9983 150 55.955 150H49.949C49.9057 150 49.8667 149.987 49.832 149.961C49.806 149.926 49.793 149.887 49.793 149.844V141.056C49.793 141.013 49.806 140.978 49.832 140.952C49.8667 140.917 49.9057 140.9 49.949 140.9H55.955C55.9983 140.9 56.033 140.917 56.059 140.952C56.0937 140.978 56.111 141.013 56.111 141.056V142.317ZM61.1678 143.474C61.1678 143.431 61.1808 143.396 61.2068 143.37C61.2415 143.335 61.2805 143.318 61.3238 143.318H62.8448C62.8881 143.318 62.9228 143.335 62.9488 143.37C62.9835 143.396 63.0008 143.431 63.0008 143.474V149.844C63.0008 149.887 62.9835 149.926 62.9488 149.961C62.9228 149.987 62.8881 150 62.8448 150H61.3238C61.2805 150 61.2415 149.987 61.2068 149.961C61.1808 149.926 61.1678 149.887 61.1678 149.844V149.402C61.1678 149.376 61.1591 149.363 61.1418 149.363C61.1245 149.354 61.1071 149.363 61.0898 149.389C60.7431 149.857 60.2058 150.091 59.4778 150.091C58.8191 150.091 58.2775 149.892 57.8528 149.493C57.4281 149.094 57.2158 148.535 57.2158 147.816V143.474C57.2158 143.431 57.2288 143.396 57.2548 143.37C57.2895 143.335 57.3285 143.318 57.3718 143.318H58.8798C58.9231 143.318 58.9578 143.335 58.9838 143.37C59.0185 143.396 59.0358 143.431 59.0358 143.474V147.361C59.0358 147.708 59.1268 147.989 59.3088 148.206C59.4995 148.423 59.7595 148.531 60.0888 148.531C60.3835 148.531 60.6261 148.444 60.8168 148.271C61.0075 148.089 61.1245 147.855 61.1678 147.569V143.474ZM67.6798 143.227C67.9918 143.227 68.2388 143.288 68.4208 143.409C68.4901 143.444 68.5161 143.509 68.4988 143.604L68.2258 145.086C68.2171 145.19 68.1564 145.22 68.0438 145.177C67.9138 145.134 67.7621 145.112 67.5888 145.112C67.5194 145.112 67.4241 145.121 67.3028 145.138C66.9908 145.164 66.7264 145.281 66.5098 145.489C66.2931 145.688 66.1848 145.957 66.1848 146.295V149.844C66.1848 149.887 66.1674 149.926 66.1328 149.961C66.1068 149.987 66.0721 150 66.0288 150H64.5078C64.4644 150 64.4254 149.987 64.3908 149.961C64.3648 149.926 64.3518 149.887 64.3518 149.844V143.474C64.3518 143.431 64.3648 143.396 64.3908 143.37C64.4254 143.335 64.4644 143.318 64.5078 143.318H66.0288C66.0721 143.318 66.1068 143.335 66.1328 143.37C66.1674 143.396 66.1848 143.431 66.1848 143.474V143.968C66.1848 143.994 66.1934 144.011 66.2108 144.02C66.2281 144.029 66.2411 144.024 66.2498 144.007C66.6051 143.487 67.0818 143.227 67.6798 143.227ZM72.1143 150.104C71.3863 150.104 70.7623 149.913 70.2423 149.532C69.7223 149.151 69.367 148.631 69.1763 147.972C69.055 147.565 68.9943 147.123 68.9943 146.646C68.9943 146.135 69.055 145.675 69.1763 145.268C69.3756 144.627 69.7353 144.124 70.2553 143.76C70.7753 143.396 71.3993 143.214 72.1273 143.214C72.838 143.214 73.4446 143.396 73.9473 143.76C74.45 144.115 74.8053 144.614 75.0133 145.255C75.152 145.688 75.2213 146.143 75.2213 146.62C75.2213 147.088 75.1606 147.526 75.0393 147.933C74.8486 148.609 74.4933 149.142 73.9733 149.532C73.462 149.913 72.8423 150.104 72.1143 150.104ZM72.1143 148.531C72.4003 148.531 72.643 148.444 72.8423 148.271C73.0416 148.098 73.1846 147.859 73.2713 147.556C73.3406 147.279 73.3753 146.975 73.3753 146.646C73.3753 146.282 73.3406 145.974 73.2713 145.723C73.176 145.428 73.0286 145.199 72.8293 145.034C72.63 144.869 72.3873 144.787 72.1013 144.787C71.8066 144.787 71.5596 144.869 71.3603 145.034C71.1696 145.199 71.031 145.428 70.9443 145.723C70.875 145.931 70.8403 146.239 70.8403 146.646C70.8403 147.036 70.8706 147.339 70.9313 147.556C71.018 147.859 71.161 148.098 71.3603 148.271C71.5683 148.444 71.8196 148.531 72.1143 148.531ZM82.3666 145.112C82.5226 145.554 82.6006 146.074 82.6006 146.672C82.6006 147.27 82.5183 147.812 82.3536 148.297C82.1543 148.852 81.838 149.294 81.4046 149.623C80.98 149.944 80.4513 150.104 79.8186 150.104C79.1946 150.104 78.7093 149.887 78.3626 149.454C78.3453 149.428 78.328 149.419 78.3106 149.428C78.2933 149.437 78.2846 149.454 78.2846 149.48V152.262C78.2846 152.305 78.2673 152.34 78.2326 152.366C78.2066 152.401 78.172 152.418 78.1286 152.418H76.6076C76.5643 152.418 76.5253 152.401 76.4906 152.366C76.4646 152.34 76.4516 152.305 76.4516 152.262V143.474C76.4516 143.431 76.4646 143.396 76.4906 143.37C76.5253 143.335 76.5643 143.318 76.6076 143.318H78.1286C78.172 143.318 78.2066 143.335 78.2326 143.37C78.2673 143.396 78.2846 143.431 78.2846 143.474V143.903C78.2846 143.929 78.2933 143.946 78.3106 143.955C78.328 143.955 78.3453 143.946 78.3626 143.929C78.7266 143.452 79.2293 143.214 79.8706 143.214C80.4686 143.214 80.9843 143.383 81.4176 143.721C81.8596 144.05 82.176 144.514 82.3666 145.112ZM80.3776 148.024C80.5943 147.686 80.7026 147.227 80.7026 146.646C80.7026 146.1 80.6116 145.667 80.4296 145.346C80.2303 144.973 79.9096 144.787 79.4676 144.787C79.069 144.787 78.77 144.973 78.5706 145.346C78.3886 145.658 78.2976 146.096 78.2976 146.659C78.2976 147.24 78.393 147.69 78.5836 148.011C78.783 148.358 79.0776 148.531 79.4676 148.531C79.8576 148.531 80.161 148.362 80.3776 148.024ZM89.6652 145.97C89.7172 146.299 89.7346 146.668 89.7172 147.075C89.7086 147.179 89.6522 147.231 89.5482 147.231H85.5312C85.4792 147.231 85.4619 147.253 85.4792 147.296C85.5052 147.469 85.5529 147.643 85.6222 147.816C85.8476 148.301 86.3069 148.544 87.0002 148.544C87.5549 148.535 87.9926 148.31 88.3132 147.868C88.3479 147.816 88.3869 147.79 88.4302 147.79C88.4562 147.79 88.4866 147.807 88.5212 147.842L89.4572 148.765C89.5006 148.808 89.5222 148.847 89.5222 148.882C89.5222 148.899 89.5049 148.934 89.4702 148.986C89.1842 149.341 88.8159 149.619 88.3652 149.818C87.9146 150.009 87.4206 150.104 86.8832 150.104C86.1379 150.104 85.5052 149.935 84.9852 149.597C84.4739 149.259 84.1056 148.787 83.8802 148.18C83.6982 147.747 83.6072 147.179 83.6072 146.477C83.6072 146 83.6722 145.58 83.8022 145.216C84.0016 144.601 84.3482 144.111 84.8422 143.747C85.3449 143.383 85.9386 143.201 86.6232 143.201C87.4899 143.201 88.1832 143.452 88.7032 143.955C89.2319 144.458 89.5526 145.129 89.6652 145.97ZM86.6362 144.787C86.0902 144.787 85.7306 145.043 85.5572 145.554C85.5226 145.667 85.4922 145.805 85.4662 145.97C85.4662 146.013 85.4879 146.035 85.5312 146.035H87.7802C87.8322 146.035 87.8496 146.013 87.8322 145.97C87.7889 145.719 87.7672 145.597 87.7672 145.606C87.6892 145.346 87.5506 145.147 87.3512 145.008C87.1606 144.861 86.9222 144.787 86.6362 144.787ZM52.991 165.104C52.315 165.104 51.7213 164.974 51.21 164.714C50.6987 164.445 50.3043 164.073 50.027 163.596C49.7497 163.119 49.611 162.569 49.611 161.945V158.942C49.611 158.318 49.7497 157.768 50.027 157.291C50.3043 156.814 50.6987 156.446 51.21 156.186C51.7213 155.926 52.315 155.796 52.991 155.796C53.6583 155.796 54.2433 155.922 54.746 156.173C55.2573 156.416 55.6517 156.767 55.929 157.226C56.215 157.677 56.358 158.201 56.358 158.799C56.358 158.877 56.306 158.925 56.202 158.942L54.681 159.033H54.655C54.5683 159.033 54.525 158.985 54.525 158.89C54.525 158.431 54.382 158.062 54.096 157.785C53.8187 157.508 53.4503 157.369 52.991 157.369C52.523 157.369 52.146 157.508 51.86 157.785C51.5827 158.062 51.444 158.431 51.444 158.89V162.023C51.444 162.474 51.5827 162.838 51.86 163.115C52.146 163.392 52.523 163.531 52.991 163.531C53.4503 163.531 53.8187 163.392 54.096 163.115C54.382 162.838 54.525 162.474 54.525 162.023C54.525 161.928 54.577 161.88 54.681 161.88L56.202 161.945C56.2453 161.945 56.28 161.958 56.306 161.984C56.3407 162.01 56.358 162.04 56.358 162.075C56.358 162.673 56.215 163.202 55.929 163.661C55.6517 164.12 55.2573 164.476 54.746 164.727C54.2433 164.978 53.6583 165.104 52.991 165.104ZM61.0692 158.214C61.7625 158.214 62.3215 158.426 62.7462 158.851C63.1708 159.276 63.3832 159.852 63.3832 160.58V164.844C63.3832 164.887 63.3658 164.926 63.3312 164.961C63.3052 164.987 63.2705 165 63.2272 165H61.7062C61.6628 165 61.6238 164.987 61.5892 164.961C61.5632 164.926 61.5502 164.887 61.5502 164.844V160.957C61.5502 160.61 61.4505 160.329 61.2512 160.112C61.0605 159.895 60.8048 159.787 60.4842 159.787C60.1635 159.787 59.9035 159.895 59.7042 160.112C59.5135 160.329 59.4182 160.61 59.4182 160.957V164.844C59.4182 164.887 59.4008 164.926 59.3662 164.961C59.3402 164.987 59.3055 165 59.2622 165H57.7412C57.6978 165 57.6588 164.987 57.6242 164.961C57.5982 164.926 57.5852 164.887 57.5852 164.844V156.056C57.5852 156.013 57.5982 155.978 57.6242 155.952C57.6588 155.917 57.6978 155.9 57.7412 155.9H59.2622C59.3055 155.9 59.3402 155.917 59.3662 155.952C59.4008 155.978 59.4182 156.013 59.4182 156.056V158.929C59.4182 158.955 59.4268 158.972 59.4442 158.981C59.4615 158.99 59.4745 158.985 59.4832 158.968C59.8385 158.465 60.3672 158.214 61.0692 158.214ZM65.6826 157.564C65.3879 157.564 65.1409 157.469 64.9416 157.278C64.7509 157.079 64.6556 156.832 64.6556 156.537C64.6556 156.234 64.7509 155.987 64.9416 155.796C65.1322 155.605 65.3792 155.51 65.6826 155.51C65.9859 155.51 66.2329 155.605 66.4236 155.796C66.6142 155.987 66.7096 156.234 66.7096 156.537C66.7096 156.832 66.6099 157.079 66.4106 157.278C66.2199 157.469 65.9772 157.564 65.6826 157.564ZM64.9026 165C64.8592 165 64.8202 164.987 64.7856 164.961C64.7596 164.926 64.7466 164.887 64.7466 164.844V158.461C64.7466 158.418 64.7596 158.383 64.7856 158.357C64.8202 158.322 64.8592 158.305 64.9026 158.305H66.4236C66.4669 158.305 66.5016 158.322 66.5276 158.357C66.5622 158.383 66.5796 158.418 66.5796 158.461V164.844C66.5796 164.887 66.5622 164.926 66.5276 164.961C66.5016 164.987 66.4669 165 66.4236 165H64.9026ZM71.492 158.214C72.1854 158.214 72.7444 158.426 73.169 158.851C73.5937 159.276 73.806 159.852 73.806 160.58V164.844C73.806 164.887 73.7887 164.926 73.754 164.961C73.728 164.987 73.6934 165 73.65 165H72.129C72.0857 165 72.0467 164.987 72.012 164.961C71.986 164.926 71.973 164.887 71.973 164.844V160.957C71.973 160.61 71.8734 160.329 71.674 160.112C71.4834 159.895 71.2277 159.787 70.907 159.787C70.5864 159.787 70.3264 159.895 70.127 160.112C69.9364 160.329 69.841 160.61 69.841 160.957V164.844C69.841 164.887 69.8237 164.926 69.789 164.961C69.763 164.987 69.7284 165 69.685 165H68.164C68.1207 165 68.0817 164.987 68.047 164.961C68.021 164.926 68.008 164.887 68.008 164.844V158.474C68.008 158.431 68.021 158.396 68.047 158.37C68.0817 158.335 68.1207 158.318 68.164 158.318H69.685C69.7284 158.318 69.763 158.335 69.789 158.37C69.8237 158.396 69.841 158.431 69.841 158.474V158.929C69.841 158.955 69.8497 158.972 69.867 158.981C69.8844 158.99 69.8974 158.985 69.906 158.968C70.2614 158.465 70.79 158.214 71.492 158.214ZM77.7824 158.214C78.3457 158.214 78.8484 158.314 79.2904 158.513C79.7324 158.704 80.0747 158.968 80.3174 159.306C80.5687 159.644 80.6944 160.021 80.6944 160.437V164.844C80.6944 164.887 80.6771 164.926 80.6424 164.961C80.6164 164.987 80.5817 165 80.5384 165H79.0174C78.9741 165 78.9351 164.987 78.9004 164.961C78.8744 164.926 78.8614 164.887 78.8614 164.844V164.415C78.8614 164.389 78.8527 164.372 78.8354 164.363C78.8181 164.354 78.8007 164.363 78.7834 164.389C78.4194 164.866 77.8344 165.104 77.0284 165.104C76.3524 165.104 75.8064 164.939 75.3904 164.61C74.9744 164.281 74.7664 163.795 74.7664 163.154C74.7664 162.487 75.0004 161.971 75.4684 161.607C75.9364 161.234 76.6037 161.048 77.4704 161.048H78.7964C78.8397 161.048 78.8614 161.026 78.8614 160.983V160.697C78.8614 160.411 78.7747 160.19 78.6014 160.034C78.4281 159.869 78.1681 159.787 77.8214 159.787C77.5527 159.787 77.3274 159.835 77.1454 159.93C76.9721 160.025 76.8594 160.16 76.8074 160.333C76.7814 160.428 76.7251 160.472 76.6384 160.463L75.0654 160.255C74.9614 160.238 74.9137 160.199 74.9224 160.138C74.9571 159.774 75.1001 159.445 75.3514 159.15C75.6114 158.855 75.9494 158.626 76.3654 158.461C76.7901 158.296 77.2624 158.214 77.7824 158.214ZM77.5224 163.739C77.8951 163.739 78.2114 163.639 78.4714 163.44C78.7314 163.241 78.8614 162.985 78.8614 162.673V162.205C78.8614 162.162 78.8397 162.14 78.7964 162.14H77.8604C77.4704 162.14 77.1627 162.214 76.9374 162.361C76.7207 162.508 76.6124 162.716 76.6124 162.985C76.6124 163.219 76.6947 163.405 76.8594 163.544C77.0241 163.674 77.2451 163.739 77.5224 163.739ZM49.949 180C49.9057 180 49.8667 179.987 49.832 179.961C49.806 179.926 49.793 179.887 49.793 179.844V171.056C49.793 171.013 49.806 170.978 49.832 170.952C49.8667 170.917 49.9057 170.9 49.949 170.9H51.47C51.5133 170.9 51.548 170.917 51.574 170.952C51.6087 170.978 51.626 171.013 51.626 171.056V179.844C51.626 179.887 51.6087 179.926 51.574 179.961C51.548 179.987 51.5133 180 51.47 180H49.949ZM56.926 174.631C56.926 174.674 56.9087 174.713 56.874 174.748C56.848 174.774 56.8134 174.787 56.77 174.787H55.522C55.4787 174.787 55.457 174.809 55.457 174.852V177.608C55.457 177.894 55.5134 178.106 55.626 178.245C55.7474 178.384 55.938 178.453 56.198 178.453H56.627C56.6704 178.453 56.705 178.47 56.731 178.505C56.7657 178.531 56.783 178.566 56.783 178.609V179.844C56.783 179.939 56.731 179.996 56.627 180.013C56.263 180.03 56.003 180.039 55.847 180.039C55.1277 180.039 54.5904 179.922 54.235 179.688C53.8797 179.445 53.6977 178.995 53.689 178.336V174.852C53.689 174.809 53.6674 174.787 53.624 174.787H52.883C52.8397 174.787 52.8007 174.774 52.766 174.748C52.74 174.713 52.727 174.674 52.727 174.631V173.474C52.727 173.431 52.74 173.396 52.766 173.37C52.8007 173.335 52.8397 173.318 52.883 173.318H53.624C53.6674 173.318 53.689 173.296 53.689 173.253V171.706C53.689 171.663 53.702 171.628 53.728 171.602C53.7627 171.567 53.8017 171.55 53.845 171.55H55.301C55.3444 171.55 55.379 171.567 55.405 171.602C55.4397 171.628 55.457 171.663 55.457 171.706V173.253C55.457 173.296 55.4787 173.318 55.522 173.318H56.77C56.8134 173.318 56.848 173.335 56.874 173.37C56.9087 173.396 56.926 173.431 56.926 173.474V174.631ZM60.6945 173.214C61.2578 173.214 61.7605 173.314 62.2025 173.513C62.6445 173.704 62.9868 173.968 63.2295 174.306C63.4808 174.644 63.6065 175.021 63.6065 175.437V179.844C63.6065 179.887 63.5892 179.926 63.5545 179.961C63.5285 179.987 63.4938 180 63.4505 180H61.9295C61.8862 180 61.8472 179.987 61.8125 179.961C61.7865 179.926 61.7735 179.887 61.7735 179.844V179.415C61.7735 179.389 61.7648 179.372 61.7475 179.363C61.7302 179.354 61.7128 179.363 61.6955 179.389C61.3315 179.866 60.7465 180.104 59.9405 180.104C59.2645 180.104 58.7185 179.939 58.3025 179.61C57.8865 179.281 57.6785 178.795 57.6785 178.154C57.6785 177.487 57.9125 176.971 58.3805 176.607C58.8485 176.234 59.5158 176.048 60.3825 176.048H61.7085C61.7518 176.048 61.7735 176.026 61.7735 175.983V175.697C61.7735 175.411 61.6868 175.19 61.5135 175.034C61.3402 174.869 61.0802 174.787 60.7335 174.787C60.4648 174.787 60.2395 174.835 60.0575 174.93C59.8842 175.025 59.7715 175.16 59.7195 175.333C59.6935 175.428 59.6372 175.472 59.5505 175.463L57.9775 175.255C57.8735 175.238 57.8258 175.199 57.8345 175.138C57.8692 174.774 58.0122 174.445 58.2635 174.15C58.5235 173.855 58.8615 173.626 59.2775 173.461C59.7022 173.296 60.1745 173.214 60.6945 173.214ZM60.4345 178.739C60.8072 178.739 61.1235 178.639 61.3835 178.44C61.6435 178.241 61.7735 177.985 61.7735 177.673V177.205C61.7735 177.162 61.7518 177.14 61.7085 177.14H60.7725C60.3825 177.14 60.0748 177.214 59.8495 177.361C59.6328 177.508 59.5245 177.716 59.5245 177.985C59.5245 178.219 59.6068 178.405 59.7715 178.544C59.9362 178.674 60.1572 178.739 60.4345 178.739ZM65.0537 180C65.0103 180 64.9713 179.987 64.9367 179.961C64.9107 179.926 64.8977 179.887 64.8977 179.844V171.056C64.8977 171.013 64.9107 170.978 64.9367 170.952C64.9713 170.917 65.0103 170.9 65.0537 170.9H66.5747C66.618 170.9 66.6527 170.917 66.6787 170.952C66.7133 170.978 66.7307 171.013 66.7307 171.056V179.844C66.7307 179.887 66.7133 179.926 66.6787 179.961C66.6527 179.987 66.618 180 66.5747 180H65.0537ZM68.0325 182.587C68.0065 182.587 67.9848 182.57 67.9675 182.535C67.9502 182.509 67.9415 182.474 67.9415 182.431V181.235C67.9415 181.192 67.9545 181.153 67.9805 181.118C68.0152 181.092 68.0542 181.079 68.0975 181.079C68.4615 181.07 68.7475 181.04 68.9555 180.988C69.1722 180.936 69.3412 180.836 69.4625 180.689C69.5925 180.542 69.6922 180.325 69.7615 180.039C69.7702 180.022 69.7702 179.996 69.7615 179.961L67.6295 173.487C67.6208 173.47 67.6165 173.448 67.6165 173.422C67.6165 173.344 67.6642 173.305 67.7595 173.305H69.3845C69.4798 173.305 69.5405 173.348 69.5665 173.435L70.6585 177.647C70.6672 177.673 70.6802 177.686 70.6975 177.686C70.7148 177.686 70.7278 177.673 70.7365 177.647L71.8285 173.435C71.8545 173.348 71.9152 173.305 72.0105 173.305H73.5965C73.6485 173.305 73.6832 173.322 73.7005 173.357C73.7265 173.383 73.7308 173.426 73.7135 173.487L71.4645 180.247C71.2478 180.88 71.0268 181.352 70.8015 181.664C70.5762 181.985 70.2598 182.219 69.8525 182.366C69.4452 182.513 68.8688 182.587 68.1235 182.587H68.0325ZM52.913 195.104C52.2197 195.104 51.613 194.996 51.093 194.779C50.573 194.554 50.17 194.237 49.884 193.83C49.6067 193.414 49.468 192.933 49.468 192.387V192.101C49.468 192.058 49.481 192.023 49.507 191.997C49.5417 191.962 49.5807 191.945 49.624 191.945H51.106C51.1493 191.945 51.184 191.962 51.21 191.997C51.2447 192.023 51.262 192.058 51.262 192.101V192.296C51.262 192.643 51.4223 192.937 51.743 193.18C52.0637 193.414 52.497 193.531 53.043 193.531C53.5023 193.531 53.8447 193.436 54.07 193.245C54.2953 193.046 54.408 192.803 54.408 192.517C54.408 192.309 54.3387 192.136 54.2 191.997C54.0613 191.85 53.8707 191.724 53.628 191.62C53.394 191.507 53.017 191.356 52.497 191.165C51.9163 190.966 51.4223 190.762 51.015 190.554C50.6163 190.346 50.2783 190.064 50.001 189.709C49.7323 189.345 49.598 188.899 49.598 188.37C49.598 187.85 49.7323 187.395 50.001 187.005C50.2697 186.615 50.6423 186.316 51.119 186.108C51.5957 185.9 52.146 185.796 52.77 185.796C53.4287 185.796 54.0137 185.913 54.525 186.147C55.045 186.381 55.448 186.71 55.734 187.135C56.0287 187.551 56.176 188.036 56.176 188.591V188.786C56.176 188.829 56.1587 188.868 56.124 188.903C56.098 188.929 56.0633 188.942 56.02 188.942H54.525C54.4817 188.942 54.4427 188.929 54.408 188.903C54.382 188.868 54.369 188.829 54.369 188.786V188.682C54.369 188.318 54.2173 188.01 53.914 187.759C53.6193 187.499 53.212 187.369 52.692 187.369C52.2847 187.369 51.964 187.456 51.73 187.629C51.5047 187.802 51.392 188.041 51.392 188.344C51.392 188.561 51.457 188.743 51.587 188.89C51.7257 189.037 51.925 189.172 52.185 189.293C52.4537 189.406 52.8653 189.562 53.42 189.761C54.0353 189.986 54.5163 190.186 54.863 190.359C55.2183 190.532 55.5347 190.792 55.812 191.139C56.098 191.477 56.241 191.919 56.241 192.465C56.241 193.28 55.942 193.925 55.344 194.402C54.746 194.87 53.9357 195.104 52.913 195.104ZM59.0714 195C58.9761 195 58.9154 194.957 58.8894 194.87L57.0174 188.487L57.0044 188.435C57.0044 188.348 57.0521 188.305 57.1474 188.305H58.7204C58.8158 188.305 58.8764 188.348 58.9024 188.435L59.8384 192.361C59.8471 192.387 59.8601 192.4 59.8774 192.4C59.8948 192.4 59.9078 192.387 59.9164 192.361L60.8914 188.435C60.9174 188.348 60.9781 188.305 61.0734 188.305H62.4384C62.5338 188.305 62.5944 188.348 62.6204 188.435L63.6474 192.374C63.6561 192.4 63.6691 192.413 63.6864 192.413C63.7038 192.413 63.7168 192.4 63.7254 192.374L64.7394 188.435C64.7654 188.348 64.8261 188.305 64.9214 188.305L66.4814 188.331C66.5334 188.331 66.5681 188.348 66.5854 188.383C66.6114 188.409 66.6201 188.448 66.6114 188.5L64.7134 194.87C64.6874 194.957 64.6311 195 64.5444 195H62.9714C62.8761 195 62.8154 194.957 62.7894 194.87L61.7884 191.386C61.7798 191.36 61.7668 191.347 61.7494 191.347C61.7321 191.347 61.7191 191.36 61.7104 191.386L60.8264 194.87C60.8004 194.957 60.7398 195 60.6444 195H59.0714ZM68.5771 187.564C68.2824 187.564 68.0354 187.469 67.8361 187.278C67.6454 187.079 67.5501 186.832 67.5501 186.537C67.5501 186.234 67.6454 185.987 67.8361 185.796C68.0268 185.605 68.2738 185.51 68.5771 185.51C68.8804 185.51 69.1274 185.605 69.3181 185.796C69.5088 185.987 69.6041 186.234 69.6041 186.537C69.6041 186.832 69.5044 187.079 69.3051 187.278C69.1144 187.469 68.8718 187.564 68.5771 187.564ZM67.7971 195C67.7538 195 67.7148 194.987 67.6801 194.961C67.6541 194.926 67.6411 194.887 67.6411 194.844V188.461C67.6411 188.418 67.6541 188.383 67.6801 188.357C67.7148 188.322 67.7538 188.305 67.7971 188.305H69.3181C69.3614 188.305 69.3961 188.322 69.4221 188.357C69.4568 188.383 69.4741 188.418 69.4741 188.461V194.844C69.4741 194.887 69.4568 194.926 69.4221 194.961C69.3961 194.987 69.3614 195 69.3181 195H67.7971ZM74.7376 189.631C74.7376 189.674 74.7202 189.713 74.6856 189.748C74.6596 189.774 74.6249 189.787 74.5816 189.787H73.3336C73.2902 189.787 73.2686 189.809 73.2686 189.852V192.608C73.2686 192.894 73.3249 193.106 73.4376 193.245C73.5589 193.384 73.7496 193.453 74.0096 193.453H74.4386C74.4819 193.453 74.5166 193.47 74.5426 193.505C74.5772 193.531 74.5946 193.566 74.5946 193.609V194.844C74.5946 194.939 74.5426 194.996 74.4386 195.013C74.0746 195.03 73.8146 195.039 73.6586 195.039C72.9392 195.039 72.4019 194.922 72.0466 194.688C71.6912 194.445 71.5092 193.995 71.5006 193.336V189.852C71.5006 189.809 71.4789 189.787 71.4356 189.787H70.6946C70.6512 189.787 70.6122 189.774 70.5776 189.748C70.5516 189.713 70.5386 189.674 70.5386 189.631V188.474C70.5386 188.431 70.5516 188.396 70.5776 188.37C70.6122 188.335 70.6512 188.318 70.6946 188.318H71.4356C71.4789 188.318 71.5006 188.296 71.5006 188.253V186.706C71.5006 186.663 71.5136 186.628 71.5396 186.602C71.5742 186.567 71.6132 186.55 71.6566 186.55H73.1126C73.1559 186.55 73.1906 186.567 73.2166 186.602C73.2512 186.628 73.2686 186.663 73.2686 186.706V188.253C73.2686 188.296 73.2902 188.318 73.3336 188.318H74.5816C74.6249 188.318 74.6596 188.335 74.6856 188.37C74.7202 188.396 74.7376 188.431 74.7376 188.474V189.631ZM75.633 195C75.5897 195 75.5507 194.987 75.516 194.961C75.49 194.926 75.477 194.887 75.477 194.844V193.453C75.477 193.384 75.503 193.319 75.555 193.258L78.48 190.047C78.5234 189.995 78.5147 189.969 78.454 189.969H75.711C75.6677 189.969 75.6287 189.956 75.594 189.93C75.568 189.895 75.555 189.856 75.555 189.813V188.474C75.555 188.431 75.568 188.396 75.594 188.37C75.6287 188.335 75.6677 188.318 75.711 188.318H80.573C80.6164 188.318 80.651 188.335 80.677 188.37C80.7117 188.396 80.729 188.431 80.729 188.474V189.852C80.729 189.913 80.703 189.978 80.651 190.047L77.635 193.258C77.6004 193.31 77.609 193.336 77.661 193.336H80.638C80.6814 193.336 80.716 193.353 80.742 193.388C80.7767 193.414 80.794 193.449 80.794 193.492V194.844C80.794 194.887 80.7767 194.926 80.742 194.961C80.716 194.987 80.6814 195 80.638 195H75.633ZM87.7355 190.97C87.7875 191.299 87.8049 191.668 87.7875 192.075C87.7789 192.179 87.7225 192.231 87.6185 192.231H83.6015C83.5495 192.231 83.5322 192.253 83.5495 192.296C83.5755 192.469 83.6232 192.643 83.6925 192.816C83.9179 193.301 84.3772 193.544 85.0705 193.544C85.6252 193.535 86.0629 193.31 86.3835 192.868C86.4182 192.816 86.4572 192.79 86.5005 192.79C86.5265 192.79 86.5569 192.807 86.5915 192.842L87.5275 193.765C87.5709 193.808 87.5925 193.847 87.5925 193.882C87.5925 193.899 87.5752 193.934 87.5405 193.986C87.2545 194.341 86.8862 194.619 86.4355 194.818C85.9849 195.009 85.4909 195.104 84.9535 195.104C84.2082 195.104 83.5755 194.935 83.0555 194.597C82.5442 194.259 82.1759 193.787 81.9505 193.18C81.7685 192.747 81.6775 192.179 81.6775 191.477C81.6775 191 81.7425 190.58 81.8725 190.216C82.0719 189.601 82.4185 189.111 82.9125 188.747C83.4152 188.383 84.0089 188.201 84.6935 188.201C85.5602 188.201 86.2535 188.452 86.7735 188.955C87.3022 189.458 87.6229 190.129 87.7355 190.97ZM84.7065 189.787C84.1605 189.787 83.8009 190.043 83.6275 190.554C83.5929 190.667 83.5625 190.805 83.5365 190.97C83.5365 191.013 83.5582 191.035 83.6015 191.035H85.8505C85.9025 191.035 85.9199 191.013 85.9025 190.97C85.8592 190.719 85.8375 190.597 85.8375 190.606C85.7595 190.346 85.6209 190.147 85.4215 190.008C85.2309 189.861 84.9925 189.787 84.7065 189.787ZM92.2452 188.227C92.5572 188.227 92.8042 188.288 92.9862 188.409C93.0555 188.444 93.0815 188.509 93.0642 188.604L92.7912 190.086C92.7825 190.19 92.7219 190.22 92.6092 190.177C92.4792 190.134 92.3275 190.112 92.1542 190.112C92.0849 190.112 91.9895 190.121 91.8682 190.138C91.5562 190.164 91.2919 190.281 91.0752 190.489C90.8585 190.688 90.7502 190.957 90.7502 191.295V194.844C90.7502 194.887 90.7329 194.926 90.6982 194.961C90.6722 194.987 90.6375 195 90.5942 195H89.0732C89.0299 195 88.9909 194.987 88.9562 194.961C88.9302 194.926 88.9172 194.887 88.9172 194.844V188.474C88.9172 188.431 88.9302 188.396 88.9562 188.37C88.9909 188.335 89.0299 188.318 89.0732 188.318H90.5942C90.6375 188.318 90.6722 188.335 90.6982 188.37C90.7329 188.396 90.7502 188.431 90.7502 188.474V188.968C90.7502 188.994 90.7589 189.011 90.7762 189.02C90.7935 189.029 90.8065 189.024 90.8152 189.007C91.1705 188.487 91.6472 188.227 92.2452 188.227ZM94.0498 195C94.0064 195 93.9674 194.987 93.9328 194.961C93.9068 194.926 93.8938 194.887 93.8938 194.844V186.056C93.8938 186.013 93.9068 185.978 93.9328 185.952C93.9674 185.917 94.0064 185.9 94.0498 185.9H95.5708C95.6141 185.9 95.6488 185.917 95.6748 185.952C95.7094 185.978 95.7268 186.013 95.7268 186.056V194.844C95.7268 194.887 95.7094 194.926 95.6748 194.961C95.6488 194.987 95.6141 195 95.5708 195H94.0498ZM99.7326 188.214C100.296 188.214 100.799 188.314 101.241 188.513C101.683 188.704 102.025 188.968 102.268 189.306C102.519 189.644 102.645 190.021 102.645 190.437V194.844C102.645 194.887 102.627 194.926 102.593 194.961C102.567 194.987 102.532 195 102.489 195H100.968C100.924 195 100.885 194.987 100.851 194.961C100.825 194.926 100.812 194.887 100.812 194.844V194.415C100.812 194.389 100.803 194.372 100.786 194.363C100.768 194.354 100.751 194.363 100.734 194.389C100.37 194.866 99.7846 195.104 98.9786 195.104C98.3026 195.104 97.7566 194.939 97.3406 194.61C96.9246 194.281 96.7166 193.795 96.7166 193.154C96.7166 192.487 96.9506 191.971 97.4186 191.607C97.8866 191.234 98.5539 191.048 99.4206 191.048H100.747C100.79 191.048 100.812 191.026 100.812 190.983V190.697C100.812 190.411 100.725 190.19 100.552 190.034C100.378 189.869 100.118 189.787 99.7716 189.787C99.5029 189.787 99.2776 189.835 99.0956 189.93C98.9223 190.025 98.8096 190.16 98.7576 190.333C98.7316 190.428 98.6753 190.472 98.5886 190.463L97.0156 190.255C96.9116 190.238 96.8639 190.199 96.8726 190.138C96.9073 189.774 97.0503 189.445 97.3016 189.15C97.5616 188.855 97.8996 188.626 98.3156 188.461C98.7403 188.296 99.2126 188.214 99.7326 188.214ZM99.4726 193.739C99.8453 193.739 100.162 193.639 100.422 193.44C100.682 193.241 100.812 192.985 100.812 192.673V192.205C100.812 192.162 100.79 192.14 100.747 192.14H99.8106C99.4206 192.14 99.1129 192.214 98.8876 192.361C98.6709 192.508 98.5626 192.716 98.5626 192.985C98.5626 193.219 98.6449 193.405 98.8096 193.544C98.9743 193.674 99.1953 193.739 99.4726 193.739ZM107.42 188.214C108.113 188.214 108.672 188.426 109.097 188.851C109.521 189.276 109.734 189.852 109.734 190.58V194.844C109.734 194.887 109.716 194.926 109.682 194.961C109.656 194.987 109.621 195 109.578 195H108.057C108.013 195 107.974 194.987 107.94 194.961C107.914 194.926 107.901 194.887 107.901 194.844V190.957C107.901 190.61 107.801 190.329 107.602 190.112C107.411 189.895 107.155 189.787 106.835 189.787C106.514 189.787 106.254 189.895 106.055 190.112C105.864 190.329 105.769 190.61 105.769 190.957V194.844C105.769 194.887 105.751 194.926 105.717 194.961C105.691 194.987 105.656 195 105.613 195H104.092C104.048 195 104.009 194.987 103.975 194.961C103.949 194.926 103.936 194.887 103.936 194.844V188.474C103.936 188.431 103.949 188.396 103.975 188.37C104.009 188.335 104.048 188.318 104.092 188.318H105.613C105.656 188.318 105.691 188.335 105.717 188.37C105.751 188.396 105.769 188.431 105.769 188.474V188.929C105.769 188.955 105.777 188.972 105.795 188.981C105.812 188.99 105.825 188.985 105.834 188.968C106.189 188.465 106.718 188.214 107.42 188.214ZM115.154 186.056C115.154 186.013 115.167 185.978 115.193 185.952C115.228 185.917 115.267 185.9 115.31 185.9H116.831C116.874 185.9 116.909 185.917 116.935 185.952C116.97 185.978 116.987 186.013 116.987 186.056V194.844C116.987 194.887 116.97 194.926 116.935 194.961C116.909 194.987 116.874 195 116.831 195H115.31C115.267 195 115.228 194.987 115.193 194.961C115.167 194.926 115.154 194.887 115.154 194.844V194.415C115.154 194.389 115.145 194.376 115.128 194.376C115.111 194.367 115.093 194.372 115.076 194.389C114.712 194.866 114.214 195.104 113.581 195.104C112.974 195.104 112.45 194.935 112.008 194.597C111.575 194.259 111.263 193.795 111.072 193.206C110.925 192.755 110.851 192.231 110.851 191.633C110.851 191.018 110.929 190.48 111.085 190.021C111.284 189.466 111.596 189.029 112.021 188.708C112.454 188.379 112.987 188.214 113.62 188.214C114.244 188.214 114.729 188.431 115.076 188.864C115.093 188.89 115.111 188.899 115.128 188.89C115.145 188.881 115.154 188.864 115.154 188.838V186.056ZM114.881 192.972C115.054 192.651 115.141 192.214 115.141 191.659C115.141 191.078 115.046 190.623 114.855 190.294C114.656 189.956 114.365 189.787 113.984 189.787C113.577 189.787 113.269 189.956 113.061 190.294C112.844 190.632 112.736 191.091 112.736 191.672C112.736 192.192 112.827 192.625 113.009 192.972C113.226 193.345 113.546 193.531 113.971 193.531C114.361 193.531 114.664 193.345 114.881 192.972ZM50.69 210.052C50.3953 210.052 50.1483 209.957 49.949 209.766C49.7583 209.567 49.663 209.32 49.663 209.025C49.663 208.722 49.7583 208.475 49.949 208.284C50.1397 208.093 50.3867 207.998 50.69 207.998C50.9933 207.998 51.2403 208.093 51.431 208.284C51.6217 208.475 51.717 208.722 51.717 209.025C51.717 209.32 51.6173 209.567 51.418 209.766C51.2273 209.957 50.9847 210.052 50.69 210.052ZM54.1939 210.052C53.8992 210.052 53.6522 209.957 53.4529 209.766C53.2622 209.567 53.1669 209.32 53.1669 209.025C53.1669 208.722 53.2622 208.475 53.4529 208.284C53.6436 208.093 53.8906 207.998 54.1939 207.998C54.4972 207.998 54.7442 208.093 54.9349 208.284C55.1256 208.475 55.2209 208.722 55.2209 209.025C55.2209 209.32 55.1212 209.567 54.9219 209.766C54.7312 209.957 54.4886 210.052 54.1939 210.052ZM57.6978 210.052C57.4031 210.052 57.1561 209.957 56.9568 209.766C56.7661 209.567 56.6708 209.32 56.6708 209.025C56.6708 208.722 56.7661 208.475 56.9568 208.284C57.1475 208.093 57.3945 207.998 57.6978 207.998C58.0011 207.998 58.2481 208.093 58.4388 208.284C58.6295 208.475 58.7248 208.722 58.7248 209.025C58.7248 209.32 58.6251 209.567 58.4258 209.766C58.2351 209.957 57.9925 210.052 57.6978 210.052Z" fill="black"/>
<rect x="161" y="111" width="4" height="54" fill="#0F0F0F"/>
<defs>
<filter id="filter0_d_11_644" x="33" y="45" width="142" height="53" filterUnits="userSpaceOnUse" color-interpolation-filters="sRGB">
<feFlood flood-opacity="0" result="BackgroundImageFix"/>
<feColorMatrix in="SourceAlpha" type="matrix" values="0 0 0 0 0 0 0 0 0 0 0 0 0 0 0 0 0 0 127 0" result="hardAlpha"/>
<feOffset dy="4"/>
<feGaussianBlur stdDeviation="2"/>
<feComposite in2="hardAlpha" operator="out"/>
<feColorMatrix type="matrix" values="0 0 0 0 0 0 0 0 0 0 0 0 0 0 0 0 0 0 0.25 0"/>
<feBlend mode="normal" in2="BackgroundImageFix" result="effect1_dropShadow_11_644"/>
<feBlend mode="normal" in="SourceGraphic" in2="effect1_dropShadow_11_644" result="shape"/>
</filter>
<filter id="filter1_i_11_644" x="54.5652" y="61" width="69.3589" height="18.16" filterUnits="userSpaceOnUse" color-interpolation-filters="sRGB">
<feFlood flood-opacity="0" result="BackgroundImageFix"/>
<feBlend mode="normal" in="SourceGraphic" in2="BackgroundImageFix" result="shape"/>
<feColorMatrix in="SourceAlpha" type="matrix" values="0 0 0 0 0 0 0 0 0 0 0 0 0 0 0 0 0 0 127 0" result="hardAlpha"/>
<feOffset dy="4"/>
<feGaussianBlur stdDeviation="2"/>
<feComposite in2="hardAlpha" operator="arithmetic" k2="-1" k3="1"/>
<feColorMatrix type="matrix" values="0 0 0 0 0 0 0 0 0 0 0 0 0 0 0 0 0 0 0.25 0"/>
<feBlend mode="normal" in2="shape" result="effect1_innerShadow_11_644"/>
</filter>
<filter id="filter2_d_11_644" x="136" y="63.0028" width="19.1429" height="19.9781" filterUnits="userSpaceOnUse" color-interpolation-filters="sRGB">
<feFlood flood-opacity="0" result="BackgroundImageFix"/>
<feColorMatrix in="SourceAlpha" type="matrix" values="0 0 0 0 0 0 0 0 0 0 0 0 0 0 0 0 0 0 127 0" result="hardAlpha"/>
<feOffset dy="4"/>
<feGaussianBlur stdDeviation="2"/>
<feComposite in2="hardAlpha" operator="out"/>
<feColorMatrix type="matrix" values="0 0 0 0 0 0 0 0 0 0 0 0 0 0 0 0 0 0 0.25 0"/>
<feBlend mode="normal" in2="BackgroundImageFix" result="effect1_dropShadow_11_644"/>
<feBlend mode="normal" in="SourceGraphic" in2="effect1_dropShadow_11_644" result="shape"/>
</filter>
<filter id="filter3_d_11_644" x="143.733" y="62.9299" width="19.2671" height="19.6105" filterUnits="userSpaceOnUse" color-interpolation-filters="sRGB">
<feFlood flood-opacity="0" result="BackgroundImageFix"/>
<feColorMatrix in="SourceAlpha" type="matrix" values="0 0 0 0 0 0 0 0 0 0 0 0 0 0 0 0 0 0 127 0" result="hardAlpha"/>
<feOffset dy="4"/>
<feGaussianBlur stdDeviation="2"/>
<feComposite in2="hardAlpha" operator="out"/>
<feColorMatrix type="matrix" values="0 0 0 0 0 0 0 0 0 0 0 0 0 0 0 0 0 0 0.25 0"/>
<feBlend mode="normal" in2="BackgroundImageFix" result="effect1_dropShadow_11_644"/>
<feBlend mode="normal" in="SourceGraphic" in2="effect1_dropShadow_11_644" result="shape"/>
</filter>
</defs>
</svg>
