<svg width="200" height="500" viewBox="0 0 200 500" fill="none" xmlns="http://www.w3.org/2000/svg">
<rect width="200" height="500" fill="white"/>
<path d="M62.0532 31.16C60.9865 31.16 60.0532 30.9933 59.2532 30.66C58.4532 30.3133 57.8332 29.8267 57.3932 29.2C56.9665 28.56 56.7532 27.82 56.7532 26.98V26.54C56.7532 26.4733 56.7732 26.42 56.8132 26.38C56.8665 26.3267 56.9265 26.3 56.9932 26.3H59.2732C59.3399 26.3 59.3932 26.3267 59.4332 26.38C59.4865 26.42 59.5132 26.4733 59.5132 26.54V26.84C59.5132 27.3733 59.7599 27.8267 60.2532 28.2C60.7465 28.56 61.4132 28.74 62.2532 28.74C62.9599 28.74 63.4865 28.5933 63.8332 28.3C64.1799 27.9933 64.3532 27.62 64.3532 27.18C64.3532 26.86 64.2465 26.5933 64.0332 26.38C63.8199 26.1533 63.5265 25.96 63.1532 25.8C62.7932 25.6267 62.2132 25.3933 61.4132 25.1C60.5199 24.7933 59.7599 24.48 59.1332 24.16C58.5199 23.84 57.9999 23.4067 57.5732 22.86C57.1599 22.3 56.9532 21.6133 56.9532 20.8C56.9532 20 57.1599 19.3 57.5732 18.7C57.9865 18.1 58.5599 17.64 59.2932 17.32C60.0265 17 60.8732 16.84 61.8332 16.84C62.8465 16.84 63.7465 17.02 64.5332 17.38C65.3332 17.74 65.9532 18.2467 66.3932 18.9C66.8465 19.54 67.0732 20.2867 67.0732 21.14V21.44C67.0732 21.5067 67.0465 21.5667 66.9932 21.62C66.9532 21.66 66.8999 21.68 66.8332 21.68H64.5332C64.4665 21.68 64.4065 21.66 64.3532 21.62C64.3132 21.5667 64.2932 21.5067 64.2932 21.44V21.28C64.2932 20.72 64.0599 20.2467 63.5932 19.86C63.1399 19.46 62.5132 19.26 61.7132 19.26C61.0865 19.26 60.5932 19.3933 60.2332 19.66C59.8865 19.9267 59.7132 20.2933 59.7132 20.76C59.7132 21.0933 59.8132 21.3733 60.0132 21.6C60.2265 21.8267 60.5332 22.0333 60.9332 22.22C61.3465 22.3933 61.9799 22.6333 62.8332 22.94C63.7799 23.2867 64.5199 23.5933 65.0532 23.86C65.5999 24.1267 66.0865 24.5267 66.5132 25.06C66.9532 25.58 67.1732 26.26 67.1732 27.1C67.1732 28.3533 66.7132 29.3467 65.7932 30.08C64.8732 30.8 63.6265 31.16 62.0532 31.16ZM73.5077 31.16C72.3877 31.16 71.4277 30.8667 70.6277 30.28C69.8277 29.6933 69.2811 28.8933 68.9877 27.88C68.8011 27.2533 68.7077 26.5733 68.7077 25.84C68.7077 25.0533 68.8011 24.3467 68.9877 23.72C69.2944 22.7333 69.8477 21.96 70.6477 21.4C71.4477 20.84 72.4077 20.56 73.5277 20.56C74.6211 20.56 75.5544 20.84 76.3277 21.4C77.1011 21.9467 77.6477 22.7133 77.9677 23.7C78.1811 24.3667 78.2877 25.0667 78.2877 25.8C78.2877 26.52 78.1944 27.1933 78.0077 27.82C77.7144 28.86 77.1677 29.68 76.3677 30.28C75.5811 30.8667 74.6277 31.16 73.5077 31.16ZM73.5077 28.74C73.9477 28.74 74.3211 28.6067 74.6277 28.34C74.9344 28.0733 75.1544 27.7067 75.2877 27.24C75.3944 26.8133 75.4477 26.3467 75.4477 25.84C75.4477 25.28 75.3944 24.8067 75.2877 24.42C75.1411 23.9667 74.9144 23.6133 74.6077 23.36C74.3011 23.1067 73.9277 22.98 73.4877 22.98C73.0344 22.98 72.6544 23.1067 72.3477 23.36C72.0544 23.6133 71.8411 23.9667 71.7077 24.42C71.6011 24.74 71.5477 25.2133 71.5477 25.84C71.5477 26.44 71.5944 26.9067 71.6877 27.24C71.8211 27.7067 72.0411 28.0733 72.3477 28.34C72.6677 28.6067 73.0544 28.74 73.5077 28.74ZM85.2205 20.58C85.7005 20.58 86.0805 20.6733 86.3605 20.86C86.4672 20.9133 86.5072 21.0133 86.4805 21.16L86.0605 23.44C86.0472 23.6 85.9539 23.6467 85.7805 23.58C85.5805 23.5133 85.3472 23.48 85.0805 23.48C84.9739 23.48 84.8272 23.4933 84.6405 23.52C84.1605 23.56 83.7539 23.74 83.4205 24.06C83.0872 24.3667 82.9205 24.78 82.9205 25.3V30.76C82.9205 30.8267 82.8939 30.8867 82.8405 30.94C82.8005 30.98 82.7472 31 82.6805 31H80.3405C80.2739 31 80.2139 30.98 80.1605 30.94C80.1205 30.8867 80.1005 30.8267 80.1005 30.76V20.96C80.1005 20.8933 80.1205 20.84 80.1605 20.8C80.2139 20.7467 80.2739 20.72 80.3405 20.72H82.6805C82.7472 20.72 82.8005 20.7467 82.8405 20.8C82.8939 20.84 82.9205 20.8933 82.9205 20.96V21.72C82.9205 21.76 82.9339 21.7867 82.9605 21.8C82.9872 21.8133 83.0072 21.8067 83.0205 21.78C83.5672 20.98 84.3005 20.58 85.2205 20.58ZM93.774 22.74C93.774 22.8067 93.7473 22.8667 93.694 22.92C93.654 22.96 93.6007 22.98 93.534 22.98H91.614C91.5473 22.98 91.514 23.0133 91.514 23.08V27.32C91.514 27.76 91.6007 28.0867 91.774 28.3C91.9607 28.5133 92.254 28.62 92.654 28.62H93.314C93.3807 28.62 93.434 28.6467 93.474 28.7C93.5273 28.74 93.554 28.7933 93.554 28.86V30.76C93.554 30.9067 93.474 30.9933 93.314 31.02C92.754 31.0467 92.354 31.06 92.114 31.06C91.0073 31.06 90.1807 30.88 89.634 30.52C89.0873 30.1467 88.8073 29.4533 88.794 28.44V23.08C88.794 23.0133 88.7607 22.98 88.694 22.98H87.554C87.4873 22.98 87.4273 22.96 87.374 22.92C87.334 22.8667 87.314 22.8067 87.314 22.74V20.96C87.314 20.8933 87.334 20.84 87.374 20.8C87.4273 20.7467 87.4873 20.72 87.554 20.72H88.694C88.7607 20.72 88.794 20.6867 88.794 20.62V18.24C88.794 18.1733 88.814 18.12 88.854 18.08C88.9073 18.0267 88.9673 18 89.034 18H91.274C91.3407 18 91.394 18.0267 91.434 18.08C91.4873 18.12 91.514 18.1733 91.514 18.24V20.62C91.514 20.6867 91.5473 20.72 91.614 20.72H93.534C93.6007 20.72 93.654 20.7467 93.694 20.8C93.7473 20.84 93.774 20.8933 93.774 20.96V22.74ZM104.435 24.8C104.515 25.3067 104.542 25.8733 104.515 26.5C104.502 26.66 104.415 26.74 104.255 26.74H98.0749C97.9949 26.74 97.9683 26.7733 97.9949 26.84C98.0349 27.1067 98.1083 27.3733 98.2149 27.64C98.5616 28.3867 99.2683 28.76 100.335 28.76C101.188 28.7467 101.862 28.4 102.355 27.72C102.408 27.64 102.468 27.6 102.535 27.6C102.575 27.6 102.622 27.6267 102.675 27.68L104.115 29.1C104.182 29.1667 104.215 29.2267 104.215 29.28C104.215 29.3067 104.188 29.36 104.135 29.44C103.695 29.9867 103.128 30.4133 102.435 30.72C101.742 31.0133 100.982 31.16 100.155 31.16C99.0083 31.16 98.0349 30.9 97.2349 30.38C96.4483 29.86 95.8816 29.1333 95.5349 28.2C95.2549 27.5333 95.1149 26.66 95.1149 25.58C95.1149 24.8467 95.2149 24.2 95.4149 23.64C95.7216 22.6933 96.2549 21.94 97.0149 21.38C97.7883 20.82 98.7016 20.54 99.7549 20.54C101.088 20.54 102.155 20.9267 102.955 21.7C103.768 22.4733 104.262 23.5067 104.435 24.8ZM99.7749 22.98C98.9349 22.98 98.3816 23.3733 98.1149 24.16C98.0616 24.3333 98.0149 24.5467 97.9749 24.8C97.9749 24.8667 98.0083 24.9 98.0749 24.9H101.535C101.615 24.9 101.642 24.8667 101.615 24.8C101.548 24.4133 101.515 24.2267 101.515 24.24C101.395 23.84 101.182 23.5333 100.875 23.32C100.582 23.0933 100.215 22.98 99.7749 22.98ZM112.633 17.24C112.633 17.1733 112.653 17.12 112.693 17.08C112.746 17.0267 112.806 17 112.873 17H115.213C115.28 17 115.333 17.0267 115.373 17.08C115.426 17.12 115.453 17.1733 115.453 17.24V30.76C115.453 30.8267 115.426 30.8867 115.373 30.94C115.333 30.98 115.28 31 115.213 31H112.873C112.806 31 112.746 30.98 112.693 30.94C112.653 30.8867 112.633 30.8267 112.633 30.76V30.1C112.633 30.06 112.62 30.04 112.593 30.04C112.566 30.0267 112.54 30.0333 112.513 30.06C111.953 30.7933 111.186 31.16 110.213 31.16C109.28 31.16 108.473 30.9 107.793 30.38C107.126 29.86 106.646 29.1467 106.353 28.24C106.126 27.5467 106.013 26.74 106.013 25.82C106.013 24.8733 106.133 24.0467 106.373 23.34C106.68 22.4867 107.16 21.8133 107.813 21.32C108.48 20.8133 109.3 20.56 110.273 20.56C111.233 20.56 111.98 20.8933 112.513 21.56C112.54 21.6 112.566 21.6133 112.593 21.6C112.62 21.5867 112.633 21.56 112.633 21.52V17.24ZM112.213 27.88C112.48 27.3867 112.613 26.7133 112.613 25.86C112.613 24.9667 112.466 24.2667 112.173 23.76C111.866 23.24 111.42 22.98 110.833 22.98C110.206 22.98 109.733 23.24 109.413 23.76C109.08 24.28 108.913 24.9867 108.913 25.88C108.913 26.68 109.053 27.3467 109.333 27.88C109.666 28.4533 110.16 28.74 110.813 28.74C111.413 28.74 111.88 28.4533 112.213 27.88ZM130.065 23.7C129.985 23.74 129.985 23.78 130.065 23.82C131.332 24.4733 131.965 25.56 131.965 27.08C131.965 28.3733 131.525 29.3533 130.645 30.02C129.765 30.6733 128.612 31 127.185 31H122.005C121.938 31 121.878 30.98 121.825 30.94C121.785 30.8867 121.765 30.8267 121.765 30.76V17.24C121.765 17.1733 121.785 17.12 121.825 17.08C121.878 17.0267 121.938 17 122.005 17H127.025C130.185 17 131.765 18.28 131.765 20.84C131.765 22.1733 131.198 23.1267 130.065 23.7ZM124.685 19.42C124.618 19.42 124.585 19.4533 124.585 19.52V22.64C124.585 22.7067 124.618 22.74 124.685 22.74H127.025C127.652 22.74 128.138 22.5933 128.485 22.3C128.832 22.0067 129.005 21.6067 129.005 21.1C129.005 20.58 128.832 20.1733 128.485 19.88C128.138 19.5733 127.652 19.42 127.025 19.42H124.685ZM127.185 28.56C127.798 28.56 128.278 28.4067 128.625 28.1C128.972 27.78 129.145 27.3467 129.145 26.8C129.145 26.2533 128.972 25.8267 128.625 25.52C128.278 25.2 127.792 25.04 127.165 25.04H124.685C124.618 25.04 124.585 25.0733 124.585 25.14V28.46C124.585 28.5267 124.618 28.56 124.685 28.56H127.185ZM133.869 34.98C133.829 34.98 133.795 34.9533 133.769 34.9C133.742 34.86 133.729 34.8067 133.729 34.74V32.9C133.729 32.8333 133.749 32.7733 133.789 32.72C133.842 32.68 133.902 32.66 133.969 32.66C134.529 32.6467 134.969 32.6 135.289 32.52C135.622 32.44 135.882 32.2867 136.069 32.06C136.269 31.8333 136.422 31.5 136.529 31.06C136.542 31.0333 136.542 30.9933 136.529 30.94L133.249 20.98C133.235 20.9533 133.229 20.92 133.229 20.88C133.229 20.76 133.302 20.7 133.449 20.7H135.949C136.095 20.7 136.189 20.7667 136.229 20.9L137.909 27.38C137.922 27.42 137.942 27.44 137.969 27.44C137.995 27.44 138.015 27.42 138.029 27.38L139.709 20.9C139.749 20.7667 139.842 20.7 139.989 20.7H142.429C142.509 20.7 142.562 20.7267 142.589 20.78C142.629 20.82 142.635 20.8867 142.609 20.98L139.149 31.38C138.815 32.3533 138.475 33.08 138.129 33.56C137.782 34.0533 137.295 34.4133 136.669 34.64C136.042 34.8667 135.155 34.98 134.009 34.98H133.869Z" fill="black"/>
<g filter="url(#filter0_d_7_126)">
<path d="M33 64C33 52.9543 41.9543 44 53 44H147C158.046 44 167 52.9543 167 64V69C167 80.0457 158.046 89 147 89H53C41.9543 89 33 80.0457 33 69V64Z" fill="#D9D9D9"/>
</g>
<g filter="url(#filter1_i_7_126)">
<path d="M58.0052 74.14C57.1119 74.14 56.3319 74.0133 55.6652 73.76C54.9986 73.5067 54.4786 73.1533 54.1052 72.7C53.7452 72.2467 53.5652 71.7333 53.5652 71.16V70.96C53.5652 70.8933 53.5852 70.84 53.6252 70.8C53.6786 70.7467 53.7386 70.72 53.8052 70.72H56.0252C56.0919 70.72 56.1452 70.7467 56.1852 70.8C56.2386 70.84 56.2652 70.8933 56.2652 70.96V70.98C56.2652 71.2733 56.4252 71.5267 56.7452 71.74C57.0786 71.94 57.4919 72.04 57.9852 72.04C58.4386 72.04 58.8052 71.9533 59.0852 71.78C59.3652 71.5933 59.5052 71.3667 59.5052 71.1C59.5052 70.86 59.3852 70.68 59.1452 70.56C58.9052 70.44 58.5119 70.3133 57.9652 70.18C57.3386 70.02 56.8452 69.8667 56.4852 69.72C55.6319 69.4267 54.9519 69.0667 54.4452 68.64C53.9386 68.2133 53.6852 67.6 53.6852 66.8C53.6852 65.8133 54.0652 65.0333 54.8252 64.46C55.5986 63.8733 56.6186 63.58 57.8852 63.58C58.7386 63.58 59.4852 63.72 60.1252 64C60.7652 64.2667 61.2586 64.6467 61.6052 65.14C61.9652 65.6333 62.1452 66.1933 62.1452 66.82C62.1452 66.8867 62.1186 66.9467 62.0652 67C62.0252 67.04 61.9719 67.06 61.9052 67.06H59.7652C59.6986 67.06 59.6386 67.04 59.5852 67C59.5452 66.9467 59.5252 66.8867 59.5252 66.82C59.5252 66.5267 59.3719 66.28 59.0652 66.08C58.7719 65.88 58.3786 65.78 57.8852 65.78C57.4452 65.78 57.0852 65.86 56.8052 66.02C56.5252 66.18 56.3852 66.4 56.3852 66.68C56.3852 66.9467 56.5186 67.1467 56.7852 67.28C57.0652 67.4133 57.5252 67.5533 58.1652 67.7C58.3119 67.74 58.4786 67.7867 58.6652 67.84C58.8519 67.88 59.0519 67.9333 59.2652 68C60.2119 68.28 60.9586 68.64 61.5052 69.08C62.0519 69.52 62.3252 70.16 62.3252 71C62.3252 71.9867 61.9319 72.76 61.1452 73.32C60.3719 73.8667 59.3252 74.14 58.0052 74.14ZM73.0443 67.8C73.1243 68.3067 73.151 68.8733 73.1243 69.5C73.111 69.66 73.0243 69.74 72.8643 69.74H66.6843C66.6043 69.74 66.5776 69.7733 66.6043 69.84C66.6443 70.1067 66.7176 70.3733 66.8243 70.64C67.171 71.3867 67.8776 71.76 68.9443 71.76C69.7976 71.7467 70.471 71.4 70.9643 70.72C71.0176 70.64 71.0776 70.6 71.1443 70.6C71.1843 70.6 71.231 70.6267 71.2843 70.68L72.7243 72.1C72.791 72.1667 72.8243 72.2267 72.8243 72.28C72.8243 72.3067 72.7976 72.36 72.7443 72.44C72.3043 72.9867 71.7376 73.4133 71.0443 73.72C70.351 74.0133 69.591 74.16 68.7643 74.16C67.6176 74.16 66.6443 73.9 65.8443 73.38C65.0576 72.86 64.491 72.1333 64.1443 71.2C63.8643 70.5333 63.7243 69.66 63.7243 68.58C63.7243 67.8467 63.8243 67.2 64.0243 66.64C64.331 65.6933 64.8643 64.94 65.6243 64.38C66.3976 63.82 67.311 63.54 68.3643 63.54C69.6976 63.54 70.7643 63.9267 71.5643 64.7C72.3776 65.4733 72.871 66.5067 73.0443 67.8ZM68.3843 65.98C67.5443 65.98 66.991 66.3733 66.7243 67.16C66.671 67.3333 66.6243 67.5467 66.5843 67.8C66.5843 67.8667 66.6176 67.9 66.6843 67.9H70.1443C70.2243 67.9 70.251 67.8667 70.2243 67.8C70.1576 67.4133 70.1243 67.2267 70.1243 67.24C70.0043 66.84 69.791 66.5333 69.4843 66.32C69.191 66.0933 68.8243 65.98 68.3843 65.98ZM75.1023 74C75.0356 74 74.9756 73.98 74.9223 73.94C74.8823 73.8867 74.8623 73.8267 74.8623 73.76V60.24C74.8623 60.1733 74.8823 60.12 74.9223 60.08C74.9756 60.0267 75.0356 60 75.1023 60H77.4423C77.5089 60 77.5623 60.0267 77.6023 60.08C77.6556 60.12 77.6823 60.1733 77.6823 60.24V73.76C77.6823 73.8267 77.6556 73.8867 77.6023 73.94C77.5623 73.98 77.5089 74 77.4423 74H75.1023ZM88.8451 67.8C88.9251 68.3067 88.9517 68.8733 88.9251 69.5C88.9117 69.66 88.8251 69.74 88.6651 69.74H82.4851C82.4051 69.74 82.3784 69.7733 82.4051 69.84C82.4451 70.1067 82.5184 70.3733 82.6251 70.64C82.9717 71.3867 83.6784 71.76 84.7451 71.76C85.5984 71.7467 86.2717 71.4 86.7651 70.72C86.8184 70.64 86.8784 70.6 86.9451 70.6C86.9851 70.6 87.0317 70.6267 87.0851 70.68L88.5251 72.1C88.5917 72.1667 88.6251 72.2267 88.6251 72.28C88.6251 72.3067 88.5984 72.36 88.5451 72.44C88.1051 72.9867 87.5384 73.4133 86.8451 73.72C86.1517 74.0133 85.3917 74.16 84.5651 74.16C83.4184 74.16 82.4451 73.9 81.6451 73.38C80.8584 72.86 80.2917 72.1333 79.9451 71.2C79.6651 70.5333 79.5251 69.66 79.5251 68.58C79.5251 67.8467 79.6251 67.2 79.8251 66.64C80.1317 65.6933 80.6651 64.94 81.4251 64.38C82.1984 63.82 83.1117 63.54 84.1651 63.54C85.4984 63.54 86.5651 63.9267 87.3651 64.7C88.1784 65.4733 88.6717 66.5067 88.8451 67.8ZM84.1851 65.98C83.3451 65.98 82.7917 66.3733 82.5251 67.16C82.4717 67.3333 82.4251 67.5467 82.3851 67.8C82.3851 67.8667 82.4184 67.9 82.4851 67.9H85.9451C86.0251 67.9 86.0517 67.8667 86.0251 67.8C85.9584 67.4133 85.9251 67.2267 85.9251 67.24C85.8051 66.84 85.5917 66.5333 85.2851 66.32C84.9917 66.0933 84.6251 65.98 84.1851 65.98ZM95.183 74.16C94.1164 74.16 93.1897 73.8933 92.403 73.36C91.6297 72.8267 91.0764 72.0933 90.743 71.16C90.5164 70.4933 90.403 69.7067 90.403 68.8C90.403 67.9067 90.5164 67.1333 90.743 66.48C91.063 65.5733 91.6164 64.86 92.403 64.34C93.1897 63.82 94.1164 63.56 95.183 63.56C96.2497 63.56 97.183 63.8267 97.983 64.36C98.7964 64.8933 99.3364 65.5667 99.603 66.38C99.7097 66.7 99.763 66.94 99.763 67.1V67.14C99.763 67.26 99.6964 67.3333 99.563 67.36L97.263 67.7H97.223C97.103 67.7 97.023 67.6333 96.983 67.5L96.923 67.18C96.8297 66.8333 96.623 66.5467 96.303 66.32C95.983 66.0933 95.603 65.98 95.163 65.98C94.7364 65.98 94.3764 66.0867 94.083 66.3C93.7897 66.5133 93.583 66.8067 93.463 67.18C93.3164 67.58 93.243 68.1267 93.243 68.82C93.243 69.5133 93.3097 70.06 93.443 70.46C93.563 70.86 93.7697 71.1733 94.063 71.4C94.3697 71.6267 94.7364 71.74 95.163 71.74C95.5764 71.74 95.9364 71.6333 96.243 71.42C96.563 71.1933 96.783 70.8867 96.903 70.5C96.9164 70.4733 96.923 70.4333 96.923 70.38C96.9364 70.3667 96.943 70.3467 96.943 70.32C96.9564 70.16 97.0497 70.0933 97.223 70.12L99.523 70.48C99.6564 70.5067 99.723 70.58 99.723 70.7C99.723 70.8067 99.683 71.0067 99.603 71.3C99.323 72.1933 98.7764 72.8933 97.963 73.4C97.163 73.9067 96.2364 74.16 95.183 74.16ZM107.305 65.74C107.305 65.8067 107.279 65.8667 107.225 65.92C107.185 65.96 107.132 65.98 107.065 65.98H105.145C105.079 65.98 105.045 66.0133 105.045 66.08V70.32C105.045 70.76 105.132 71.0867 105.305 71.3C105.492 71.5133 105.785 71.62 106.185 71.62H106.845C106.912 71.62 106.965 71.6467 107.005 71.7C107.059 71.74 107.085 71.7933 107.085 71.86V73.76C107.085 73.9067 107.005 73.9933 106.845 74.02C106.285 74.0467 105.885 74.06 105.645 74.06C104.539 74.06 103.712 73.88 103.165 73.52C102.619 73.1467 102.339 72.4533 102.325 71.44V66.08C102.325 66.0133 102.292 65.98 102.225 65.98H101.085C101.019 65.98 100.959 65.96 100.905 65.92C100.865 65.8667 100.845 65.8067 100.845 65.74V63.96C100.845 63.8933 100.865 63.84 100.905 63.8C100.959 63.7467 101.019 63.72 101.085 63.72H102.225C102.292 63.72 102.325 63.6867 102.325 63.62V61.24C102.325 61.1733 102.345 61.12 102.385 61.08C102.439 61.0267 102.499 61 102.565 61H104.805C104.872 61 104.925 61.0267 104.965 61.08C105.019 61.12 105.045 61.1733 105.045 61.24V63.62C105.045 63.6867 105.079 63.72 105.145 63.72H107.065C107.132 63.72 107.185 63.7467 107.225 63.8C107.279 63.84 107.305 63.8933 107.305 63.96V65.74ZM110.563 74.08C110.11 74.08 109.73 73.9333 109.423 73.64C109.13 73.3333 108.983 72.9533 108.983 72.5C108.983 72.0333 109.13 71.6533 109.423 71.36C109.716 71.0667 110.096 70.92 110.563 70.92C111.03 70.92 111.41 71.0667 111.703 71.36C111.996 71.6533 112.143 72.0333 112.143 72.5C112.143 72.9533 111.99 73.3333 111.683 73.64C111.39 73.9333 111.016 74.08 110.563 74.08ZM115.954 74.08C115.5 74.08 115.12 73.9333 114.814 73.64C114.52 73.3333 114.374 72.9533 114.374 72.5C114.374 72.0333 114.52 71.6533 114.814 71.36C115.107 71.0667 115.487 70.92 115.954 70.92C116.42 70.92 116.8 71.0667 117.094 71.36C117.387 71.6533 117.534 72.0333 117.534 72.5C117.534 72.9533 117.38 73.3333 117.074 73.64C116.78 73.9333 116.407 74.08 115.954 74.08ZM121.344 74.08C120.891 74.08 120.511 73.9333 120.204 73.64C119.911 73.3333 119.764 72.9533 119.764 72.5C119.764 72.0333 119.911 71.6533 120.204 71.36C120.497 71.0667 120.877 70.92 121.344 70.92C121.811 70.92 122.191 71.0667 122.484 71.36C122.777 71.6533 122.924 72.0333 122.924 72.5C122.924 72.9533 122.771 73.3333 122.464 73.64C122.171 73.9333 121.797 74.08 121.344 74.08Z" fill="black"/>
</g>
<g filter="url(#filter2_d_7_126)">
<line x1="137.119" y1="63.0014" x2="146.024" y2="72.9824" stroke="#514C4C" stroke-width="3"/>
</g>
<g filter="url(#filter3_d_7_126)">
<line x1="144.819" y1="72.5053" x2="153.914" y2="62.9649" stroke="#514C4C" stroke-width="3"/>
</g>
<defs>
<filter id="filter0_d_7_126" x="29" y="44" width="142" height="53" filterUnits="userSpaceOnUse" color-interpolation-filters="sRGB">
<feFlood flood-opacity="0" result="BackgroundImageFix"/>
<feColorMatrix in="SourceAlpha" type="matrix" values="0 0 0 0 0 0 0 0 0 0 0 0 0 0 0 0 0 0 127 0" result="hardAlpha"/>
<feOffset dy="4"/>
<feGaussianBlur stdDeviation="2"/>
<feComposite in2="hardAlpha" operator="out"/>
<feColorMatrix type="matrix" values="0 0 0 0 0 0 0 0 0 0 0 0 0 0 0 0 0 0 0.25 0"/>
<feBlend mode="normal" in2="BackgroundImageFix" result="effect1_dropShadow_7_126"/>
<feBlend mode="normal" in="SourceGraphic" in2="effect1_dropShadow_7_126" result="shape"/>
</filter>
<filter id="filter1_i_7_126" x="53.5652" y="60" width="69.3589" height="18.16" filterUnits="userSpaceOnUse" color-interpolation-filters="sRGB">
<feFlood flood-opacity="0" result="BackgroundImageFix"/>
<feBlend mode="normal" in="SourceGraphic" in2="BackgroundImageFix" result="shape"/>
<feColorMatrix in="SourceAlpha" type="matrix" values="0 0 0 0 0 0 0 0 0 0 0 0 0 0 0 0 0 0 127 0" result="hardAlpha"/>
<feOffset dy="4"/>
<feGaussianBlur stdDeviation="2"/>
<feComposite in2="hardAlpha" operator="arithmetic" k2="-1" k3="1"/>
<feColorMatrix type="matrix" values="0 0 0 0 0 0 0 0 0 0 0 0 0 0 0 0 0 0 0.25 0"/>
<feBlend mode="normal" in2="shape" result="effect1_innerShadow_7_126"/>
</filter>
<filter id="filter2_d_7_126" x="132" y="62.0029" width="19.1429" height="19.9781" filterUnits="userSpaceOnUse" color-interpolation-filters="sRGB">
<feFlood flood-opacity="0" result="BackgroundImageFix"/>
<feColorMatrix in="SourceAlpha" type="matrix" values="0 0 0 0 0 0 0 0 0 0 0 0 0 0 0 0 0 0 127 0" result="hardAlpha"/>
<feOffset dy="4"/>
<feGaussianBlur stdDeviation="2"/>
<feComposite in2="hardAlpha" operator="out"/>
<feColorMatrix type="matrix" values="0 0 0 0 0 0 0 0 0 0 0 0 0 0 0 0 0 0 0.25 0"/>
<feBlend mode="normal" in2="BackgroundImageFix" result="effect1_dropShadow_7_126"/>
<feBlend mode="normal" in="SourceGraphic" in2="effect1_dropShadow_7_126" result="shape"/>
</filter>
<filter id="filter3_d_7_126" x="139.733" y="61.9299" width="19.2671" height="19.6105" filterUnits="userSpaceOnUse" color-interpolation-filters="sRGB">
<feFlood flood-opacity="0" result="BackgroundImageFix"/>
<feColorMatrix in="SourceAlpha" type="matrix" values="0 0 0 0 0 0 0 0 0 0 0 0 0 0 0 0 0 0 127 0" result="hardAlpha"/>
<feOffset dy="4"/>
<feGaussianBlur stdDeviation="2"/>
<feComposite in2="hardAlpha" operator="out"/>
<feColorMatrix type="matrix" values="0 0 0 0 0 0 0 0 0 0 0 0 0 0 0 0 0 0 0.25 0"/>
<feBlend mode="normal" in2="BackgroundImageFix" result="effect1_dropShadow_7_126"/>
<feBlend mode="normal" in="SourceGraphic" in2="effect1_dropShadow_7_126" result="shape"/>
</filter>
</defs>
</svg>
