<svg width="195" height="600" viewBox="0 0 195 600" fill="none" xmlns="http://www.w3.org/2000/svg">
<rect width="195" height="600" fill="white"/>
<path d="M60.0532 32.16C58.9865 32.16 58.0532 31.9933 57.2532 31.66C56.4532 31.3133 55.8332 30.8267 55.3932 30.2C54.9665 29.56 54.7532 28.82 54.7532 27.98V27.54C54.7532 27.4733 54.7732 27.42 54.8132 27.38C54.8665 27.3267 54.9265 27.3 54.9932 27.3H57.2732C57.3399 27.3 57.3932 27.3267 57.4332 27.38C57.4865 27.42 57.5132 27.4733 57.5132 27.54V27.84C57.5132 28.3733 57.7599 28.8267 58.2532 29.2C58.7465 29.56 59.4132 29.74 60.2532 29.74C60.9599 29.74 61.4865 29.5933 61.8332 29.3C62.1799 28.9933 62.3532 28.62 62.3532 28.18C62.3532 27.86 62.2465 27.5933 62.0332 27.38C61.8199 27.1533 61.5265 26.96 61.1532 26.8C60.7932 26.6267 60.2132 26.3933 59.4132 26.1C58.5199 25.7933 57.7599 25.48 57.1332 25.16C56.5199 24.84 55.9999 24.4067 55.5732 23.86C55.1599 23.3 54.9532 22.6133 54.9532 21.8C54.9532 21 55.1599 20.3 55.5732 19.7C55.9865 19.1 56.5599 18.64 57.2932 18.32C58.0265 18 58.8732 17.84 59.8332 17.84C60.8465 17.84 61.7465 18.02 62.5332 18.38C63.3332 18.74 63.9532 19.2467 64.3932 19.9C64.8465 20.54 65.0732 21.2867 65.0732 22.14V22.44C65.0732 22.5067 65.0465 22.5667 64.9932 22.62C64.9532 22.66 64.8999 22.68 64.8332 22.68H62.5332C62.4665 22.68 62.4065 22.66 62.3532 22.62C62.3132 22.5667 62.2932 22.5067 62.2932 22.44V22.28C62.2932 21.72 62.0599 21.2467 61.5932 20.86C61.1399 20.46 60.5132 20.26 59.7132 20.26C59.0865 20.26 58.5932 20.3933 58.2332 20.66C57.8865 20.9267 57.7132 21.2933 57.7132 21.76C57.7132 22.0933 57.8132 22.3733 58.0132 22.6C58.2265 22.8267 58.5332 23.0333 58.9332 23.22C59.3465 23.3933 59.9799 23.6333 60.8332 23.94C61.7799 24.2867 62.5199 24.5933 63.0532 24.86C63.5999 25.1267 64.0865 25.5267 64.5132 26.06C64.9532 26.58 65.1732 27.26 65.1732 28.1C65.1732 29.3533 64.7132 30.3467 63.7932 31.08C62.8732 31.8 61.6265 32.16 60.0532 32.16ZM71.5077 32.16C70.3877 32.16 69.4277 31.8667 68.6277 31.28C67.8277 30.6933 67.2811 29.8933 66.9877 28.88C66.8011 28.2533 66.7077 27.5733 66.7077 26.84C66.7077 26.0533 66.8011 25.3467 66.9877 24.72C67.2944 23.7333 67.8477 22.96 68.6477 22.4C69.4477 21.84 70.4077 21.56 71.5277 21.56C72.6211 21.56 73.5544 21.84 74.3277 22.4C75.1011 22.9467 75.6477 23.7133 75.9677 24.7C76.1811 25.3667 76.2877 26.0667 76.2877 26.8C76.2877 27.52 76.1944 28.1933 76.0077 28.82C75.7144 29.86 75.1677 30.68 74.3677 31.28C73.5811 31.8667 72.6277 32.16 71.5077 32.16ZM71.5077 29.74C71.9477 29.74 72.3211 29.6067 72.6277 29.34C72.9344 29.0733 73.1544 28.7067 73.2877 28.24C73.3944 27.8133 73.4477 27.3467 73.4477 26.84C73.4477 26.28 73.3944 25.8067 73.2877 25.42C73.1411 24.9667 72.9144 24.6133 72.6077 24.36C72.3011 24.1067 71.9277 23.98 71.4877 23.98C71.0344 23.98 70.6544 24.1067 70.3477 24.36C70.0544 24.6133 69.8411 24.9667 69.7077 25.42C69.6011 25.74 69.5477 26.2133 69.5477 26.84C69.5477 27.44 69.5944 27.9067 69.6877 28.24C69.8211 28.7067 70.0411 29.0733 70.3477 29.34C70.6677 29.6067 71.0544 29.74 71.5077 29.74ZM83.2205 21.58C83.7005 21.58 84.0805 21.6733 84.3605 21.86C84.4672 21.9133 84.5072 22.0133 84.4805 22.16L84.0605 24.44C84.0472 24.6 83.9539 24.6467 83.7805 24.58C83.5805 24.5133 83.3472 24.48 83.0805 24.48C82.9739 24.48 82.8272 24.4933 82.6405 24.52C82.1605 24.56 81.7539 24.74 81.4205 25.06C81.0872 25.3667 80.9205 25.78 80.9205 26.3V31.76C80.9205 31.8267 80.8939 31.8867 80.8405 31.94C80.8005 31.98 80.7472 32 80.6805 32H78.3405C78.2739 32 78.2139 31.98 78.1605 31.94C78.1205 31.8867 78.1005 31.8267 78.1005 31.76V21.96C78.1005 21.8933 78.1205 21.84 78.1605 21.8C78.2139 21.7467 78.2739 21.72 78.3405 21.72H80.6805C80.7472 21.72 80.8005 21.7467 80.8405 21.8C80.8939 21.84 80.9205 21.8933 80.9205 21.96V22.72C80.9205 22.76 80.9339 22.7867 80.9605 22.8C80.9872 22.8133 81.0072 22.8067 81.0205 22.78C81.5672 21.98 82.3005 21.58 83.2205 21.58ZM91.774 23.74C91.774 23.8067 91.7473 23.8667 91.694 23.92C91.654 23.96 91.6007 23.98 91.534 23.98H89.614C89.5473 23.98 89.514 24.0133 89.514 24.08V28.32C89.514 28.76 89.6007 29.0867 89.774 29.3C89.9607 29.5133 90.254 29.62 90.654 29.62H91.314C91.3807 29.62 91.434 29.6467 91.474 29.7C91.5273 29.74 91.554 29.7933 91.554 29.86V31.76C91.554 31.9067 91.474 31.9933 91.314 32.02C90.754 32.0467 90.354 32.06 90.114 32.06C89.0073 32.06 88.1807 31.88 87.634 31.52C87.0873 31.1467 86.8073 30.4533 86.794 29.44V24.08C86.794 24.0133 86.7607 23.98 86.694 23.98H85.554C85.4873 23.98 85.4273 23.96 85.374 23.92C85.334 23.8667 85.314 23.8067 85.314 23.74V21.96C85.314 21.8933 85.334 21.84 85.374 21.8C85.4273 21.7467 85.4873 21.72 85.554 21.72H86.694C86.7607 21.72 86.794 21.6867 86.794 21.62V19.24C86.794 19.1733 86.814 19.12 86.854 19.08C86.9073 19.0267 86.9673 19 87.034 19H89.274C89.3407 19 89.394 19.0267 89.434 19.08C89.4873 19.12 89.514 19.1733 89.514 19.24V21.62C89.514 21.6867 89.5473 21.72 89.614 21.72H91.534C91.6007 21.72 91.654 21.7467 91.694 21.8C91.7473 21.84 91.774 21.8933 91.774 21.96V23.74ZM102.435 25.8C102.515 26.3067 102.542 26.8733 102.515 27.5C102.502 27.66 102.415 27.74 102.255 27.74H96.0749C95.9949 27.74 95.9683 27.7733 95.9949 27.84C96.0349 28.1067 96.1083 28.3733 96.2149 28.64C96.5616 29.3867 97.2683 29.76 98.3349 29.76C99.1883 29.7467 99.8616 29.4 100.355 28.72C100.408 28.64 100.468 28.6 100.535 28.6C100.575 28.6 100.622 28.6267 100.675 28.68L102.115 30.1C102.182 30.1667 102.215 30.2267 102.215 30.28C102.215 30.3067 102.188 30.36 102.135 30.44C101.695 30.9867 101.128 31.4133 100.435 31.72C99.7416 32.0133 98.9816 32.16 98.1549 32.16C97.0083 32.16 96.0349 31.9 95.2349 31.38C94.4483 30.86 93.8816 30.1333 93.5349 29.2C93.2549 28.5333 93.1149 27.66 93.1149 26.58C93.1149 25.8467 93.2149 25.2 93.4149 24.64C93.7216 23.6933 94.2549 22.94 95.0149 22.38C95.7883 21.82 96.7016 21.54 97.7549 21.54C99.0883 21.54 100.155 21.9267 100.955 22.7C101.768 23.4733 102.262 24.5067 102.435 25.8ZM97.7749 23.98C96.9349 23.98 96.3816 24.3733 96.1149 25.16C96.0616 25.3333 96.0149 25.5467 95.9749 25.8C95.9749 25.8667 96.0083 25.9 96.0749 25.9H99.5349C99.6149 25.9 99.6416 25.8667 99.6149 25.8C99.5483 25.4133 99.5149 25.2267 99.5149 25.24C99.3949 24.84 99.1816 24.5333 98.8749 24.32C98.5816 24.0933 98.2149 23.98 97.7749 23.98ZM110.633 18.24C110.633 18.1733 110.653 18.12 110.693 18.08C110.746 18.0267 110.806 18 110.873 18H113.213C113.28 18 113.333 18.0267 113.373 18.08C113.426 18.12 113.453 18.1733 113.453 18.24V31.76C113.453 31.8267 113.426 31.8867 113.373 31.94C113.333 31.98 113.28 32 113.213 32H110.873C110.806 32 110.746 31.98 110.693 31.94C110.653 31.8867 110.633 31.8267 110.633 31.76V31.1C110.633 31.06 110.62 31.04 110.593 31.04C110.566 31.0267 110.54 31.0333 110.513 31.06C109.953 31.7933 109.186 32.16 108.213 32.16C107.28 32.16 106.473 31.9 105.793 31.38C105.126 30.86 104.646 30.1467 104.353 29.24C104.126 28.5467 104.013 27.74 104.013 26.82C104.013 25.8733 104.133 25.0467 104.373 24.34C104.68 23.4867 105.16 22.8133 105.813 22.32C106.48 21.8133 107.3 21.56 108.273 21.56C109.233 21.56 109.98 21.8933 110.513 22.56C110.54 22.6 110.566 22.6133 110.593 22.6C110.62 22.5867 110.633 22.56 110.633 22.52V18.24ZM110.213 28.88C110.48 28.3867 110.613 27.7133 110.613 26.86C110.613 25.9667 110.466 25.2667 110.173 24.76C109.866 24.24 109.42 23.98 108.833 23.98C108.206 23.98 107.733 24.24 107.413 24.76C107.08 25.28 106.913 25.9867 106.913 26.88C106.913 27.68 107.053 28.3467 107.333 28.88C107.666 29.4533 108.16 29.74 108.813 29.74C109.413 29.74 109.88 29.4533 110.213 28.88ZM128.065 24.7C127.985 24.74 127.985 24.78 128.065 24.82C129.332 25.4733 129.965 26.56 129.965 28.08C129.965 29.3733 129.525 30.3533 128.645 31.02C127.765 31.6733 126.612 32 125.185 32H120.005C119.938 32 119.878 31.98 119.825 31.94C119.785 31.8867 119.765 31.8267 119.765 31.76V18.24C119.765 18.1733 119.785 18.12 119.825 18.08C119.878 18.0267 119.938 18 120.005 18H125.025C128.185 18 129.765 19.28 129.765 21.84C129.765 23.1733 129.198 24.1267 128.065 24.7ZM122.685 20.42C122.618 20.42 122.585 20.4533 122.585 20.52V23.64C122.585 23.7067 122.618 23.74 122.685 23.74H125.025C125.652 23.74 126.138 23.5933 126.485 23.3C126.832 23.0067 127.005 22.6067 127.005 22.1C127.005 21.58 126.832 21.1733 126.485 20.88C126.138 20.5733 125.652 20.42 125.025 20.42H122.685ZM125.185 29.56C125.798 29.56 126.278 29.4067 126.625 29.1C126.972 28.78 127.145 28.3467 127.145 27.8C127.145 27.2533 126.972 26.8267 126.625 26.52C126.278 26.2 125.792 26.04 125.165 26.04H122.685C122.618 26.04 122.585 26.0733 122.585 26.14V29.46C122.585 29.5267 122.618 29.56 122.685 29.56H125.185ZM131.869 35.98C131.829 35.98 131.795 35.9533 131.769 35.9C131.742 35.86 131.729 35.8067 131.729 35.74V33.9C131.729 33.8333 131.749 33.7733 131.789 33.72C131.842 33.68 131.902 33.66 131.969 33.66C132.529 33.6467 132.969 33.6 133.289 33.52C133.622 33.44 133.882 33.2867 134.069 33.06C134.269 32.8333 134.422 32.5 134.529 32.06C134.542 32.0333 134.542 31.9933 134.529 31.94L131.249 21.98C131.235 21.9533 131.229 21.92 131.229 21.88C131.229 21.76 131.302 21.7 131.449 21.7H133.949C134.095 21.7 134.189 21.7667 134.229 21.9L135.909 28.38C135.922 28.42 135.942 28.44 135.969 28.44C135.995 28.44 136.015 28.42 136.029 28.38L137.709 21.9C137.749 21.7667 137.842 21.7 137.989 21.7H140.429C140.509 21.7 140.562 21.7267 140.589 21.78C140.629 21.82 140.635 21.8867 140.609 21.98L137.149 32.38C136.815 33.3533 136.475 34.08 136.129 34.56C135.782 35.0533 135.295 35.4133 134.669 35.64C134.042 35.8667 133.155 35.98 132.009 35.98H131.869Z" fill="black"/>
<g filter="url(#filter0_d_7_317)">
<path d="M30 65C30 53.9543 38.9543 45 50 45H144C155.046 45 164 53.9543 164 65V70C164 81.0457 155.046 90 144 90H50C38.9543 90 30 81.0457 30 70V65Z" fill="#D9D9D9"/>
</g>
<g filter="url(#filter1_i_7_317)">
<path d="M49.0052 75.14C48.1119 75.14 47.3319 75.0133 46.6652 74.76C45.9986 74.5067 45.4786 74.1533 45.1052 73.7C44.7452 73.2467 44.5652 72.7333 44.5652 72.16V71.96C44.5652 71.8933 44.5852 71.84 44.6252 71.8C44.6786 71.7467 44.7386 71.72 44.8052 71.72H47.0252C47.0919 71.72 47.1452 71.7467 47.1852 71.8C47.2386 71.84 47.2652 71.8933 47.2652 71.96V71.98C47.2652 72.2733 47.4252 72.5267 47.7452 72.74C48.0786 72.94 48.4919 73.04 48.9852 73.04C49.4386 73.04 49.8052 72.9533 50.0852 72.78C50.3652 72.5933 50.5052 72.3667 50.5052 72.1C50.5052 71.86 50.3852 71.68 50.1452 71.56C49.9052 71.44 49.5119 71.3133 48.9652 71.18C48.3386 71.02 47.8452 70.8667 47.4852 70.72C46.6319 70.4267 45.9519 70.0667 45.4452 69.64C44.9386 69.2133 44.6852 68.6 44.6852 67.8C44.6852 66.8133 45.0652 66.0333 45.8252 65.46C46.5986 64.8733 47.6186 64.58 48.8852 64.58C49.7386 64.58 50.4852 64.72 51.1252 65C51.7652 65.2667 52.2586 65.6467 52.6052 66.14C52.9652 66.6333 53.1452 67.1933 53.1452 67.82C53.1452 67.8867 53.1186 67.9467 53.0652 68C53.0252 68.04 52.9719 68.06 52.9052 68.06H50.7652C50.6986 68.06 50.6386 68.04 50.5852 68C50.5452 67.9467 50.5252 67.8867 50.5252 67.82C50.5252 67.5267 50.3719 67.28 50.0652 67.08C49.7719 66.88 49.3786 66.78 48.8852 66.78C48.4452 66.78 48.0852 66.86 47.8052 67.02C47.5252 67.18 47.3852 67.4 47.3852 67.68C47.3852 67.9467 47.5186 68.1467 47.7852 68.28C48.0652 68.4133 48.5252 68.5533 49.1652 68.7C49.3119 68.74 49.4786 68.7867 49.6652 68.84C49.8519 68.88 50.0519 68.9333 50.2652 69C51.2119 69.28 51.9586 69.64 52.5052 70.08C53.0519 70.52 53.3252 71.16 53.3252 72C53.3252 72.9867 52.9319 73.76 52.1452 74.32C51.3719 74.8667 50.3252 75.14 49.0052 75.14ZM64.0443 68.8C64.1243 69.3067 64.151 69.8733 64.1243 70.5C64.111 70.66 64.0243 70.74 63.8643 70.74H57.6843C57.6043 70.74 57.5776 70.7733 57.6043 70.84C57.6443 71.1067 57.7176 71.3733 57.8243 71.64C58.171 72.3867 58.8776 72.76 59.9443 72.76C60.7976 72.7467 61.471 72.4 61.9643 71.72C62.0176 71.64 62.0776 71.6 62.1443 71.6C62.1843 71.6 62.231 71.6267 62.2843 71.68L63.7243 73.1C63.791 73.1667 63.8243 73.2267 63.8243 73.28C63.8243 73.3067 63.7976 73.36 63.7443 73.44C63.3043 73.9867 62.7376 74.4133 62.0443 74.72C61.351 75.0133 60.591 75.16 59.7643 75.16C58.6176 75.16 57.6443 74.9 56.8443 74.38C56.0576 73.86 55.491 73.1333 55.1443 72.2C54.8643 71.5333 54.7243 70.66 54.7243 69.58C54.7243 68.8467 54.8243 68.2 55.0243 67.64C55.331 66.6933 55.8643 65.94 56.6243 65.38C57.3976 64.82 58.311 64.54 59.3643 64.54C60.6976 64.54 61.7643 64.9267 62.5643 65.7C63.3776 66.4733 63.871 67.5067 64.0443 68.8ZM59.3843 66.98C58.5443 66.98 57.991 67.3733 57.7243 68.16C57.671 68.3333 57.6243 68.5467 57.5843 68.8C57.5843 68.8667 57.6176 68.9 57.6843 68.9H61.1443C61.2243 68.9 61.251 68.8667 61.2243 68.8C61.1576 68.4133 61.1243 68.2267 61.1243 68.24C61.0043 67.84 60.791 67.5333 60.4843 67.32C60.191 67.0933 59.8243 66.98 59.3843 66.98ZM66.1023 75C66.0356 75 65.9756 74.98 65.9223 74.94C65.8823 74.8867 65.8623 74.8267 65.8623 74.76V61.24C65.8623 61.1733 65.8823 61.12 65.9223 61.08C65.9756 61.0267 66.0356 61 66.1023 61H68.4423C68.5089 61 68.5623 61.0267 68.6023 61.08C68.6556 61.12 68.6823 61.1733 68.6823 61.24V74.76C68.6823 74.8267 68.6556 74.8867 68.6023 74.94C68.5623 74.98 68.5089 75 68.4423 75H66.1023ZM79.8451 68.8C79.9251 69.3067 79.9517 69.8733 79.9251 70.5C79.9117 70.66 79.8251 70.74 79.6651 70.74H73.4851C73.4051 70.74 73.3784 70.7733 73.4051 70.84C73.4451 71.1067 73.5184 71.3733 73.6251 71.64C73.9717 72.3867 74.6784 72.76 75.7451 72.76C76.5984 72.7467 77.2717 72.4 77.7651 71.72C77.8184 71.64 77.8784 71.6 77.9451 71.6C77.9851 71.6 78.0317 71.6267 78.0851 71.68L79.5251 73.1C79.5917 73.1667 79.6251 73.2267 79.6251 73.28C79.6251 73.3067 79.5984 73.36 79.5451 73.44C79.1051 73.9867 78.5384 74.4133 77.8451 74.72C77.1517 75.0133 76.3917 75.16 75.5651 75.16C74.4184 75.16 73.4451 74.9 72.6451 74.38C71.8584 73.86 71.2917 73.1333 70.9451 72.2C70.6651 71.5333 70.5251 70.66 70.5251 69.58C70.5251 68.8467 70.6251 68.2 70.8251 67.64C71.1317 66.6933 71.6651 65.94 72.4251 65.38C73.1984 64.82 74.1117 64.54 75.1651 64.54C76.4984 64.54 77.5651 64.9267 78.3651 65.7C79.1784 66.4733 79.6717 67.5067 79.8451 68.8ZM75.1851 66.98C74.3451 66.98 73.7917 67.3733 73.5251 68.16C73.4717 68.3333 73.4251 68.5467 73.3851 68.8C73.3851 68.8667 73.4184 68.9 73.4851 68.9H76.9451C77.0251 68.9 77.0517 68.8667 77.0251 68.8C76.9584 68.4133 76.9251 68.2267 76.9251 68.24C76.8051 67.84 76.5917 67.5333 76.2851 67.32C75.9917 67.0933 75.6251 66.98 75.1851 66.98ZM86.183 75.16C85.1164 75.16 84.1897 74.8933 83.403 74.36C82.6297 73.8267 82.0764 73.0933 81.743 72.16C81.5164 71.4933 81.403 70.7067 81.403 69.8C81.403 68.9067 81.5164 68.1333 81.743 67.48C82.063 66.5733 82.6164 65.86 83.403 65.34C84.1897 64.82 85.1164 64.56 86.183 64.56C87.2497 64.56 88.183 64.8267 88.983 65.36C89.7964 65.8933 90.3364 66.5667 90.603 67.38C90.7097 67.7 90.763 67.94 90.763 68.1V68.14C90.763 68.26 90.6964 68.3333 90.563 68.36L88.263 68.7H88.223C88.103 68.7 88.023 68.6333 87.983 68.5L87.923 68.18C87.8297 67.8333 87.623 67.5467 87.303 67.32C86.983 67.0933 86.603 66.98 86.163 66.98C85.7364 66.98 85.3764 67.0867 85.083 67.3C84.7897 67.5133 84.583 67.8067 84.463 68.18C84.3164 68.58 84.243 69.1267 84.243 69.82C84.243 70.5133 84.3097 71.06 84.443 71.46C84.563 71.86 84.7697 72.1733 85.063 72.4C85.3697 72.6267 85.7364 72.74 86.163 72.74C86.5764 72.74 86.9364 72.6333 87.243 72.42C87.563 72.1933 87.783 71.8867 87.903 71.5C87.9164 71.4733 87.923 71.4333 87.923 71.38C87.9364 71.3667 87.943 71.3467 87.943 71.32C87.9564 71.16 88.0497 71.0933 88.223 71.12L90.523 71.48C90.6564 71.5067 90.723 71.58 90.723 71.7C90.723 71.8067 90.683 72.0067 90.603 72.3C90.323 73.1933 89.7764 73.8933 88.963 74.4C88.163 74.9067 87.2364 75.16 86.183 75.16ZM98.3052 66.74C98.3052 66.8067 98.2786 66.8667 98.2252 66.92C98.1852 66.96 98.1319 66.98 98.0652 66.98H96.1452C96.0786 66.98 96.0452 67.0133 96.0452 67.08V71.32C96.0452 71.76 96.1319 72.0867 96.3052 72.3C96.4919 72.5133 96.7852 72.62 97.1852 72.62H97.8452C97.9119 72.62 97.9652 72.6467 98.0052 72.7C98.0586 72.74 98.0852 72.7933 98.0852 72.86V74.76C98.0852 74.9067 98.0052 74.9933 97.8452 75.02C97.2852 75.0467 96.8852 75.06 96.6452 75.06C95.5386 75.06 94.7119 74.88 94.1652 74.52C93.6186 74.1467 93.3386 73.4533 93.3252 72.44V67.08C93.3252 67.0133 93.2919 66.98 93.2252 66.98H92.0852C92.0186 66.98 91.9586 66.96 91.9052 66.92C91.8652 66.8667 91.8452 66.8067 91.8452 66.74V64.96C91.8452 64.8933 91.8652 64.84 91.9052 64.8C91.9586 64.7467 92.0186 64.72 92.0852 64.72H93.2252C93.2919 64.72 93.3252 64.6867 93.3252 64.62V62.24C93.3252 62.1733 93.3452 62.12 93.3852 62.08C93.4386 62.0267 93.4986 62 93.5652 62H95.8052C95.8719 62 95.9252 62.0267 95.9652 62.08C96.0186 62.12 96.0452 62.1733 96.0452 62.24V64.62C96.0452 64.6867 96.0786 64.72 96.1452 64.72H98.0652C98.1319 64.72 98.1852 64.7467 98.2252 64.8C98.2786 64.84 98.3052 64.8933 98.3052 64.96V66.74ZM101.563 75.08C101.11 75.08 100.73 74.9333 100.423 74.64C100.13 74.3333 99.9829 73.9533 99.9829 73.5C99.9829 73.0333 100.13 72.6533 100.423 72.36C100.716 72.0667 101.096 71.92 101.563 71.92C102.03 71.92 102.41 72.0667 102.703 72.36C102.996 72.6533 103.143 73.0333 103.143 73.5C103.143 73.9533 102.99 74.3333 102.683 74.64C102.39 74.9333 102.016 75.08 101.563 75.08ZM106.954 75.08C106.5 75.08 106.12 74.9333 105.814 74.64C105.52 74.3333 105.374 73.9533 105.374 73.5C105.374 73.0333 105.52 72.6533 105.814 72.36C106.107 72.0667 106.487 71.92 106.954 71.92C107.42 71.92 107.8 72.0667 108.094 72.36C108.387 72.6533 108.534 73.0333 108.534 73.5C108.534 73.9533 108.38 74.3333 108.074 74.64C107.78 74.9333 107.407 75.08 106.954 75.08ZM112.344 75.08C111.891 75.08 111.511 74.9333 111.204 74.64C110.911 74.3333 110.764 73.9533 110.764 73.5C110.764 73.0333 110.911 72.6533 111.204 72.36C111.497 72.0667 111.877 71.92 112.344 71.92C112.811 71.92 113.191 72.0667 113.484 72.36C113.777 72.6533 113.924 73.0333 113.924 73.5C113.924 73.9533 113.771 74.3333 113.464 74.64C113.171 74.9333 112.797 75.08 112.344 75.08Z" fill="black"/>
</g>
<g filter="url(#filter2_d_7_317)">
<line x1="132.119" y1="64.0014" x2="141.024" y2="73.9824" stroke="#514C4C" stroke-width="3"/>
</g>
<g filter="url(#filter3_d_7_317)">
<line x1="139.819" y1="73.5053" x2="148.914" y2="63.9649" stroke="#514C4C" stroke-width="3"/>
</g>
<defs>
<filter id="filter0_d_7_317" x="26" y="45" width="142" height="53" filterUnits="userSpaceOnUse" color-interpolation-filters="sRGB">
<feFlood flood-opacity="0" result="BackgroundImageFix"/>
<feColorMatrix in="SourceAlpha" type="matrix" values="0 0 0 0 0 0 0 0 0 0 0 0 0 0 0 0 0 0 127 0" result="hardAlpha"/>
<feOffset dy="4"/>
<feGaussianBlur stdDeviation="2"/>
<feComposite in2="hardAlpha" operator="out"/>
<feColorMatrix type="matrix" values="0 0 0 0 0 0 0 0 0 0 0 0 0 0 0 0 0 0 0.25 0"/>
<feBlend mode="normal" in2="BackgroundImageFix" result="effect1_dropShadow_7_317"/>
<feBlend mode="normal" in="SourceGraphic" in2="effect1_dropShadow_7_317" result="shape"/>
</filter>
<filter id="filter1_i_7_317" x="44.5652" y="61" width="69.3589" height="18.16" filterUnits="userSpaceOnUse" color-interpolation-filters="sRGB">
<feFlood flood-opacity="0" result="BackgroundImageFix"/>
<feBlend mode="normal" in="SourceGraphic" in2="BackgroundImageFix" result="shape"/>
<feColorMatrix in="SourceAlpha" type="matrix" values="0 0 0 0 0 0 0 0 0 0 0 0 0 0 0 0 0 0 127 0" result="hardAlpha"/>
<feOffset dy="4"/>
<feGaussianBlur stdDeviation="2"/>
<feComposite in2="hardAlpha" operator="arithmetic" k2="-1" k3="1"/>
<feColorMatrix type="matrix" values="0 0 0 0 0 0 0 0 0 0 0 0 0 0 0 0 0 0 0.25 0"/>
<feBlend mode="normal" in2="shape" result="effect1_innerShadow_7_317"/>
</filter>
<filter id="filter2_d_7_317" x="127" y="63.0029" width="19.1429" height="19.9781" filterUnits="userSpaceOnUse" color-interpolation-filters="sRGB">
<feFlood flood-opacity="0" result="BackgroundImageFix"/>
<feColorMatrix in="SourceAlpha" type="matrix" values="0 0 0 0 0 0 0 0 0 0 0 0 0 0 0 0 0 0 127 0" result="hardAlpha"/>
<feOffset dy="4"/>
<feGaussianBlur stdDeviation="2"/>
<feComposite in2="hardAlpha" operator="out"/>
<feColorMatrix type="matrix" values="0 0 0 0 0 0 0 0 0 0 0 0 0 0 0 0 0 0 0.25 0"/>
<feBlend mode="normal" in2="BackgroundImageFix" result="effect1_dropShadow_7_317"/>
<feBlend mode="normal" in="SourceGraphic" in2="effect1_dropShadow_7_317" result="shape"/>
</filter>
<filter id="filter3_d_7_317" x="134.733" y="62.9299" width="19.2671" height="19.6105" filterUnits="userSpaceOnUse" color-interpolation-filters="sRGB">
<feFlood flood-opacity="0" result="BackgroundImageFix"/>
<feColorMatrix in="SourceAlpha" type="matrix" values="0 0 0 0 0 0 0 0 0 0 0 0 0 0 0 0 0 0 127 0" result="hardAlpha"/>
<feOffset dy="4"/>
<feGaussianBlur stdDeviation="2"/>
<feComposite in2="hardAlpha" operator="out"/>
<feColorMatrix type="matrix" values="0 0 0 0 0 0 0 0 0 0 0 0 0 0 0 0 0 0 0.25 0"/>
<feBlend mode="normal" in2="BackgroundImageFix" result="effect1_dropShadow_7_317"/>
<feBlend mode="normal" in="SourceGraphic" in2="effect1_dropShadow_7_317" result="shape"/>
</filter>
</defs>
</svg>
